Sans-Normalcy.ufo
<glyph name="exclam" format="2">
  <advance width="241"/>
  <unicode hex="0021"/>
  <outline>
    <contour>
      <point x="194" y="145" type="line"/>
      <point x="48" y="145" type="line"/>
      <point x="48" y="646" type="line"/>
      <point x="196" y="646" type="line"/>
    </contour>
    <contour>
      <point x="34" y="-10" type="curve" smooth="yes"/>
      <point x="34" y="38"/>
      <point x="73" y="76"/>
      <point x="121" y="76" type="curve" smooth="yes"/>
      <point x="169" y="76"/>
      <point x="207" y="38"/>
      <point x="207" y="-10" type="curve" smooth="yes"/>
      <point x="207" y="-58"/>
      <point x="169" y="-96"/>
      <point x="121" y="-96" type="curve" smooth="yes"/>
      <point x="73" y="-96"/>
      <point x="34" y="-58"/>
    </contour>
  </outline>
</glyph>
<glyph name="quotedbl" format="2">
  <advance width="507"/>
  <unicode hex="0022"/>
  <outline>
    <contour>
      <point x="264" y="646" type="line"/>
      <point x="183" y="426" type="line"/>
      <point x="34" y="426" type="line"/>
      <point x="118" y="646" type="line"/>
    </contour>
    <contour>
      <point x="472" y="646" type="line"/>
      <point x="391" y="426" type="line"/>
      <point x="243" y="426" type="line"/>
      <point x="326" y="646" type="line"/>
    </contour>
  </outline>
</glyph>
<glyph name="numbersign" format="2">
  <advance width="790"/>
  <unicode hex="0023"/>
  <outline>
    <contour>
      <point x="608" y="493" type="line"/>
      <point x="756" y="493" type="line"/>
      <point x="756" y="373" type="line"/>
      <point x="608" y="373" type="line"/>
      <point x="608" y="199" type="line"/>
      <point x="756" y="199" type="line"/>
      <point x="756" y="80" type="line"/>
      <point x="608" y="79" type="line"/>
      <point x="608" y="-75" type="line"/>
      <point x="489" y="-75" type="line"/>
      <point x="488" y="79" type="line"/>
      <point x="397" y="79" type="line"/>
      <point x="397" y="199" type="line"/>
      <point x="488" y="199" type="line"/>
      <point x="488" y="373" type="line"/>
      <point x="302" y="373" type="line"/>
      <point x="303" y="-75" type="line"/>
      <point x="183" y="-75" type="line"/>
      <point x="183" y="78" type="line"/>
      <point x="35" y="78" type="line"/>
      <point x="35" y="199" type="line"/>
      <point x="183" y="199" type="line"/>
      <point x="183" y="373" type="line"/>
      <point x="34" y="373" type="line"/>
      <point x="34" y="492" type="line"/>
      <point x="183" y="492" type="line"/>
      <point x="183" y="646" type="line"/>
      <point x="302" y="646" type="line"/>
      <point x="302" y="492" type="line"/>
      <point x="487" y="493" type="line"/>
      <point x="487" y="646" type="line"/>
      <point x="608" y="646" type="line"/>
    </contour>
  </outline>
</glyph>
<glyph name="dollar" format="2">
  <advance width="517"/>
  <unicode hex="0024"/>
  <outline>
    <contour>
      <point x="459" y="426" type="line"/>
      <point x="308" y="426" type="line" smooth="yes"/>
      <point x="262" y="426"/>
      <point x="210" y="410"/>
      <point x="210" y="363" type="curve" smooth="yes"/>
      <point x="210" y="313"/>
      <point x="272" y="315"/>
      <point x="338" y="306" type="curve" smooth="yes"/>
      <point x="432" y="293"/>
      <point x="483" y="216"/>
      <point x="483" y="115" type="curve" smooth="yes"/>
      <point x="483" y="14"/>
      <point x="426" y="-54"/>
      <point x="319" y="-71" type="curve"/>
      <point x="320" y="-143" type="line"/>
      <point x="199" y="-143" type="line"/>
      <point x="199" y="-75" type="line"/>
      <point x="51" y="-75" type="line"/>
      <point x="51" y="77" type="line"/>
      <point x="202" y="77" type="line" smooth="yes"/>
      <point x="222" y="77"/>
      <point x="292" y="79"/>
      <point x="292" y="128" type="curve" smooth="yes"/>
      <point x="292" y="176"/>
      <point x="223" y="177"/>
      <point x="171" y="187" type="curve" smooth="yes"/>
      <point x="114" y="198"/>
      <point x="34" y="242"/>
      <point x="34" y="358" type="curve" smooth="yes"/>
      <point x="34" y="460"/>
      <point x="61" y="544"/>
      <point x="199" y="570" type="curve"/>
      <point x="199" y="646" type="line"/>
      <point x="318" y="646" type="line"/>
      <point x="319" y="579" type="line"/>
      <point x="459" y="579" type="line"/>
    </contour>
  </outline>
</glyph>
<glyph name="percent" format="2">
  <advance width="801"/>
  <unicode hex="0025"/>
  <outline>
    <contour>
      <point x="659" y="645" type="line"/>
      <point x="291" y="-76" type="line"/>
      <point x="143" y="-75" type="line"/>
      <point x="513" y="645" type="line"/>
    </contour>
    <contour>
      <point x="181" y="679" type="curve" smooth="yes"/>
      <point x="262" y="679"/>
      <point x="327" y="613"/>
      <point x="327" y="531" type="curve" smooth="yes"/>
      <point x="327" y="449"/>
      <point x="262" y="383"/>
      <point x="181" y="383" type="curve" smooth="yes"/>
      <point x="100" y="383"/>
      <point x="34" y="449"/>
      <point x="34" y="531" type="curve" smooth="yes"/>
      <point x="34" y="613"/>
      <point x="100" y="679"/>
    </contour>
    <contour>
      <point x="182" y="599" type="curve" smooth="yes"/>
      <point x="145" y="599"/>
      <point x="114" y="568"/>
      <point x="114" y="531" type="curve" smooth="yes"/>
      <point x="114" y="494"/>
      <point x="145" y="464"/>
      <point x="182" y="464" type="curve" smooth="yes"/>
      <point x="219" y="464"/>
      <point x="250" y="494"/>
      <point x="250" y="531" type="curve" smooth="yes"/>
      <point x="250" y="568"/>
      <point x="219" y="599"/>
    </contour>
    <contour>
      <point x="621" y="190" type="curve" smooth="yes"/>
      <point x="702" y="190"/>
      <point x="767" y="123"/>
      <point x="767" y="41" type="curve" smooth="yes"/>
      <point x="767" y="-41"/>
      <point x="702" y="-107"/>
      <point x="621" y="-107" type="curve" smooth="yes"/>
      <point x="540" y="-107"/>
      <point x="474" y="-41"/>
      <point x="474" y="41" type="curve" smooth="yes"/>
      <point x="474" y="123"/>
      <point x="540" y="190"/>
    </contour>
    <contour>
      <point x="622" y="109" type="curve" smooth="yes"/>
      <point x="585" y="109"/>
      <point x="554" y="79"/>
      <point x="554" y="42" type="curve" smooth="yes"/>
      <point x="554" y="5"/>
      <point x="585" y="-26"/>
      <point x="622" y="-26" type="curve" smooth="yes"/>
      <point x="659" y="-26"/>
      <point x="690" y="5"/>
      <point x="690" y="42" type="curve" smooth="yes"/>
      <point x="690" y="79"/>
      <point x="659" y="109"/>
    </contour>
  </outline>
</glyph>
<glyph name="ampersand" format="2">
  <advance width="692"/>
  <unicode hex="0026"/>
  <outline>
    <contour>
      <point x="249" y="655" type="curve" smooth="yes"/>
      <point x="369" y="655"/>
      <point x="423" y="569"/>
      <point x="423" y="507" type="curve" smooth="yes"/>
      <point x="423" y="446"/>
      <point x="405" y="416"/>
      <point x="371" y="376" type="curve" smooth="yes"/>
      <point x="239" y="220" type="line" smooth="yes"/>
      <point x="195" y="168"/>
      <point x="145" y="110"/>
      <point x="197" y="65" type="curve" smooth="yes"/>
      <point x="220" y="45"/>
      <point x="275" y="45"/>
      <point x="309" y="85" type="curve" smooth="yes"/>
      <point x="490" y="298" type="line"/>
      <point x="664" y="298" type="line"/>
      <point x="507" y="107" type="line"/>
      <point x="664" y="-75" type="line"/>
      <point x="477" y="-75" type="line"/>
      <point x="416" y="-2" type="line"/>
      <point x="361" y="-58"/>
      <point x="322" y="-90"/>
      <point x="237" y="-90" type="curve" smooth="yes"/>
      <point x="139" y="-90"/>
      <point x="30" y="-29"/>
      <point x="30" y="97" type="curve" smooth="yes"/>
      <point x="30" y="165"/>
      <point x="68" y="208"/>
      <point x="137" y="296" type="curve" smooth="yes"/>
      <point x="272" y="459" type="line" smooth="yes"/>
      <point x="286" y="475"/>
      <point x="307" y="505"/>
      <point x="281" y="527" type="curve" smooth="yes"/>
      <point x="260" y="544"/>
      <point x="236" y="538"/>
      <point x="216" y="514" type="curve" smooth="yes"/>
      <point x="137" y="420" type="line"/>
      <point x="124" y="426"/>
      <point x="88" y="466"/>
      <point x="88" y="512" type="curve" smooth="yes"/>
      <point x="88" y="593"/>
      <point x="152" y="655"/>
    </contour>
  </outline>
</glyph>
<glyph name="parenleft" format="2">
  <advance width="353"/>
  <unicode hex="0028"/>
  <outline>
    <contour>
      <point x="272" y="586" type="curve" smooth="yes"/>
      <point x="319" y="586" type="line"/>
      <point x="319" y="433" type="line"/>
      <point x="286" y="433" type="line" smooth="yes"/>
      <point x="203" y="433"/>
      <point x="187" y="390"/>
      <point x="187" y="274" type="curve" smooth="yes"/>
      <point x="187" y="77" type="line" smooth="yes"/>
      <point x="187" y="-39"/>
      <point x="211" y="-82"/>
      <point x="286" y="-82" type="curve" smooth="yes"/>
      <point x="319" y="-82" type="line"/>
      <point x="319" y="-235" type="line"/>
      <point x="272" y="-235" type="line" smooth="yes"/>
      <point x="48" y="-235"/>
      <point x="34" y="-97"/>
      <point x="34" y="31" type="curve" smooth="yes"/>
      <point x="34" y="320" type="line" smooth="yes"/>
      <point x="34" y="448"/>
      <point x="48" y="586"/>
    </contour>
  </outline>
</glyph>
<glyph name="parenright" format="2">
  <advance width="353"/>
  <unicode hex="0029"/>
  <outline>
    <contour>
      <point x="81" y="586" type="line" smooth="yes"/>
      <point x="305" y="586"/>
      <point x="319" y="448"/>
      <point x="319" y="320" type="curve" smooth="yes"/>
      <point x="319" y="31" type="line" smooth="yes"/>
      <point x="319" y="-97"/>
      <point x="305" y="-235"/>
      <point x="81" y="-235" type="curve" smooth="yes"/>
      <point x="34" y="-235" type="line"/>
      <point x="35" y="-82" type="line"/>
      <point x="67" y="-82" type="line" smooth="yes"/>
      <point x="142" y="-82"/>
      <point x="166" y="-39"/>
      <point x="166" y="77" type="curve" smooth="yes"/>
      <point x="166" y="274" type="line" smooth="yes"/>
      <point x="166" y="390"/>
      <point x="150" y="433"/>
      <point x="67" y="433" type="curve" smooth="yes"/>
      <point x="35" y="433" type="line"/>
      <point x="34" y="586" type="line"/>
    </contour>
  </outline>
</glyph>
<glyph name="asterisk" format="2">
  <advance width="424"/>
  <unicode hex="002A"/>
  <outline>
    <contour>
      <point x="268" y="231" type="line"/>
      <point x="158" y="231" type="line"/>
      <point x="162" y="318" type="line"/>
      <point x="89" y="270" type="line"/>
      <point x="34" y="366" type="line"/>
      <point x="113" y="405" type="line"/>
      <point x="34" y="446" type="line"/>
      <point x="89" y="540" type="line"/>
      <point x="162" y="492" type="line"/>
      <point x="158" y="579" type="line"/>
      <point x="266" y="579" type="line"/>
      <point x="262" y="492" type="line"/>
      <point x="336" y="540" type="line"/>
      <point x="390" y="446" type="line"/>
      <point x="312" y="405" type="line"/>
      <point x="390" y="366" type="line"/>
      <point x="335" y="270" type="line"/>
      <point x="263" y="318" type="line"/>
    </contour>
  </outline>
</glyph>
<glyph name="plus" format="2">
  <advance width="470"/>
  <unicode hex="002B"/>
  <outline>
    <contour>
      <point x="181" y="393" type="line"/>
      <point x="292" y="393" type="line"/>
      <point x="292" y="245" type="line"/>
      <point x="436" y="245" type="line"/>
      <point x="436" y="137" type="line"/>
      <point x="292" y="136" type="line"/>
      <point x="292" y="-9" type="line"/>
      <point x="183" y="-9" type="line"/>
      <point x="182" y="136" type="line"/>
      <point x="34" y="135" type="line"/>
      <point x="35" y="245" type="line"/>
      <point x="182" y="245" type="line"/>
    </contour>
  </outline>
</glyph>
<glyph name="comma" format="2">
  <advance width="302"/>
  <unicode hex="002C"/>
  <outline>
    <contour>
      <point x="268" y="131" type="line"/>
      <point x="183" y="-150" type="line"/>
      <point x="34" y="-150" type="line"/>
      <point x="122" y="131" type="line"/>
    </contour>
  </outline>
</glyph>
<glyph name="hyphen" format="2">
  <advance width="417"/>
  <unicode hex="002D"/>
  <outline>
    <contour>
      <point x="383" y="137" type="line"/>
      <point x="34" y="135" type="line"/>
      <point x="35" y="245" type="line"/>
      <point x="383" y="245" type="line"/>
    </contour>
  </outline>
</glyph>
<glyph name="period" format="2">
  <advance width="241"/>
  <unicode hex="002E"/>
  <outline>
    <contour>
      <point x="34" y="-10" type="curve" smooth="yes"/>
      <point x="34" y="38"/>
      <point x="73" y="77"/>
      <point x="121" y="77" type="curve" smooth="yes"/>
      <point x="169" y="77"/>
      <point x="207" y="38"/>
      <point x="207" y="-10" type="curve" smooth="yes"/>
      <point x="207" y="-58"/>
      <point x="169" y="-96"/>
      <point x="121" y="-96" type="curve" smooth="yes"/>
      <point x="73" y="-96"/>
      <point x="34" y="-58"/>
    </contour>
  </outline>
</glyph>
<glyph name="slash" format="2">
  <advance width="440"/>
  <unicode hex="002F"/>
  <outline>
    <contour>
      <point x="406" y="646" type="line"/>
      <point x="183" y="-142" type="line"/>
      <point x="34" y="-142" type="line"/>
      <point x="260" y="646" type="line"/>
    </contour>
  </outline>
</glyph>
<glyph name="zero" format="2">
  <advance width="537"/>
  <unicode hex="0030"/>
  <outline>
    <contour>
      <point x="269" y="596" type="curve" smooth="yes"/>
      <point x="343" y="596"/>
      <point x="397" y="581"/>
      <point x="434" y="554" type="curve"/>
      <point x="322" y="442" type="line"/>
      <point x="309" y="449"/>
      <point x="292" y="453"/>
      <point x="269" y="453" type="curve" smooth="yes"/>
      <point x="176" y="453"/>
      <point x="171" y="383"/>
      <point x="171" y="336" type="curve" smooth="yes"/>
      <point x="171" y="163" type="line" smooth="yes"/>
      <point x="171" y="100"/>
      <point x="197" y="62"/>
      <point x="269" y="62" type="curve" smooth="yes"/>
      <point x="341" y="62"/>
      <point x="366" y="102"/>
      <point x="366" y="163" type="curve" smooth="yes"/>
      <point x="366" y="336" type="line" smooth="yes"/>
      <point x="366" y="341"/>
      <point x="366" y="346"/>
      <point x="366" y="351" type="curve" smooth="yes"/>
      <point x="493" y="478" type="line"/>
      <point x="509" y="440"/>
      <point x="516" y="396"/>
      <point x="516" y="349" type="curve" smooth="yes"/>
      <point x="516" y="135" type="line" smooth="yes"/>
      <point x="516" y="-24"/>
      <point x="414" y="-90"/>
      <point x="269" y="-89" type="curve" smooth="yes"/>
      <point x="124" y="-88"/>
      <point x="22" y="-22"/>
      <point x="22" y="135" type="curve" smooth="yes"/>
      <point x="22" y="349" type="line" smooth="yes"/>
      <point x="22" y="477"/>
      <point x="68" y="596"/>
    </contour>
  </outline>
</glyph>
<glyph name="one" format="2">
  <advance width="323"/>
  <unicode hex="0031"/>
  <outline>
    <contour>
      <point x="149" y="-75" type="line"/>
      <point x="149" y="426" type="line"/>
      <point x="23" y="426" type="line"/>
      <point x="112" y="579" type="line"/>
      <point x="302" y="579" type="line"/>
      <point x="302" y="-75" type="line"/>
    </contour>
  </outline>
</glyph>
<glyph name="two" format="2">
  <advance width="469"/>
  <unicode hex="0032"/>
  <outline>
    <contour>
      <point x="234" y="595" type="curve" smooth="yes"/>
      <point x="365" y="595"/>
      <point x="445" y="515"/>
      <point x="445" y="402" type="curve" smooth="yes"/>
      <point x="445" y="349"/>
      <point x="420" y="298"/>
      <point x="408" y="277" type="curve" smooth="yes"/>
      <point x="280" y="78" type="line"/>
      <point x="448" y="78" type="line"/>
      <point x="447" y="-75" type="line"/>
      <point x="17" y="-75" type="line"/>
      <point x="255" y="293" type="line" smooth="yes"/>
      <point x="270" y="316"/>
      <point x="304" y="359"/>
      <point x="304" y="390" type="curve" smooth="yes"/>
      <point x="304" y="426"/>
      <point x="275" y="459"/>
      <point x="235" y="459" type="curve" smooth="yes"/>
      <point x="192" y="459"/>
      <point x="161" y="435"/>
      <point x="162" y="394" type="curve" smooth="yes"/>
      <point x="163" y="356"/>
      <point x="197" y="336"/>
      <point x="211" y="327" type="curve"/>
      <point x="139" y="221" type="line"/>
      <point x="139" y="221"/>
      <point x="31" y="268"/>
      <point x="31" y="390" type="curve" smooth="yes"/>
      <point x="31" y="512"/>
      <point x="119" y="595"/>
    </contour>
  </outline>
</glyph>
<glyph name="three" format="2">
  <advance width="413"/>
  <unicode hex="0033"/>
  <outline>
    <contour>
      <point x="18" y="579" type="line"/>
      <point x="387" y="579" type="line"/>
      <point x="263" y="342" type="line"/>
      <point x="328" y="316"/>
      <point x="398" y="238"/>
      <point x="398" y="154" type="curve" smooth="yes"/>
      <point x="398" y="-21"/>
      <point x="275" y="-84"/>
      <point x="113" y="-84" type="curve" smooth="yes"/>
      <point x="82" y="-84"/>
      <point x="32" y="-80"/>
      <point x="18" y="-75" type="curve"/>
      <point x="18" y="-15"/>
      <point x="18" y="77"/>
      <point x="18" y="77" type="curve"/>
      <point x="31" y="74"/>
      <point x="70" y="69"/>
      <point x="104" y="69" type="curve" smooth="yes"/>
      <point x="185" y="69"/>
      <point x="224" y="110"/>
      <point x="224" y="169" type="curve" smooth="yes"/>
      <point x="224" y="235"/>
      <point x="168" y="280"/>
      <point x="79" y="284" type="curve"/>
      <point x="164" y="426" type="line"/>
      <point x="18" y="426" type="line"/>
    </contour>
  </outline>
</glyph>
<glyph name="four" format="2">
  <advance width="560"/>
  <unicode hex="0034"/>
  <outline>
    <contour>
      <point x="23" y="579" type="curve"/>
      <point x="169" y="579" type="line"/>
      <point x="169" y="374" type="line" smooth="yes"/>
      <point x="169" y="270"/>
      <point x="196" y="245"/>
      <point x="302" y="245" type="curve" smooth="yes"/>
      <point x="315" y="245" type="line"/>
      <point x="314" y="579" type="line"/>
      <point x="463" y="579" type="line"/>
      <point x="463" y="245" type="line"/>
      <point x="537" y="245" type="line"/>
      <point x="537" y="87" type="line"/>
      <point x="463" y="87" type="line"/>
      <point x="463" y="-75" type="line"/>
      <point x="316" y="-75" type="line"/>
      <point x="316" y="87" type="line"/>
      <point x="252" y="87" type="line" smooth="yes"/>
      <point x="89" y="87"/>
      <point x="23" y="201"/>
      <point x="23" y="321" type="curve" smooth="yes"/>
      <point x="23" y="396"/>
      <point x="23" y="579"/>
    </contour>
  </outline>
</glyph>
<glyph name="five" format="2">
  <advance width="469"/>
  <unicode hex="0035"/>
  <outline>
    <contour>
      <point x="427" y="426" type="line"/>
      <point x="344" y="426"/>
      <point x="261" y="426"/>
      <point x="178" y="426" type="curve"/>
      <point x="178" y="341" type="line"/>
      <point x="231" y="341"/>
      <point x="276" y="339"/>
      <point x="318" y="324" type="curve" smooth="yes"/>
      <point x="399" y="296"/>
      <point x="451" y="232"/>
      <point x="451" y="131" type="curve" smooth="yes"/>
      <point x="451" y="12"/>
      <point x="372" y="-75"/>
      <point x="228" y="-75" type="curve" smooth="yes"/>
      <point x="20" y="-75" type="line"/>
      <point x="20" y="77" type="line"/>
      <point x="182" y="77" type="line" smooth="yes"/>
      <point x="225" y="77"/>
      <point x="287" y="89"/>
      <point x="287" y="138" type="curve" smooth="yes"/>
      <point x="287" y="185"/>
      <point x="244" y="201"/>
      <point x="176" y="201" type="curve" smooth="yes"/>
      <point x="149" y="201"/>
      <point x="20" y="201"/>
      <point x="20" y="201" type="curve"/>
      <point x="20" y="579" type="line"/>
      <point x="427" y="579" type="line"/>
    </contour>
  </outline>
</glyph>
<glyph name="six" format="2">
  <advance width="543"/>
  <unicode hex="0036"/>
  <outline>
    <contour>
      <point x="270" y="-100" type="curve" smooth="yes"/>
      <point x="92" y="-100"/>
      <point x="23" y="9"/>
      <point x="23" y="147" type="curve" smooth="yes"/>
      <point x="23" y="366" type="line" smooth="yes"/>
      <point x="23" y="438"/>
      <point x="58" y="503"/>
      <point x="110" y="542" type="curve" smooth="yes"/>
      <point x="183" y="597"/>
      <point x="280" y="591"/>
      <point x="324" y="591" type="curve" smooth="yes"/>
      <point x="376" y="591"/>
      <point x="437" y="579"/>
      <point x="437" y="579" type="curve"/>
      <point x="437" y="427" type="line"/>
      <point x="437" y="427"/>
      <point x="392" y="438"/>
      <point x="328" y="438" type="curve" smooth="yes"/>
      <point x="264" y="438"/>
      <point x="237" y="429"/>
      <point x="210" y="412" type="curve" smooth="yes"/>
      <point x="192" y="400"/>
      <point x="172" y="378"/>
      <point x="172" y="339" type="curve" smooth="yes"/>
      <point x="172" y="160" type="line" smooth="yes"/>
      <point x="172" y="111"/>
      <point x="183" y="42"/>
      <point x="280" y="42" type="curve" smooth="yes"/>
      <point x="337" y="42"/>
      <point x="373" y="81"/>
      <point x="373" y="135" type="curve" smooth="yes"/>
      <point x="373" y="188"/>
      <point x="337" y="227"/>
      <point x="237" y="224" type="curve"/>
      <point x="237" y="359" type="line"/>
      <point x="287" y="359" type="line" smooth="yes"/>
      <point x="402" y="359"/>
      <point x="521" y="295"/>
      <point x="521" y="131" type="curve" smooth="yes"/>
      <point x="521" y="-4"/>
      <point x="460" y="-100"/>
    </contour>
  </outline>
</glyph>
<glyph name="seven" format="2">
  <advance width="511"/>
  <unicode hex="0037"/>
  <outline>
    <contour>
      <point x="12" y="579" type="line"/>
      <point x="496" y="579" type="line"/>
      <point x="237" y="-75" type="line"/>
      <point x="64" y="-75" type="line"/>
      <point x="266" y="426" type="line"/>
      <point x="12" y="426" type="line"/>
    </contour>
  </outline>
</glyph>
<glyph name="eight" format="2">
  <advance width="503"/>
  <unicode hex="0038"/>
  <outline>
    <contour>
      <point x="255" y="597" type="curve" smooth="yes"/>
      <point x="398" y="597"/>
      <point x="478" y="530"/>
      <point x="478" y="419" type="curve" smooth="yes"/>
      <point x="478" y="381"/>
      <point x="467" y="335"/>
      <point x="424" y="300" type="curve" smooth="yes"/>
      <point x="375" y="261"/>
      <point x="315" y="227"/>
      <point x="257" y="190" type="curve" smooth="yes"/>
      <point x="213" y="162"/>
      <point x="183" y="136"/>
      <point x="183" y="105" type="curve" smooth="yes"/>
      <point x="183" y="66"/>
      <point x="219" y="55"/>
      <point x="256" y="55" type="curve" smooth="yes"/>
      <point x="296" y="55"/>
      <point x="329" y="75"/>
      <point x="329" y="109" type="curve" smooth="yes"/>
      <point x="329" y="126"/>
      <point x="319" y="147"/>
      <point x="298" y="160" type="curve"/>
      <point x="415" y="234" type="line"/>
      <point x="455" y="203"/>
      <point x="487" y="161"/>
      <point x="485" y="88" type="curve" smooth="yes"/>
      <point x="483" y="-25"/>
      <point x="385" y="-95"/>
      <point x="252" y="-95" type="curve" smooth="yes"/>
      <point x="109" y="-95"/>
      <point x="18" y="-21"/>
      <point x="18" y="90" type="curve" smooth="yes"/>
      <point x="18" y="144"/>
      <point x="45" y="186"/>
      <point x="78" y="210" type="curve" smooth="yes"/>
      <point x="121" y="242"/>
      <point x="177" y="269"/>
      <point x="255" y="316" type="curve" smooth="yes"/>
      <point x="286" y="335"/>
      <point x="327" y="366"/>
      <point x="327" y="398" type="curve" smooth="yes"/>
      <point x="327" y="435"/>
      <point x="299" y="454"/>
      <point x="252" y="454" type="curve" smooth="yes"/>
      <point x="207" y="454"/>
      <point x="175" y="436"/>
      <point x="175" y="401" type="curve" smooth="yes"/>
      <point x="175" y="377"/>
      <point x="197" y="355"/>
      <point x="218" y="342" type="curve"/>
      <point x="102" y="275" type="line"/>
      <point x="73" y="293"/>
      <point x="28" y="337"/>
      <point x="28" y="408" type="curve" smooth="yes"/>
      <point x="28" y="537"/>
      <point x="117" y="597"/>
    </contour>
  </outline>
</glyph>
<glyph name="nine" format="2">
  <advance width="538"/>
  <unicode hex="0039"/>
  <outline>
    <contour>
      <point x="269" y="604" type="curve" smooth="yes"/>
      <point x="447" y="604"/>
      <point x="516" y="495"/>
      <point x="516" y="357" type="curve" smooth="yes"/>
      <point x="516" y="138" type="line" smooth="yes"/>
      <point x="516" y="66"/>
      <point x="480" y="1"/>
      <point x="428" y="-38" type="curve" smooth="yes"/>
      <point x="355" y="-93"/>
      <point x="258" y="-87"/>
      <point x="214" y="-87" type="curve" smooth="yes"/>
      <point x="162" y="-87"/>
      <point x="101" y="-75"/>
      <point x="101" y="-75" type="curve"/>
      <point x="101" y="77" type="line"/>
      <point x="101" y="77"/>
      <point x="146" y="66"/>
      <point x="210" y="66" type="curve" smooth="yes"/>
      <point x="274" y="66"/>
      <point x="301" y="75"/>
      <point x="328" y="92" type="curve" smooth="yes"/>
      <point x="346" y="104"/>
      <point x="366" y="126"/>
      <point x="366" y="165" type="curve" smooth="yes"/>
      <point x="366" y="344" type="line" smooth="yes"/>
      <point x="366" y="393"/>
      <point x="356" y="461"/>
      <point x="259" y="461" type="curve" smooth="yes"/>
      <point x="202" y="461"/>
      <point x="165" y="423"/>
      <point x="165" y="369" type="curve" smooth="yes"/>
      <point x="165" y="316"/>
      <point x="201" y="277"/>
      <point x="301" y="280" type="curve"/>
      <point x="301" y="145" type="line"/>
      <point x="251" y="145" type="line" smooth="yes"/>
      <point x="136" y="145"/>
      <point x="17" y="209"/>
      <point x="17" y="373" type="curve" smooth="yes"/>
      <point x="17" y="508"/>
      <point x="79" y="604"/>
    </contour>
  </outline>
</glyph>
<glyph name="colon" format="2">
  <advance width="241"/>
  <unicode hex="003A"/>
  <outline>
    <contour>
      <point x="34" y="-10" type="curve" smooth="yes"/>
      <point x="34" y="38"/>
      <point x="73" y="77"/>
      <point x="121" y="77" type="curve" smooth="yes"/>
      <point x="169" y="77"/>
      <point x="207" y="38"/>
      <point x="207" y="-10" type="curve" smooth="yes"/>
      <point x="207" y="-58"/>
      <point x="169" y="-96"/>
      <point x="121" y="-96" type="curve" smooth="yes"/>
      <point x="73" y="-96"/>
      <point x="34" y="-58"/>
    </contour>
    <contour>
      <point x="35" y="359" type="curve" smooth="yes"/>
      <point x="35" y="407"/>
      <point x="73" y="445"/>
      <point x="121" y="445" type="curve" smooth="yes"/>
      <point x="169" y="445"/>
      <point x="207" y="407"/>
      <point x="207" y="359" type="curve" smooth="yes"/>
      <point x="207" y="311"/>
      <point x="169" y="273"/>
      <point x="121" y="273" type="curve" smooth="yes"/>
      <point x="73" y="273"/>
      <point x="35" y="311"/>
    </contour>
  </outline>
</glyph>
<glyph name="semicolon" format="2">
  <advance width="309"/>
  <unicode hex="003B"/>
  <outline>
    <contour>
      <point x="103" y="359" type="curve" smooth="yes"/>
      <point x="103" y="407"/>
      <point x="141" y="445"/>
      <point x="189" y="445" type="curve" smooth="yes"/>
      <point x="237" y="445"/>
      <point x="275" y="407"/>
      <point x="275" y="359" type="curve" smooth="yes"/>
      <point x="275" y="311"/>
      <point x="237" y="273"/>
      <point x="189" y="273" type="curve" smooth="yes"/>
      <point x="141" y="273"/>
      <point x="103" y="311"/>
    </contour>
    <contour>
      <point x="268" y="131" type="line"/>
      <point x="183" y="-150" type="line"/>
      <point x="34" y="-150" type="line"/>
      <point x="122" y="131" type="line"/>
    </contour>
  </outline>
</glyph>
<glyph name="less" format="2">
  <advance width="448"/>
  <unicode hex="003C"/>
  <outline>
    <contour>
      <point x="245" y="426" type="line"/>
      <point x="414" y="426" type="line"/>
      <point x="206" y="176" type="line"/>
      <point x="414" y="-75" type="line"/>
      <point x="245" y="-75" type="line"/>
      <point x="34" y="176" type="line"/>
    </contour>
  </outline>
</glyph>
<glyph name="equal" format="2">
  <advance width="417"/>
  <unicode hex="003D"/>
  <outline>
    <contour>
      <point x="383" y="13" type="line"/>
      <point x="34" y="11" type="line"/>
      <point x="35" y="121" type="line"/>
      <point x="383" y="121" type="line"/>
    </contour>
    <contour>
      <point x="383" y="203" type="line"/>
      <point x="34" y="202" type="line"/>
      <point x="35" y="312" type="line"/>
      <point x="383" y="312" type="line"/>
    </contour>
  </outline>
</glyph>
<glyph name="greater" format="2">
  <advance width="448"/>
  <unicode hex="003E"/>
  <outline>
    <contour>
      <point x="204" y="426" type="line"/>
      <point x="414" y="176" type="line"/>
      <point x="204" y="-75" type="line"/>
      <point x="34" y="-75" type="line"/>
      <point x="243" y="176" type="line"/>
      <point x="35" y="426" type="line"/>
    </contour>
  </outline>
</glyph>
<glyph name="question" format="2">
  <advance width="433"/>
  <unicode hex="003F"/>
  <outline>
    <contour>
      <point x="129" y="-10" type="curve" smooth="yes"/>
      <point x="129" y="38"/>
      <point x="167" y="76"/>
      <point x="215" y="76" type="curve" smooth="yes"/>
      <point x="263" y="76"/>
      <point x="301" y="38"/>
      <point x="301" y="-10" type="curve" smooth="yes"/>
      <point x="301" y="-58"/>
      <point x="263" y="-96"/>
      <point x="215" y="-96" type="curve" smooth="yes"/>
      <point x="167" y="-96"/>
      <point x="129" y="-58"/>
    </contour>
    <contour>
      <point x="211" y="678" type="curve" smooth="yes"/>
      <point x="330" y="678"/>
      <point x="400" y="603"/>
      <point x="400" y="506" type="curve" smooth="yes"/>
      <point x="400" y="457"/>
      <point x="380" y="422"/>
      <point x="377" y="417" type="curve" smooth="yes"/>
      <point x="282" y="267" type="line"/>
      <point x="280" y="143" type="line"/>
      <point x="150" y="143" type="line"/>
      <point x="150" y="290" type="line"/>
      <point x="237" y="426" type="line" smooth="yes"/>
      <point x="252" y="449"/>
      <point x="274" y="483"/>
      <point x="274" y="508" type="curve" smooth="yes"/>
      <point x="274" y="544"/>
      <point x="248" y="572"/>
      <point x="215" y="572" type="curve" smooth="yes"/>
      <point x="176" y="572"/>
      <point x="148" y="542"/>
      <point x="148" y="511" type="curve" smooth="yes"/>
      <point x="148" y="469"/>
      <point x="188" y="450"/>
      <point x="188" y="450" type="curve"/>
      <point x="132" y="366" type="line"/>
      <point x="132" y="366"/>
      <point x="34" y="406"/>
      <point x="34" y="514" type="curve" smooth="yes"/>
      <point x="34" y="626"/>
      <point x="129" y="678"/>
    </contour>
  </outline>
</glyph>
<glyph name="at" format="2">
  <advance width="1000"/>
  <unicode hex="0040"/>
  <outline>
    <contour>
      <point x="598" y="646" type="curve" smooth="yes"/>
      <point x="877" y="646" type="line"/>
      <point x="965" y="646" type="line"/>
      <point x="965" y="-75" type="line"/>
      <point x="603" y="-75" type="line"/>
      <point x="603" y="295" type="line"/>
      <point x="539" y="295" type="line" smooth="yes"/>
      <point x="426" y="295"/>
      <point x="388" y="246"/>
      <point x="388" y="179" type="curve" smooth="yes"/>
      <point x="388" y="91"/>
      <point x="460" y="60"/>
      <point x="538" y="60" type="curve"/>
      <point x="538" y="-75" type="line"/>
      <point x="501" y="-75" type="line" smooth="yes"/>
      <point x="363" y="-75"/>
      <point x="249" y="23"/>
      <point x="249" y="169" type="curve" smooth="yes"/>
      <point x="249" y="315"/>
      <point x="329" y="426"/>
      <point x="512" y="426" type="curve" smooth="yes"/>
      <point x="752" y="426" type="line"/>
      <point x="752" y="74" type="line"/>
      <point x="816" y="74" type="line"/>
      <point x="816" y="493" type="line"/>
      <point x="577" y="493" type="line" smooth="yes"/>
      <point x="251" y="493"/>
      <point x="182" y="322"/>
      <point x="182" y="176" type="curve" smooth="yes"/>
      <point x="182" y="-121"/>
      <point x="424" y="-144"/>
      <point x="613" y="-144" type="curve" smooth="yes"/>
      <point x="617" y="-144"/>
      <point x="963" y="-145"/>
      <point x="966" y="-145" type="curve"/>
      <point x="966" y="-288" type="line"/>
      <point x="560" y="-288" type="line" smooth="yes"/>
      <point x="340" y="-288"/>
      <point x="34" y="-254"/>
      <point x="34" y="176" type="curve" smooth="yes"/>
      <point x="34" y="577"/>
      <point x="371" y="646"/>
    </contour>
  </outline>
</glyph>
<glyph name="B" format="2">
  <advance width="554"/>
  <unicode hex="0042"/>
  <outline>
    <contour>
      <point x="34" y="579" type="line"/>
      <point x="253" y="579" type="line" smooth="yes"/>
      <point x="449" y="579"/>
      <point x="519" y="494"/>
      <point x="519" y="406" type="curve" smooth="yes"/>
      <point x="519" y="361"/>
      <point x="510" y="295"/>
      <point x="445" y="258" type="curve"/>
      <point x="504" y="231"/>
      <point x="538" y="183"/>
      <point x="538" y="107" type="curve" smooth="yes"/>
      <point x="538" y="-29"/>
      <point x="411" y="-75"/>
      <point x="343" y="-75" type="curve" smooth="yes"/>
      <point x="252" y="-75" type="line"/>
      <point x="252" y="41" type="line"/>
      <point x="275" y="41" type="line" smooth="yes"/>
      <point x="345" y="41"/>
      <point x="395" y="63"/>
      <point x="395" y="115" type="curve" smooth="yes"/>
      <point x="395" y="183"/>
      <point x="315" y="196"/>
      <point x="252" y="196" type="curve"/>
      <point x="252" y="306" type="line"/>
      <point x="315" y="306"/>
      <point x="362" y="323"/>
      <point x="362" y="370" type="curve" smooth="yes"/>
      <point x="362" y="426"/>
      <point x="286" y="426"/>
      <point x="236" y="426" type="curve" smooth="yes"/>
      <point x="226" y="426"/>
      <point x="187" y="426"/>
      <point x="187" y="426" type="curve"/>
      <point x="187" y="-75" type="line"/>
      <point x="34" y="-75" type="line"/>
    </contour>
  </outline>
</glyph>
<glyph name="C" format="2">
  <advance width="480"/>
  <unicode hex="0043"/>
  <outline>
    <contour>
      <point x="448" y="579" type="line"/>
      <point x="448" y="426" type="line"/>
      <point x="363" y="426" type="line" smooth="yes"/>
      <point x="225" y="426"/>
      <point x="186" y="323"/>
      <point x="186" y="242" type="curve" smooth="yes"/>
      <point x="186" y="167"/>
      <point x="206" y="74"/>
      <point x="374" y="74" type="curve" smooth="yes"/>
      <point x="376" y="74"/>
      <point x="448" y="74"/>
      <point x="448" y="74" type="curve"/>
      <point x="448" y="-75" type="line"/>
      <point x="302" y="-75" type="line" smooth="yes"/>
      <point x="118" y="-75"/>
      <point x="17" y="52"/>
      <point x="17" y="242" type="curve" smooth="yes"/>
      <point x="17" y="394"/>
      <point x="76" y="579"/>
      <point x="349" y="579" type="curve" smooth="yes"/>
    </contour>
  </outline>
</glyph>
<glyph name="D" format="2">
  <advance width="622"/>
  <unicode hex="0044"/>
  <outline>
    <contour>
      <point x="35" y="579" type="line"/>
      <point x="35" y="579"/>
      <point x="25" y="580"/>
      <point x="273" y="579" type="curve" smooth="yes"/>
      <point x="521" y="578"/>
      <point x="605" y="394"/>
      <point x="605" y="242" type="curve" smooth="yes"/>
      <point x="605" y="52"/>
      <point x="505" y="-75"/>
      <point x="321" y="-75" type="curve" smooth="yes"/>
      <point x="252" y="-75" type="line"/>
      <point x="252" y="74" type="line"/>
      <point x="409" y="72"/>
      <point x="437" y="145"/>
      <point x="437" y="244" type="curve" smooth="yes"/>
      <point x="437" y="303"/>
      <point x="390" y="426"/>
      <point x="259" y="426" type="curve" smooth="yes"/>
      <point x="187" y="426" type="line"/>
      <point x="187" y="-75" type="line"/>
      <point x="35" y="-75" type="line"/>
    </contour>
  </outline>
</glyph>
<glyph name="E" format="2">
  <advance width="449"/>
  <unicode hex="0045"/>
  <outline>
    <contour>
      <point x="34" y="579" type="line"/>
      <point x="415" y="579" type="line"/>
      <point x="415" y="426" type="line"/>
      <point x="187" y="426" type="line"/>
      <point x="187" y="325" type="line"/>
      <point x="364" y="325" type="line"/>
      <point x="364" y="172" type="line"/>
      <point x="187" y="172" type="line"/>
      <point x="187" y="78" type="line"/>
      <point x="415" y="78" type="line"/>
      <point x="415" y="-75" type="line"/>
      <point x="34" y="-75" type="line"/>
    </contour>
  </outline>
</glyph>
<glyph name="G" format="2">
  <advance width="654"/>
  <unicode hex="0047"/>
  <outline>
    <contour>
      <point x="535" y="579" type="curve"/>
      <point x="535" y="426" type="line"/>
      <point x="535" y="426"/>
      <point x="502" y="436"/>
      <point x="413" y="436" type="curve" smooth="yes"/>
      <point x="308" y="436"/>
      <point x="176" y="386"/>
      <point x="176" y="228" type="curve" smooth="yes"/>
      <point x="176" y="122"/>
      <point x="249" y="39"/>
      <point x="373" y="39" type="curve" smooth="yes"/>
      <point x="420" y="39"/>
      <point x="450" y="43"/>
      <point x="450" y="43" type="curve"/>
      <point x="450" y="172" type="line"/>
      <point x="319" y="172" type="line"/>
      <point x="319" y="309" type="line"/>
      <point x="603" y="309" type="line"/>
      <point x="603" y="-75" type="line"/>
      <point x="603" y="-75"/>
      <point x="525" y="-99"/>
      <point x="384" y="-99" type="curve" smooth="yes"/>
      <point x="124" y="-99"/>
      <point x="17" y="37"/>
      <point x="17" y="232" type="curve" smooth="yes"/>
      <point x="17" y="471"/>
      <point x="172" y="593"/>
      <point x="404" y="593" type="curve" smooth="yes"/>
      <point x="476" y="593"/>
      <point x="535" y="579"/>
    </contour>
  </outline>
</glyph>
<glyph name="H" format="2">
  <advance width="550"/>
  <unicode hex="0048"/>
  <outline>
    <contour>
      <point x="363" y="579" type="line"/>
      <point x="516" y="579" type="line"/>
      <point x="516" y="-74" type="line"/>
      <point x="363" y="-74" type="line"/>
      <point x="363" y="170" type="line"/>
      <point x="187" y="170" type="line"/>
      <point x="187" y="-75" type="line"/>
      <point x="34" y="-75" type="line"/>
      <point x="34" y="579" type="line"/>
      <point x="187" y="579" type="line"/>
      <point x="187" y="323" type="line"/>
      <point x="363" y="323" type="line"/>
    </contour>
  </outline>
</glyph>
<glyph name="I" format="2">
  <advance width="221"/>
  <unicode hex="0049"/>
  <outline>
    <contour>
      <point x="34" y="-75" type="line"/>
      <point x="34" y="579" type="line"/>
      <point x="187" y="579" type="line"/>
      <point x="187" y="-75" type="line"/>
    </contour>
  </outline>
</glyph>
<glyph name="J" format="2">
  <advance width="380"/>
  <unicode hex="004A"/>
  <outline>
    <contour>
      <point x="40" y="579" type="line"/>
      <point x="142" y="579"/>
      <point x="244" y="579"/>
      <point x="346" y="579" type="curve"/>
      <point x="346" y="205" type="line" smooth="yes"/>
      <point x="346" y="50"/>
      <point x="284" y="-75"/>
      <point x="34" y="-75" type="curve"/>
      <point x="34" y="65" type="line"/>
      <point x="122" y="65"/>
      <point x="194" y="93"/>
      <point x="193" y="201" type="curve" smooth="yes"/>
      <point x="193" y="426" type="line"/>
      <point x="40" y="426" type="line"/>
    </contour>
  </outline>
</glyph>
<glyph name="K" format="2">
  <advance width="511"/>
  <unicode hex="004B"/>
  <outline>
    <contour>
      <point x="469" y="579" type="line"/>
      <point x="469" y="579"/>
      <point x="469" y="470"/>
      <point x="469" y="410" type="curve" smooth="yes"/>
      <point x="469" y="353"/>
      <point x="435" y="291"/>
      <point x="373" y="254" type="curve"/>
      <point x="440" y="218"/>
      <point x="477" y="153"/>
      <point x="477" y="94" type="curve" smooth="yes"/>
      <point x="477" y="34"/>
      <point x="477" y="-75"/>
      <point x="477" y="-75" type="curve"/>
      <point x="329" y="-75" type="line"/>
      <point x="329" y="58" type="line" smooth="yes"/>
      <point x="329" y="132"/>
      <point x="281" y="176"/>
      <point x="193" y="173" type="curve" smooth="yes"/>
      <point x="187" y="173" type="line"/>
      <point x="187" y="-75" type="line"/>
      <point x="34" y="-75" type="line"/>
      <point x="34" y="579" type="line"/>
      <point x="187" y="579" type="line"/>
      <point x="187" y="331" type="line"/>
      <point x="274" y="329"/>
      <point x="320" y="372"/>
      <point x="320" y="446" type="curve" smooth="yes"/>
      <point x="320" y="579" type="line"/>
    </contour>
  </outline>
</glyph>
<glyph name="L" format="2">
  <advance width="449"/>
  <unicode hex="004C"/>
  <outline>
    <contour>
      <point x="34" y="579" type="line"/>
      <point x="187" y="578" type="line"/>
      <point x="187" y="78" type="line"/>
      <point x="415" y="78" type="line"/>
      <point x="415" y="-75" type="line"/>
      <point x="34" y="-75" type="line"/>
    </contour>
  </outline>
</glyph>
<glyph name="M" format="2">
  <advance width="863"/>
  <unicode hex="004D"/>
  <outline>
    <contour>
      <point x="265" y="579" type="curve" smooth="yes"/>
      <point x="332" y="579"/>
      <point x="394" y="569"/>
      <point x="434" y="500" type="curve"/>
      <point x="474" y="565"/>
      <point x="533" y="583"/>
      <point x="608" y="583" type="curve" smooth="yes"/>
      <point x="768" y="583"/>
      <point x="830" y="489"/>
      <point x="830" y="358" type="curve" smooth="yes"/>
      <point x="830" y="-75" type="line"/>
      <point x="677" y="-75" type="line"/>
      <point x="676" y="328" type="line" smooth="yes"/>
      <point x="676" y="393"/>
      <point x="645" y="429"/>
      <point x="594" y="429" type="curve" smooth="yes"/>
      <point x="542" y="429"/>
      <point x="508" y="394"/>
      <point x="508" y="327" type="curve" smooth="yes"/>
      <point x="508" y="-75" type="line"/>
      <point x="355" y="-75" type="line"/>
      <point x="355" y="324" type="line" smooth="yes"/>
      <point x="355" y="406"/>
      <point x="299" y="426"/>
      <point x="236" y="426" type="curve" smooth="yes"/>
      <point x="186" y="426" type="line"/>
      <point x="186" y="-75" type="line"/>
      <point x="33" y="-75" type="line"/>
      <point x="33" y="579" type="line"/>
      <point x="33" y="579"/>
      <point x="165" y="579"/>
    </contour>
  </outline>
</glyph>
<glyph name="N" format="2">
  <advance width="564"/>
  <unicode hex="004E"/>
  <outline>
    <contour>
      <point x="285" y="579" type="curve" smooth="yes"/>
      <point x="469" y="579"/>
      <point x="531" y="462"/>
      <point x="531" y="336" type="curve" smooth="yes"/>
      <point x="531" y="-75" type="line"/>
      <point x="378" y="-75" type="line"/>
      <point x="378" y="310" type="line" smooth="yes"/>
      <point x="378" y="401"/>
      <point x="326" y="426"/>
      <point x="252" y="426" type="curve" smooth="yes"/>
      <point x="189" y="426" type="line"/>
      <point x="186" y="-75" type="line"/>
      <point x="33" y="-75" type="line"/>
      <point x="33" y="579" type="line"/>
      <point x="33" y="579"/>
      <point x="185" y="579"/>
    </contour>
  </outline>
</glyph>
<glyph name="P" format="2">
  <advance width="578"/>
  <unicode hex="0050"/>
  <outline>
    <contour>
      <point x="34" y="579" type="line"/>
      <point x="276" y="579" type="line" smooth="yes"/>
      <point x="471" y="579"/>
      <point x="561" y="489"/>
      <point x="561" y="327" type="curve" smooth="yes"/>
      <point x="561" y="165"/>
      <point x="436" y="80"/>
      <point x="289" y="80" type="curve" smooth="yes"/>
      <point x="252" y="80" type="line"/>
      <point x="252" y="220" type="line"/>
      <point x="330" y="220"/>
      <point x="402" y="245"/>
      <point x="402" y="332" type="curve" smooth="yes"/>
      <point x="402" y="408"/>
      <point x="344" y="426"/>
      <point x="251" y="426" type="curve" smooth="yes"/>
      <point x="187" y="426" type="line"/>
      <point x="187" y="-75" type="line"/>
      <point x="34" y="-75" type="line"/>
    </contour>
  </outline>
</glyph>
<glyph name="Q" format="2">
  <advance width="703"/>
  <unicode hex="0051"/>
  <outline>
    <contour>
      <point x="352" y="593" type="curve" smooth="yes"/>
      <point x="537" y="593"/>
      <point x="687" y="441"/>
      <point x="687" y="252" type="curve" smooth="yes"/>
      <point x="687" y="152"/>
      <point x="644" y="61"/>
      <point x="577" y="-1" type="curve"/>
      <point x="682" y="-162" type="line"/>
      <point x="530" y="-162" type="line"/>
      <point x="389" y="75" type="line"/>
      <point x="473" y="93"/>
      <point x="532" y="166"/>
      <point x="532" y="251" type="curve" smooth="yes"/>
      <point x="532" y="351"/>
      <point x="451" y="431"/>
      <point x="351" y="431" type="curve" smooth="yes"/>
      <point x="251" y="431"/>
      <point x="170" y="351"/>
      <point x="170" y="251" type="curve" smooth="yes"/>
      <point x="170" y="175"/>
      <point x="219" y="106"/>
      <point x="291" y="81" type="curve"/>
      <point x="391" y="-87" type="line"/>
      <point x="378" y="-89"/>
      <point x="365" y="-89"/>
      <point x="352" y="-89" type="curve" smooth="yes"/>
      <point x="167" y="-89"/>
      <point x="17" y="63"/>
      <point x="17" y="252" type="curve" smooth="yes"/>
      <point x="17" y="441"/>
      <point x="167" y="593"/>
    </contour>
  </outline>
</glyph>
<glyph name="S" format="2">
  <advance width="482"/>
  <unicode hex="0053"/>
  <outline>
    <contour>
      <point x="442" y="426" type="line"/>
      <point x="291" y="426" type="line" smooth="yes"/>
      <point x="245" y="426"/>
      <point x="192" y="410"/>
      <point x="192" y="363" type="curve" smooth="yes"/>
      <point x="192" y="313"/>
      <point x="254" y="315"/>
      <point x="320" y="306" type="curve" smooth="yes"/>
      <point x="414" y="293"/>
      <point x="466" y="216"/>
      <point x="466" y="115" type="curve" smooth="yes"/>
      <point x="466" y="-4"/>
      <point x="387" y="-75"/>
      <point x="243" y="-75" type="curve" smooth="yes"/>
      <point x="34" y="-75" type="line"/>
      <point x="34" y="77" type="line"/>
      <point x="185" y="77" type="line" smooth="yes"/>
      <point x="205" y="77"/>
      <point x="274" y="79"/>
      <point x="274" y="128" type="curve" smooth="yes"/>
      <point x="274" y="176"/>
      <point x="205" y="177"/>
      <point x="153" y="187" type="curve" smooth="yes"/>
      <point x="96" y="198"/>
      <point x="17" y="242"/>
      <point x="17" y="358" type="curve" smooth="yes"/>
      <point x="17" y="482"/>
      <point x="56" y="579"/>
      <point x="286" y="579" type="curve" smooth="yes"/>
      <point x="442" y="579" type="line"/>
    </contour>
  </outline>
</glyph>
<glyph name="T" format="2">
  <advance width="518"/>
  <unicode hex="0054"/>
  <outline>
    <contour>
      <point x="15" y="579" type="line"/>
      <point x="504" y="579" type="line"/>
      <point x="504" y="426" type="line"/>
      <point x="334" y="426" type="line"/>
      <point x="334" y="-75" type="line"/>
      <point x="181" y="-75" type="line"/>
      <point x="181" y="426" type="line"/>
      <point x="15" y="426" type="line"/>
    </contour>
  </outline>
</glyph>
<glyph name="U" format="2">
  <advance width="583"/>
  <unicode hex="0055"/>
  <outline>
    <contour>
      <point x="548" y="579" type="line"/>
      <point x="548" y="187" type="line" smooth="yes"/>
      <point x="548" y="-8"/>
      <point x="440" y="-92"/>
      <point x="290" y="-92" type="curve" smooth="yes"/>
      <point x="140" y="-92"/>
      <point x="34" y="19"/>
      <point x="34" y="175" type="curve" smooth="yes"/>
      <point x="34" y="579" type="line"/>
      <point x="192" y="579" type="line"/>
      <point x="192" y="219" type="line" smooth="yes"/>
      <point x="192" y="113"/>
      <point x="226" y="67"/>
      <point x="291" y="67" type="curve" smooth="yes"/>
      <point x="358" y="67"/>
      <point x="391" y="110"/>
      <point x="391" y="221" type="curve" smooth="yes"/>
      <point x="391" y="579" type="line"/>
    </contour>
  </outline>
</glyph>
<glyph name="V" format="2">
  <advance width="622"/>
  <unicode hex="0056"/>
  <outline>
    <contour>
      <point x="310" y="-87" type="curve" smooth="yes"/>
      <point x="219" y="-87"/>
      <point x="191" y="6"/>
      <point x="191" y="6" type="curve"/>
      <point x="10" y="579" type="line"/>
      <point x="167" y="579" type="line"/>
      <point x="310" y="90" type="line"/>
      <point x="455" y="579" type="line"/>
      <point x="612" y="579" type="line"/>
      <point x="429" y="6" type="line"/>
      <point x="429" y="6"/>
      <point x="401" y="-87"/>
    </contour>
  </outline>
</glyph>
<glyph name="W" format="2">
  <advance width="980"/>
  <unicode hex="0057"/>
  <outline>
    <contour>
      <point x="10" y="579" type="line"/>
      <point x="167" y="579" type="line"/>
      <point x="312" y="85" type="line"/>
      <point x="413" y="386" type="line" smooth="yes"/>
      <point x="425" y="427"/>
      <point x="467" y="438"/>
      <point x="492" y="438" type="curve" smooth="yes"/>
      <point x="517" y="438"/>
      <point x="556" y="429"/>
      <point x="569" y="386" type="curve" smooth="yes"/>
      <point x="667" y="85" type="line"/>
      <point x="813" y="579" type="line"/>
      <point x="970" y="579" type="line"/>
      <point x="786" y="1" type="line"/>
      <point x="786" y="1"/>
      <point x="758" y="-92"/>
      <point x="667" y="-92" type="curve" smooth="yes"/>
      <point x="576" y="-92"/>
      <point x="548" y="1"/>
      <point x="548" y="1" type="curve"/>
      <point x="490" y="185" type="line"/>
      <point x="431" y="1" type="line"/>
      <point x="431" y="1"/>
      <point x="403" y="-92"/>
      <point x="312" y="-92" type="curve" smooth="yes"/>
      <point x="221" y="-92"/>
      <point x="192" y="1"/>
      <point x="192" y="1" type="curve"/>
    </contour>
  </outline>
</glyph>
<glyph name="X" format="2">
  <advance width="602"/>
  <unicode hex="0058"/>
  <outline>
    <contour>
      <point x="178" y="579" type="line"/>
      <point x="301" y="373" type="line"/>
      <point x="424" y="579" type="line"/>
      <point x="592" y="579" type="line"/>
      <point x="385" y="252" type="line"/>
      <point x="592" y="-74" type="line"/>
      <point x="424" y="-74" type="line"/>
      <point x="301" y="132" type="line"/>
      <point x="178" y="-74" type="line"/>
      <point x="10" y="-74" type="line"/>
      <point x="217" y="252" type="line"/>
      <point x="10" y="579" type="line"/>
    </contour>
  </outline>
</glyph>
<glyph name="Y" format="2">
  <advance width="602"/>
  <unicode hex="0059"/>
  <outline>
    <contour>
      <point x="178" y="579" type="line"/>
      <point x="301" y="373" type="line"/>
      <point x="424" y="579" type="line"/>
      <point x="592" y="579" type="line"/>
      <point x="378" y="243" type="line"/>
      <point x="378" y="-75" type="line"/>
      <point x="224" y="-75" type="line"/>
      <point x="224" y="243" type="line"/>
      <point x="10" y="579" type="line"/>
    </contour>
  </outline>
</glyph>
<glyph name="backslash" format="2">
  <advance width="440"/>
  <unicode hex="005C"/>
  <outline>
    <contour>
      <point x="34" y="646" type="line"/>
      <point x="181" y="646" type="line"/>
      <point x="406" y="-142" type="line"/>
      <point x="258" y="-142" type="line"/>
    </contour>
  </outline>
</glyph>
<glyph name="bracketright" format="2">
  <advance width="353"/>
  <unicode hex="005D"/>
  <outline>
    <contour>
      <point x="319" y="579" type="line"/>
      <point x="319" y="-228" type="line"/>
      <point x="34" y="-228" type="line"/>
      <point x="35" y="-75" type="line"/>
      <point x="166" y="-75" type="line"/>
      <point x="166" y="426" type="line"/>
      <point x="35" y="426" type="line"/>
      <point x="34" y="579" type="line"/>
    </contour>
  </outline>
</glyph>
<glyph name="asciicircum" format="2">
  <advance width="488"/>
  <unicode hex="005E"/>
  <outline>
    <contour>
      <point x="244" y="672" type="curve" smooth="yes"/>
      <point x="324" y="672"/>
      <point x="366" y="627"/>
      <point x="387" y="579" type="curve" smooth="yes"/>
      <point x="443" y="451"/>
      <point x="453" y="429"/>
      <point x="454" y="426" type="curve"/>
      <point x="301" y="426" type="line"/>
      <point x="244" y="554" type="line"/>
      <point x="187" y="426" type="line"/>
      <point x="35" y="426" type="line"/>
      <point x="36" y="429"/>
      <point x="46" y="451"/>
      <point x="101" y="579" type="curve" smooth="yes"/>
      <point x="122" y="627"/>
      <point x="164" y="672"/>
    </contour>
    <contour>
      <point x="35" y="426" type="curve"/>
      <point x="35" y="426"/>
      <point x="35" y="425"/>
    </contour>
  </outline>
</glyph>
<glyph name="underscore" format="2">
  <advance width="417"/>
  <unicode hex="005F"/>
  <outline>
    <contour>
      <point x="383" y="-184" type="line"/>
      <point x="34" y="-185" type="line"/>
      <point x="35" y="-75" type="line"/>
      <point x="383" y="-75" type="line"/>
    </contour>
  </outline>
</glyph>
<glyph name="grave" format="2">
  <advance width="299"/>
  <unicode hex="0060"/>
  <outline>
    <contour>
      <point x="264" y="426" type="line"/>
      <point x="118" y="426" type="line"/>
      <point x="34" y="646" type="line"/>
      <point x="183" y="646" type="line"/>
    </contour>
  </outline>
</glyph>
<glyph name="b" format="2">
  <advance width="554"/>
  <unicode hex="0062"/>
  <outline>
    <contour>
      <point x="34" y="-75" type="line"/>
      <point x="34" y="646" type="line"/>
      <point x="184" y="646" type="line"/>
      <point x="184" y="56" type="line"/>
      <point x="248" y="56" type="line" smooth="yes"/>
      <point x="361" y="56"/>
      <point x="399" y="105"/>
      <point x="399" y="172" type="curve" smooth="yes"/>
      <point x="399" y="260"/>
      <point x="327" y="291"/>
      <point x="249" y="291" type="curve"/>
      <point x="249" y="426" type="line"/>
      <point x="286" y="426" type="line" smooth="yes"/>
      <point x="424" y="426"/>
      <point x="537" y="328"/>
      <point x="537" y="182" type="curve" smooth="yes"/>
      <point x="537" y="36"/>
      <point x="457" y="-75"/>
      <point x="274" y="-75" type="curve" smooth="yes"/>
    </contour>
  </outline>
</glyph>
<glyph name="f" format="2">
  <advance width="388"/>
  <unicode hex="0066"/>
  <outline>
    <contour>
      <point x="329" y="329" type="line"/>
      <point x="329" y="202" type="line"/>
      <point x="225" y="202" type="line"/>
      <point x="225" y="-75" type="line"/>
      <point x="78" y="-75" type="line"/>
      <point x="78" y="-75"/>
      <point x="78" y="78"/>
      <point x="77" y="202" type="curve"/>
      <point x="11" y="202" type="line"/>
      <point x="11" y="329" type="line"/>
      <point x="77" y="329" type="line"/>
      <point x="83" y="470"/>
      <point x="149" y="588"/>
      <point x="377" y="588" type="curve"/>
      <point x="377" y="452" type="line"/>
      <point x="295" y="452"/>
      <point x="228" y="427"/>
      <point x="225" y="329" type="curve"/>
    </contour>
  </outline>
</glyph>
<glyph name="g" format="2">
  <advance width="571"/>
  <unicode hex="0067"/>
  <outline>
    <contour>
      <point x="280" y="426" type="curve" smooth="yes"/>
      <point x="520" y="426" type="line"/>
      <point x="520" y="-75" type="line" smooth="yes"/>
      <point x="520" y="-147"/>
      <point x="485" y="-212"/>
      <point x="433" y="-251" type="curve" smooth="yes"/>
      <point x="360" y="-306"/>
      <point x="263" y="-300"/>
      <point x="219" y="-300" type="curve" smooth="yes"/>
      <point x="167" y="-300"/>
      <point x="106" y="-288"/>
      <point x="106" y="-288" type="curve"/>
      <point x="106" y="-163" type="line"/>
      <point x="106" y="-163"/>
      <point x="151" y="-175"/>
      <point x="215" y="-175" type="curve" smooth="yes"/>
      <point x="279" y="-175"/>
      <point x="306" y="-166"/>
      <point x="333" y="-149" type="curve" smooth="yes"/>
      <point x="351" y="-137"/>
      <point x="371" y="-114"/>
      <point x="371" y="-75" type="curve" smooth="yes"/>
      <point x="371" y="295" type="line"/>
      <point x="307" y="295" type="line" smooth="yes"/>
      <point x="194" y="295"/>
      <point x="156" y="246"/>
      <point x="156" y="179" type="curve" smooth="yes"/>
      <point x="156" y="91"/>
      <point x="228" y="60"/>
      <point x="306" y="60" type="curve"/>
      <point x="306" y="-75" type="line"/>
      <point x="269" y="-75" type="line" smooth="yes"/>
      <point x="131" y="-75"/>
      <point x="17" y="23"/>
      <point x="17" y="169" type="curve" smooth="yes"/>
      <point x="17" y="315"/>
      <point x="97" y="426"/>
    </contour>
  </outline>
</glyph>
<glyph name="h" format="2">
  <advance width="562"/>
  <unicode hex="0068"/>
  <outline>
    <contour>
      <point x="379" y="-75" type="line"/>
      <point x="379" y="141" type="line" smooth="yes"/>
      <point x="379" y="235"/>
      <point x="332" y="287"/>
      <point x="244" y="287" type="curve" smooth="yes"/>
      <point x="182" y="287" type="line"/>
      <point x="183" y="-75" type="line"/>
      <point x="34" y="-75" type="line"/>
      <point x="34" y="646" type="line"/>
      <point x="181" y="646" type="line"/>
      <point x="181" y="426" type="line"/>
      <point x="303" y="426" type="line" smooth="yes"/>
      <point x="445" y="426"/>
      <point x="527" y="300"/>
      <point x="527" y="188" type="curve" smooth="yes"/>
      <point x="527" y="113"/>
      <point x="528" y="-75"/>
      <point x="528" y="-75" type="curve"/>
    </contour>
  </outline>
</glyph>
<glyph name="i" format="2">
  <advance width="241"/>
  <unicode hex="0069"/>
  <outline>
    <contour>
      <point x="34" y="582" type="curve" smooth="yes"/>
      <point x="34" y="630"/>
      <point x="73" y="668"/>
      <point x="121" y="668" type="curve" smooth="yes"/>
      <point x="169" y="668"/>
      <point x="207" y="630"/>
      <point x="207" y="582" type="curve" smooth="yes"/>
      <point x="207" y="534"/>
      <point x="169" y="495"/>
      <point x="121" y="495" type="curve" smooth="yes"/>
      <point x="73" y="495"/>
      <point x="34" y="534"/>
    </contour>
    <contour>
      <point x="196" y="426" type="line"/>
      <point x="196" y="-75" type="line"/>
      <point x="48" y="-75" type="line"/>
      <point x="48" y="426" type="line"/>
    </contour>
  </outline>
</glyph>
<glyph name="j" format="2">
  <advance width="333"/>
  <unicode hex="006A"/>
  <outline>
    <contour>
      <point x="287" y="426" type="line"/>
      <point x="287" y="426"/>
      <point x="289" y="104"/>
      <point x="289" y="-8" type="curve" smooth="yes"/>
      <point x="289" y="-157"/>
      <point x="227" y="-288"/>
      <point x="-12" y="-288" type="curve"/>
      <point x="-12" y="-152" type="line"/>
      <point x="73" y="-152"/>
      <point x="142" y="-125"/>
      <point x="141" y="-21" type="curve" smooth="yes"/>
      <point x="141" y="426" type="line"/>
    </contour>
    <contour>
      <point x="128" y="582" type="curve" smooth="yes"/>
      <point x="128" y="630"/>
      <point x="166" y="668"/>
      <point x="214" y="668" type="curve" smooth="yes"/>
      <point x="262" y="668"/>
      <point x="300" y="630"/>
      <point x="300" y="582" type="curve" smooth="yes"/>
      <point x="300" y="534"/>
      <point x="262" y="495"/>
      <point x="214" y="495" type="curve" smooth="yes"/>
      <point x="166" y="495"/>
      <point x="128" y="534"/>
    </contour>
  </outline>
</glyph>
<glyph name="k" format="2">
  <advance width="518"/>
  <unicode hex="006B"/>
  <outline>
    <contour>
      <point x="318" y="426" type="line"/>
      <point x="475" y="426" type="line"/>
      <point x="331" y="221" type="line"/>
      <point x="429" y="186"/>
      <point x="484" y="84"/>
      <point x="484" y="-8" type="curve" smooth="yes"/>
      <point x="484" y="-75" type="line"/>
      <point x="336" y="-75" type="line"/>
      <point x="336" y="-52" type="line" smooth="yes"/>
      <point x="336" y="42"/>
      <point x="288" y="94"/>
      <point x="200" y="94" type="curve" smooth="yes"/>
      <point x="182" y="94" type="line"/>
      <point x="183" y="-75" type="line"/>
      <point x="34" y="-75" type="line"/>
      <point x="34" y="646" type="line"/>
      <point x="181" y="646" type="line"/>
      <point x="182" y="233" type="line"/>
    </contour>
  </outline>
</glyph>
<glyph name="l" format="2">
  <advance width="217"/>
  <unicode hex="006C"/>
  <outline>
    <contour>
      <point x="181" y="646" type="line"/>
      <point x="183" y="-75" type="line"/>
      <point x="34" y="-75" type="line"/>
      <point x="34" y="646" type="line"/>
    </contour>
  </outline>
</glyph>
<glyph name="m" format="2">
  <advance width="864"/>
  <unicode hex="006D"/>
  <outline>
    <contour>
      <point x="265" y="444" type="curve" smooth="yes"/>
      <point x="332" y="444"/>
      <point x="389" y="419"/>
      <point x="431" y="379" type="curve"/>
      <point x="473" y="419"/>
      <point x="531" y="444"/>
      <point x="598" y="444" type="curve" smooth="yes"/>
      <point x="739" y="444"/>
      <point x="830" y="339"/>
      <point x="830" y="192" type="curve" smooth="yes"/>
      <point x="830" y="-75" type="line"/>
      <point x="681" y="-75" type="line"/>
      <point x="681" y="151" type="line" smooth="yes"/>
      <point x="681" y="251"/>
      <point x="656" y="294"/>
      <point x="595" y="294" type="curve" smooth="yes"/>
      <point x="532" y="294"/>
      <point x="506" y="254"/>
      <point x="506" y="150" type="curve" smooth="yes"/>
      <point x="506" y="-75" type="line"/>
      <point x="357" y="-75" type="line"/>
      <point x="357" y="150" type="line" smooth="yes"/>
      <point x="357" y="254"/>
      <point x="331" y="294"/>
      <point x="268" y="294" type="curve" smooth="yes"/>
      <point x="207" y="294"/>
      <point x="182" y="251"/>
      <point x="182" y="151" type="curve" smooth="yes"/>
      <point x="182" y="-75" type="line"/>
      <point x="33" y="-75" type="line"/>
      <point x="33" y="192" type="line" smooth="yes"/>
      <point x="33" y="339"/>
      <point x="124" y="444"/>
    </contour>
  </outline>
</glyph>
<glyph name="n" format="2">
  <advance width="553"/>
  <unicode hex="006E"/>
  <outline>
    <contour>
      <point x="518" y="-75" type="line"/>
      <point x="370" y="-75" type="line"/>
      <point x="370" y="147" type="line" smooth="yes"/>
      <point x="370" y="251"/>
      <point x="339" y="292"/>
      <point x="276" y="292" type="curve" smooth="yes"/>
      <point x="215" y="292"/>
      <point x="183" y="248"/>
      <point x="183" y="148" type="curve" smooth="yes"/>
      <point x="183" y="-75" type="line"/>
      <point x="34" y="-75" type="line"/>
      <point x="34" y="190" type="line" smooth="yes"/>
      <point x="34" y="337"/>
      <point x="134" y="442"/>
      <point x="275" y="442" type="curve" smooth="yes"/>
      <point x="416" y="442"/>
      <point x="518" y="362"/>
      <point x="518" y="179" type="curve" smooth="yes"/>
    </contour>
  </outline>
</glyph>
<glyph name="o" format="2">
  <advance width="547"/>
  <unicode hex="006F"/>
  <outline>
    <contour>
      <point x="276" y="296" type="curve" smooth="yes"/>
      <point x="210" y="296"/>
      <point x="157" y="243"/>
      <point x="157" y="178" type="curve" smooth="yes"/>
      <point x="157" y="113"/>
      <point x="210" y="60"/>
      <point x="276" y="60" type="curve" smooth="yes"/>
      <point x="342" y="60"/>
      <point x="394" y="113"/>
      <point x="394" y="178" type="curve" smooth="yes"/>
      <point x="394" y="243"/>
      <point x="342" y="296"/>
    </contour>
    <contour>
      <point x="274" y="437" type="curve" smooth="yes"/>
      <point x="416" y="437"/>
      <point x="530" y="320"/>
      <point x="530" y="177" type="curve" smooth="yes"/>
      <point x="530" y="34"/>
      <point x="416" y="-83"/>
      <point x="274" y="-83" type="curve" smooth="yes"/>
      <point x="132" y="-83"/>
      <point x="17" y="34"/>
      <point x="17" y="177" type="curve" smooth="yes"/>
      <point x="17" y="320"/>
      <point x="132" y="437"/>
    </contour>
  </outline>
</glyph>
<glyph name="p" format="2">
  <advance width="554"/>
  <unicode hex="0070"/>
  <outline>
    <contour>
      <point x="34" y="426" type="line"/>
      <point x="274" y="426" type="line" smooth="yes"/>
      <point x="457" y="426"/>
      <point x="537" y="315"/>
      <point x="537" y="169" type="curve" smooth="yes"/>
      <point x="537" y="23"/>
      <point x="424" y="-75"/>
      <point x="286" y="-75" type="curve" smooth="yes"/>
      <point x="249" y="-75" type="line"/>
      <point x="249" y="60" type="line"/>
      <point x="327" y="60"/>
      <point x="399" y="91"/>
      <point x="399" y="179" type="curve" smooth="yes"/>
      <point x="399" y="246"/>
      <point x="361" y="295"/>
      <point x="248" y="295" type="curve" smooth="yes"/>
      <point x="184" y="295" type="line"/>
      <point x="184" y="-288" type="line"/>
      <point x="34" y="-288" type="line"/>
    </contour>
  </outline>
</glyph>
<glyph name="r" format="2">
  <advance width="481"/>
  <unicode hex="0072"/>
  <outline>
    <contour>
      <point x="162" y="426" type="line"/>
      <point x="249" y="426" type="line" smooth="yes"/>
      <point x="394" y="426"/>
      <point x="465" y="314"/>
      <point x="465" y="236" type="curve" smooth="yes"/>
      <point x="465" y="203"/>
      <point x="465" y="190"/>
      <point x="465" y="189" type="curve"/>
      <point x="316" y="189" type="line"/>
      <point x="316" y="198" type="line" smooth="yes"/>
      <point x="316" y="260"/>
      <point x="276" y="285"/>
      <point x="211" y="285" type="curve" smooth="yes"/>
      <point x="181" y="285" type="line"/>
      <point x="182" y="-75" type="line"/>
      <point x="34" y="-75" type="line"/>
      <point x="34" y="426" type="line"/>
    </contour>
  </outline>
</glyph>
<glyph name="s" format="2">
  <advance width="395"/>
  <unicode hex="0073"/>
  <outline>
    <contour>
      <point x="360" y="298" type="line"/>
      <point x="244" y="298" type="line" smooth="yes"/>
      <point x="208" y="298"/>
      <point x="176" y="289"/>
      <point x="176" y="255" type="curve" smooth="yes"/>
      <point x="176" y="218"/>
      <point x="221" y="219"/>
      <point x="267" y="212" type="curve" smooth="yes"/>
      <point x="328" y="202"/>
      <point x="378" y="148"/>
      <point x="378" y="78" type="curve" smooth="yes"/>
      <point x="378" y="-27"/>
      <point x="316" y="-75"/>
      <point x="193" y="-75" type="curve" smooth="yes"/>
      <point x="48" y="-75" type="line"/>
      <point x="48" y="53" type="line"/>
      <point x="163" y="53" type="line" smooth="yes"/>
      <point x="178" y="53"/>
      <point x="224" y="55"/>
      <point x="224" y="86" type="curve" smooth="yes"/>
      <point x="224" y="122"/>
      <point x="167" y="122"/>
      <point x="139" y="126" type="curve" smooth="yes"/>
      <point x="105" y="131"/>
      <point x="34" y="163"/>
      <point x="34" y="250" type="curve" smooth="yes"/>
      <point x="34" y="349"/>
      <point x="74" y="426"/>
      <point x="248" y="426" type="curve" smooth="yes"/>
      <point x="360" y="426" type="line"/>
    </contour>
  </outline>
</glyph>
<glyph name="t" format="2">
  <advance width="417"/>
  <unicode hex="0074"/>
  <outline>
    <contour>
      <point x="383" y="426" type="line"/>
      <point x="383" y="298" type="line"/>
      <point x="230" y="298" type="line"/>
      <point x="230" y="191" type="line" smooth="yes"/>
      <point x="229" y="87"/>
      <point x="298" y="61"/>
      <point x="383" y="61" type="curve"/>
      <point x="383" y="-75" type="line"/>
      <point x="144" y="-75"/>
      <point x="82" y="55"/>
      <point x="82" y="204" type="curve" smooth="yes"/>
      <point x="82" y="229"/>
      <point x="82" y="262"/>
      <point x="82" y="298" type="curve"/>
      <point x="17" y="298" type="line"/>
      <point x="17" y="426" type="line"/>
      <point x="83" y="426" type="line"/>
      <point x="84" y="509"/>
      <point x="84" y="579"/>
      <point x="84" y="579" type="curve"/>
      <point x="230" y="579" type="line"/>
      <point x="230" y="426" type="line"/>
    </contour>
  </outline>
</glyph>
<glyph name="u" format="2">
  <advance width="553"/>
  <unicode hex="0075"/>
  <outline>
    <contour>
      <point x="519" y="426" type="line"/>
      <point x="519" y="172" type="line" smooth="yes"/>
      <point x="519" y="-11"/>
      <point x="417" y="-91"/>
      <point x="276" y="-91" type="curve" smooth="yes"/>
      <point x="135" y="-91"/>
      <point x="35" y="14"/>
      <point x="35" y="161" type="curve" smooth="yes"/>
      <point x="35" y="426" type="line"/>
      <point x="184" y="426" type="line"/>
      <point x="184" y="203" type="line" smooth="yes"/>
      <point x="184" y="103"/>
      <point x="216" y="59"/>
      <point x="277" y="59" type="curve" smooth="yes"/>
      <point x="340" y="59"/>
      <point x="371" y="100"/>
      <point x="371" y="204" type="curve" smooth="yes"/>
      <point x="371" y="426" type="line"/>
    </contour>
  </outline>
</glyph>
<glyph name="v" format="2">
  <advance width="530"/>
  <unicode hex="0076"/>
  <outline>
    <contour>
      <point x="15" y="426" type="line"/>
      <point x="169" y="426" type="line"/>
      <point x="265" y="86" type="line"/>
      <point x="361" y="426" type="line"/>
      <point x="515" y="426" type="line"/>
      <point x="382" y="4" type="line"/>
      <point x="382" y="4"/>
      <point x="355" y="-87"/>
      <point x="265" y="-87" type="curve" smooth="yes"/>
      <point x="175" y="-87"/>
      <point x="148" y="4"/>
      <point x="148" y="4" type="curve"/>
    </contour>
  </outline>
</glyph>
<glyph name="w" format="2">
  <advance width="817"/>
  <unicode hex="0077"/>
  <outline>
    <contour>
      <point x="15" y="426" type="line"/>
      <point x="169" y="426" type="line"/>
      <point x="265" y="93" type="line"/>
      <point x="361" y="426" type="line"/>
      <point x="458" y="426" type="line"/>
      <point x="553" y="94" type="line"/>
      <point x="649" y="426" type="line"/>
      <point x="803" y="426" type="line"/>
      <point x="670" y="4" type="line"/>
      <point x="670" y="4"/>
      <point x="643" y="-87"/>
      <point x="553" y="-87" type="curve" smooth="yes"/>
      <point x="463" y="-87"/>
      <point x="438" y="4"/>
      <point x="438" y="4" type="curve"/>
      <point x="409" y="127" type="line"/>
      <point x="380" y="4" type="line"/>
      <point x="380" y="4"/>
      <point x="355" y="-87"/>
      <point x="265" y="-87" type="curve" smooth="yes"/>
      <point x="175" y="-87"/>
      <point x="148" y="4"/>
      <point x="148" y="4" type="curve"/>
    </contour>
  </outline>
</glyph>
<glyph name="x" format="2">
  <advance width="493"/>
  <unicode hex="0078"/>
  <outline>
    <contour>
      <point x="14" y="426" type="line"/>
      <point x="162" y="426" type="line"/>
      <point x="248" y="285" type="line"/>
      <point x="333" y="426" type="line"/>
      <point x="482" y="426" type="line"/>
      <point x="322" y="175" type="line"/>
      <point x="482" y="-75" type="line"/>
      <point x="331" y="-75" type="line"/>
      <point x="248" y="64" type="line"/>
      <point x="164" y="-75" type="line"/>
      <point x="13" y="-75" type="line"/>
      <point x="173" y="175" type="line"/>
    </contour>
  </outline>
</glyph>
<glyph name="z" format="2">
  <advance width="543"/>
  <unicode hex="007A"/>
  <outline>
    <contour>
      <point x="72" y="426" type="line"/>
      <point x="510" y="426" type="line"/>
      <point x="268" y="53" type="line"/>
      <point x="473" y="53" type="line"/>
      <point x="473" y="-75" type="line"/>
      <point x="34" y="-75" type="line"/>
      <point x="276" y="298" type="line"/>
      <point x="72" y="298" type="line"/>
    </contour>
  </outline>
</glyph>
<glyph name="braceleft" format="2">
  <advance width="466"/>
  <unicode hex="007B"/>
  <outline>
    <contour>
      <point x="386" y="586" type="curve" smooth="yes"/>
      <point x="433" y="586" type="line"/>
      <point x="433" y="433" type="line"/>
      <point x="400" y="433" type="line" smooth="yes"/>
      <point x="317" y="433"/>
      <point x="301" y="390"/>
      <point x="301" y="274" type="curve" smooth="yes"/>
      <point x="301" y="237"/>
      <point x="270" y="202"/>
      <point x="237" y="183" type="curve"/>
      <point x="271" y="163"/>
      <point x="301" y="114"/>
      <point x="301" y="77" type="curve" smooth="yes"/>
      <point x="301" y="-39"/>
      <point x="325" y="-82"/>
      <point x="400" y="-82" type="curve" smooth="yes"/>
      <point x="433" y="-82" type="line"/>
      <point x="433" y="-235" type="line"/>
      <point x="386" y="-235" type="line" smooth="yes"/>
      <point x="162" y="-235"/>
      <point x="148" y="-97"/>
      <point x="148" y="31" type="curve" smooth="yes"/>
      <point x="148" y="103"/>
      <point x="76" y="169"/>
      <point x="34" y="180" type="curve"/>
      <point x="75" y="191"/>
      <point x="148" y="249"/>
      <point x="148" y="320" type="curve" smooth="yes"/>
      <point x="148" y="448"/>
      <point x="162" y="586"/>
    </contour>
  </outline>
</glyph>
<glyph name="bar" format="2">
  <advance width="217"/>
  <unicode hex="007C"/>
  <outline>
    <contour>
      <point x="181" y="646" type="line"/>
      <point x="183" y="-288" type="line"/>
      <point x="34" y="-287" type="line"/>
      <point x="34" y="646" type="line"/>
    </contour>
  </outline>
</glyph>
<glyph name="braceright" format="2">
  <advance width="466"/>
  <unicode hex="007D"/>
  <outline>
    <contour>
      <point x="81" y="586" type="line" smooth="yes"/>
      <point x="305" y="586"/>
      <point x="319" y="448"/>
      <point x="319" y="320" type="curve" smooth="yes"/>
      <point x="319" y="249"/>
      <point x="392" y="191"/>
      <point x="433" y="180" type="curve"/>
      <point x="391" y="169"/>
      <point x="319" y="103"/>
      <point x="319" y="31" type="curve" smooth="yes"/>
      <point x="319" y="-97"/>
      <point x="305" y="-235"/>
      <point x="81" y="-235" type="curve" smooth="yes"/>
      <point x="34" y="-235" type="line"/>
      <point x="35" y="-82" type="line"/>
      <point x="67" y="-82" type="line" smooth="yes"/>
      <point x="142" y="-82"/>
      <point x="166" y="-39"/>
      <point x="166" y="77" type="curve" smooth="yes"/>
      <point x="166" y="114"/>
      <point x="196" y="163"/>
      <point x="230" y="183" type="curve"/>
      <point x="197" y="202"/>
      <point x="166" y="237"/>
      <point x="166" y="274" type="curve" smooth="yes"/>
      <point x="166" y="390"/>
      <point x="150" y="433"/>
      <point x="67" y="433" type="curve" smooth="yes"/>
      <point x="35" y="433" type="line"/>
      <point x="34" y="586" type="line"/>
    </contour>
  </outline>
</glyph>
<glyph name="asciitilde" format="2">
  <advance width="417"/>
  <unicode hex="007E"/>
  <outline>
    <contour>
      <point x="383" y="151" type="line"/>
      <point x="383" y="151"/>
      <point x="349" y="117"/>
      <point x="308" y="117" type="curve" smooth="yes"/>
      <point x="211" y="117"/>
      <point x="212" y="154"/>
      <point x="118" y="154" type="curve" smooth="yes"/>
      <point x="75" y="154"/>
      <point x="34" y="119"/>
      <point x="34" y="119" type="curve"/>
      <point x="35" y="229" type="line"/>
      <point x="35" y="229"/>
      <point x="74" y="264"/>
      <point x="118" y="264" type="curve" smooth="yes"/>
      <point x="213" y="264"/>
      <point x="210" y="227"/>
      <point x="305" y="227" type="curve" smooth="yes"/>
      <point x="345" y="227"/>
      <point x="383" y="262"/>
      <point x="383" y="262" type="curve"/>
    </contour>
  </outline>
</glyph>
<glyph name="exclamdown" format="2">
  <advance width="241"/>
  <unicode hex="00A1"/>
  <outline>
    <contour>
      <point x="194" y="213" type="line"/>
      <point x="196" y="-288" type="line"/>
      <point x="48" y="-288" type="line"/>
      <point x="48" y="213" type="line"/>
    </contour>
    <contour>
      <point x="34" y="369" type="curve" smooth="yes"/>
      <point x="34" y="417"/>
      <point x="73" y="455"/>
      <point x="121" y="455" type="curve" smooth="yes"/>
      <point x="169" y="455"/>
      <point x="207" y="417"/>
      <point x="207" y="369" type="curve" smooth="yes"/>
      <point x="207" y="321"/>
      <point x="169" y="282"/>
      <point x="121" y="282" type="curve" smooth="yes"/>
      <point x="73" y="282"/>
      <point x="34" y="321"/>
    </contour>
  </outline>
</glyph>
<glyph name="ordfeminine" format="2">
  <advance width="250"/>
  <unicode hex="00AA"/>
  <outline>
    <contour>
      <point x="233" y="646" type="line"/>
      <point x="233" y="426" type="line"/>
      <point x="168" y="426" type="line"/>
      <point x="168" y="588" type="line"/>
      <point x="140" y="588" type="line" smooth="yes"/>
      <point x="90" y="588"/>
      <point x="74" y="567"/>
      <point x="74" y="538" type="curve" smooth="yes"/>
      <point x="74" y="499"/>
      <point x="105" y="485"/>
      <point x="139" y="485" type="curve"/>
      <point x="139" y="426" type="line"/>
      <point x="123" y="426" type="line" smooth="yes"/>
      <point x="63" y="426"/>
      <point x="13" y="469"/>
      <point x="13" y="533" type="curve" smooth="yes"/>
      <point x="13" y="597"/>
      <point x="47" y="646"/>
      <point x="128" y="646" type="curve" smooth="yes"/>
    </contour>
  </outline>
</glyph>
<glyph name="guillemotleft" format="2">
  <advance width="539"/>
  <unicode hex="00AB"/>
  <outline>
    <contour>
      <point x="395" y="357" type="line"/>
      <point x="511" y="357" type="line"/>
      <point x="435" y="266" type="line"/>
      <point x="360" y="176" type="line"/>
      <point x="435" y="85" type="line"/>
      <point x="511" y="-6" type="line"/>
      <point x="395" y="-6" type="line"/>
      <point x="243" y="176" type="line"/>
    </contour>
    <contour>
      <point x="181" y="357" type="line"/>
      <point x="296" y="357" type="line"/>
      <point x="221" y="266" type="line"/>
      <point x="146" y="176" type="line"/>
      <point x="221" y="85" type="line"/>
      <point x="296" y="-6" type="line"/>
      <point x="181" y="-6" type="line"/>
      <point x="29" y="176" type="line"/>
    </contour>
  </outline>
</glyph>
<glyph name="macron" format="2">
  <advance width="458"/>
  <unicode hex="00AF"/>
  <outline>
    <contour>
      <point x="435" y="685" type="line"/>
      <point x="435" y="579" type="line"/>
      <point x="23" y="579" type="line"/>
      <point x="23" y="685" type="line"/>
    </contour>
  </outline>
</glyph>
<glyph name="degree" format="2">
  <advance width="252"/>
  <unicode hex="00B0"/>
  <outline>
    <contour>
      <point x="127" y="586" type="curve" smooth="yes"/>
      <point x="98" y="586"/>
      <point x="77" y="565"/>
      <point x="77" y="536" type="curve" smooth="yes"/>
      <point x="77" y="507"/>
      <point x="98" y="487"/>
      <point x="127" y="487" type="curve" smooth="yes"/>
      <point x="156" y="487"/>
      <point x="177" y="507"/>
      <point x="177" y="536" type="curve" smooth="yes"/>
      <point x="177" y="565"/>
      <point x="156" y="586"/>
    </contour>
    <contour>
      <point x="126" y="650" type="curve" smooth="yes"/>
      <point x="188" y="650"/>
      <point x="239" y="599"/>
      <point x="239" y="536" type="curve" smooth="yes"/>
      <point x="239" y="473"/>
      <point x="188" y="422"/>
      <point x="126" y="422" type="curve" smooth="yes"/>
      <point x="64" y="422"/>
      <point x="14" y="473"/>
      <point x="14" y="536" type="curve" smooth="yes"/>
      <point x="14" y="599"/>
      <point x="64" y="650"/>
    </contour>
  </outline>
</glyph>
<glyph name="mu" format="2">
  <advance width="550"/>
  <unicode hex="00B5"/>
  <outline>
    <contour>
      <point x="33" y="426" type="line"/>
      <point x="182" y="426" type="line"/>
      <point x="182" y="203" type="line" smooth="yes"/>
      <point x="182" y="103"/>
      <point x="214" y="59"/>
      <point x="275" y="59" type="curve" smooth="yes"/>
      <point x="338" y="59"/>
      <point x="369" y="100"/>
      <point x="369" y="204" type="curve" smooth="yes"/>
      <point x="369" y="426" type="line"/>
      <point x="517" y="426" type="line"/>
      <point x="517" y="172" type="line" smooth="yes"/>
      <point x="517" y="-11"/>
      <point x="415" y="-91"/>
      <point x="274" y="-91" type="curve" smooth="yes"/>
      <point x="241" y="-91"/>
      <point x="210" y="-85"/>
      <point x="182" y="-74" type="curve"/>
      <point x="182" y="-288" type="line"/>
      <point x="33" y="-288" type="line"/>
    </contour>
  </outline>
</glyph>
<glyph name="ordmasculine" format="2">
  <advance width="254"/>
  <unicode hex="00BA"/>
  <outline>
    <contour>
      <point x="127" y="589" type="curve" smooth="yes"/>
      <point x="98" y="589"/>
      <point x="75" y="566"/>
      <point x="75" y="537" type="curve" smooth="yes"/>
      <point x="75" y="508"/>
      <point x="98" y="485"/>
      <point x="127" y="485" type="curve" smooth="yes"/>
      <point x="156" y="485"/>
      <point x="179" y="508"/>
      <point x="179" y="537" type="curve" smooth="yes"/>
      <point x="179" y="566"/>
      <point x="156" y="589"/>
    </contour>
    <contour>
      <point x="126" y="651" type="curve" smooth="yes"/>
      <point x="188" y="651"/>
      <point x="239" y="600"/>
      <point x="239" y="537" type="curve" smooth="yes"/>
      <point x="239" y="474"/>
      <point x="188" y="423"/>
      <point x="126" y="423" type="curve" smooth="yes"/>
      <point x="64" y="423"/>
      <point x="14" y="474"/>
      <point x="14" y="537" type="curve" smooth="yes"/>
      <point x="14" y="600"/>
      <point x="64" y="651"/>
    </contour>
  </outline>
</glyph>
<glyph name="guillemotright" format="2">
  <advance width="539"/>
  <unicode hex="00BB"/>
  <outline>
    <contour>
      <point x="144" y="357" type="line"/>
      <point x="296" y="176" type="line"/>
      <point x="144" y="-6" type="line"/>
      <point x="29" y="-6" type="line"/>
      <point x="104" y="85" type="line"/>
      <point x="179" y="176" type="line"/>
      <point x="104" y="266" type="line"/>
      <point x="29" y="357" type="line"/>
    </contour>
    <contour>
      <point x="359" y="357" type="line"/>
      <point x="511" y="176" type="line"/>
      <point x="359" y="-6" type="line"/>
      <point x="243" y="-6" type="line"/>
      <point x="318" y="85" type="line"/>
      <point x="393" y="176" type="line"/>
      <point x="318" y="266" type="line"/>
      <point x="243" y="357" type="line"/>
    </contour>
  </outline>
</glyph>
<glyph name="questiondown" format="2">
  <advance width="433"/>
  <unicode hex="00BF"/>
  <outline>
    <contour>
      <point x="305" y="371" type="curve" smooth="yes"/>
      <point x="305" y="323"/>
      <point x="267" y="285"/>
      <point x="219" y="285" type="curve" smooth="yes"/>
      <point x="171" y="285"/>
      <point x="133" y="323"/>
      <point x="133" y="371" type="curve" smooth="yes"/>
      <point x="133" y="419"/>
      <point x="171" y="457"/>
      <point x="219" y="457" type="curve" smooth="yes"/>
      <point x="267" y="457"/>
      <point x="305" y="419"/>
    </contour>
    <contour>
      <point x="223" y="-317" type="curve" smooth="yes"/>
      <point x="104" y="-317"/>
      <point x="34" y="-242"/>
      <point x="34" y="-145" type="curve" smooth="yes"/>
      <point x="34" y="-96"/>
      <point x="54" y="-62"/>
      <point x="57" y="-57" type="curve" smooth="yes"/>
      <point x="152" y="93" type="line"/>
      <point x="154" y="217" type="line"/>
      <point x="284" y="217" type="line"/>
      <point x="284" y="70" type="line"/>
      <point x="197" y="-66" type="line" smooth="yes"/>
      <point x="182" y="-89"/>
      <point x="160" y="-123"/>
      <point x="160" y="-148" type="curve" smooth="yes"/>
      <point x="160" y="-184"/>
      <point x="186" y="-211"/>
      <point x="219" y="-211" type="curve" smooth="yes"/>
      <point x="258" y="-211"/>
      <point x="286" y="-182"/>
      <point x="286" y="-151" type="curve" smooth="yes"/>
      <point x="286" y="-109"/>
      <point x="246" y="-90"/>
      <point x="246" y="-90" type="curve"/>
      <point x="302" y="-5" type="line"/>
      <point x="302" y="-5"/>
      <point x="400" y="-46"/>
      <point x="400" y="-154" type="curve" smooth="yes"/>
      <point x="400" y="-266"/>
      <point x="305" y="-317"/>
    </contour>
  </outline>
</glyph>
<glyph name="Agrave" format="2">
  <advance width="647"/>
  <unicode hex="00C0"/>
  <outline>
    <contour>
      <point x="323" y="591" type="curve" smooth="yes"/>
      <point x="414" y="591"/>
      <point x="442" y="498"/>
      <point x="442" y="498" type="curve"/>
      <point x="625" y="-75" type="line"/>
      <point x="468" y="-75" type="line"/>
      <point x="428" y="60" type="line"/>
      <point x="280" y="60" type="line"/>
      <point x="312" y="171" type="line"/>
      <point x="395" y="171" type="line"/>
      <point x="323" y="414" type="line"/>
      <point x="180" y="-75" type="line"/>
      <point x="23" y="-75" type="line"/>
      <point x="204" y="498" type="line"/>
      <point x="204" y="498"/>
      <point x="231" y="591"/>
    </contour>
    <contour>
      <point x="401" y="646" type="line"/>
      <point x="254" y="646" type="line"/>
      <point x="148" y="834" type="line"/>
      <point x="297" y="835" type="line"/>
    </contour>
  </outline>
</glyph>
<glyph name="Acircumflex" format="2">
  <advance width="647"/>
  <unicode hex="00C2"/>
  <outline>
    <contour>
      <point x="323" y="591" type="curve" smooth="yes"/>
      <point x="414" y="591"/>
      <point x="442" y="498"/>
      <point x="442" y="498" type="curve"/>
      <point x="625" y="-75" type="line"/>
      <point x="468" y="-75" type="line"/>
      <point x="428" y="60" type="line"/>
      <point x="280" y="60" type="line"/>
      <point x="312" y="171" type="line"/>
      <point x="395" y="171" type="line"/>
      <point x="323" y="414" type="line"/>
      <point x="180" y="-75" type="line"/>
      <point x="23" y="-75" type="line"/>
      <point x="203" y="498" type="line"/>
      <point x="203" y="498"/>
      <point x="232" y="591"/>
    </contour>
    <contour>
      <point x="323" y="825" type="curve" smooth="yes"/>
      <point x="381" y="825"/>
      <point x="412" y="792"/>
      <point x="427" y="757" type="curve" smooth="yes"/>
      <point x="475" y="646"/>
      <point x="476" y="646"/>
      <point x="476" y="646" type="curve"/>
      <point x="365" y="646" type="line"/>
      <point x="323" y="739" type="line"/>
      <point x="282" y="646" type="line"/>
      <point x="172" y="646" type="line"/>
      <point x="220" y="757" type="line" smooth="yes"/>
      <point x="235" y="792"/>
      <point x="265" y="825"/>
    </contour>
  </outline>
</glyph>
<glyph name="Atilde" format="2">
  <advance width="647"/>
  <unicode hex="00C3"/>
  <outline>
    <contour>
      <point x="323" y="591" type="curve" smooth="yes"/>
      <point x="414" y="591"/>
      <point x="442" y="498"/>
      <point x="442" y="498" type="curve"/>
      <point x="625" y="-75" type="line"/>
      <point x="468" y="-75" type="line"/>
      <point x="428" y="60" type="line"/>
      <point x="280" y="60" type="line"/>
      <point x="312" y="171" type="line"/>
      <point x="395" y="171" type="line"/>
      <point x="323" y="414" type="line"/>
      <point x="180" y="-75" type="line"/>
      <point x="23" y="-75" type="line"/>
      <point x="204" y="498" type="line"/>
      <point x="204" y="498"/>
      <point x="231" y="591"/>
    </contour>
    <contour>
      <point x="485" y="674" type="line"/>
      <point x="485" y="674"/>
      <point x="450" y="637"/>
      <point x="411" y="637" type="curve" smooth="yes"/>
      <point x="317" y="637"/>
      <point x="322" y="674"/>
      <point x="238" y="674" type="curve" smooth="yes"/>
      <point x="198" y="674"/>
      <point x="158" y="637"/>
      <point x="158" y="637" type="curve"/>
      <point x="159" y="747" type="line"/>
      <point x="159" y="747"/>
      <point x="198" y="784"/>
      <point x="240" y="784" type="curve" smooth="yes"/>
      <point x="329" y="784"/>
      <point x="329" y="747"/>
      <point x="414" y="747" type="curve" smooth="yes"/>
      <point x="452" y="747"/>
      <point x="485" y="784"/>
      <point x="485" y="784" type="curve"/>
    </contour>
  </outline>
</glyph>
<glyph name="Adieresis" format="2">
  <advance width="647"/>
  <unicode hex="00C4"/>
  <outline>
    <contour>
      <point x="323" y="591" type="curve" smooth="yes"/>
      <point x="414" y="591"/>
      <point x="442" y="498"/>
      <point x="442" y="498" type="curve"/>
      <point x="625" y="-75" type="line"/>
      <point x="468" y="-75" type="line"/>
      <point x="428" y="60" type="line"/>
      <point x="280" y="60" type="line"/>
      <point x="312" y="171" type="line"/>
      <point x="395" y="171" type="line"/>
      <point x="323" y="414" type="line"/>
      <point x="180" y="-75" type="line"/>
      <point x="23" y="-75" type="line"/>
      <point x="204" y="498" type="line"/>
      <point x="204" y="498"/>
      <point x="231" y="591"/>
    </contour>
    <contour>
      <point x="475" y="778" type="curve" smooth="yes"/>
      <point x="514" y="778"/>
      <point x="546" y="746"/>
      <point x="546" y="707" type="curve" smooth="yes"/>
      <point x="546" y="668"/>
      <point x="514" y="635"/>
      <point x="475" y="635" type="curve" smooth="yes"/>
      <point x="436" y="635"/>
      <point x="404" y="668"/>
      <point x="404" y="707" type="curve" smooth="yes"/>
      <point x="404" y="746"/>
      <point x="436" y="778"/>
    </contour>
    <contour>
      <point x="171" y="778" type="curve" smooth="yes"/>
      <point x="210" y="778"/>
      <point x="242" y="746"/>
      <point x="242" y="707" type="curve" smooth="yes"/>
      <point x="242" y="668"/>
      <point x="210" y="636"/>
      <point x="171" y="636" type="curve" smooth="yes"/>
      <point x="132" y="636"/>
      <point x="100" y="668"/>
      <point x="100" y="707" type="curve" smooth="yes"/>
      <point x="100" y="746"/>
      <point x="132" y="778"/>
    </contour>
  </outline>
</glyph>
<glyph name="Aring" format="2">
  <advance width="647"/>
  <unicode hex="00C5"/>
  <outline>
    <contour>
      <point x="323" y="591" type="curve" smooth="yes"/>
      <point x="414" y="591"/>
      <point x="442" y="498"/>
      <point x="442" y="498" type="curve"/>
      <point x="625" y="-75" type="line"/>
      <point x="468" y="-75" type="line"/>
      <point x="428" y="60" type="line"/>
      <point x="280" y="60" type="line"/>
      <point x="312" y="171" type="line"/>
      <point x="395" y="171" type="line"/>
      <point x="323" y="414" type="line"/>
      <point x="180" y="-75" type="line"/>
      <point x="23" y="-75" type="line"/>
      <point x="204" y="498" type="line"/>
      <point x="204" y="498"/>
      <point x="231" y="591"/>
    </contour>
    <contour>
      <point x="324" y="796" type="curve" smooth="yes"/>
      <point x="295" y="796"/>
      <point x="275" y="776"/>
      <point x="275" y="747" type="curve" smooth="yes"/>
      <point x="275" y="718"/>
      <point x="295" y="697"/>
      <point x="324" y="697" type="curve" smooth="yes"/>
      <point x="353" y="697"/>
      <point x="374" y="718"/>
      <point x="374" y="747" type="curve" smooth="yes"/>
      <point x="374" y="776"/>
      <point x="353" y="796"/>
    </contour>
    <contour>
      <point x="324" y="860" type="curve" smooth="yes"/>
      <point x="386" y="860"/>
      <point x="436" y="809"/>
      <point x="436" y="746" type="curve" smooth="yes"/>
      <point x="436" y="683"/>
      <point x="386" y="633"/>
      <point x="324" y="633" type="curve" smooth="yes"/>
      <point x="262" y="633"/>
      <point x="211" y="683"/>
      <point x="211" y="746" type="curve" smooth="yes"/>
      <point x="211" y="809"/>
      <point x="262" y="860"/>
    </contour>
  </outline>
</glyph>
<glyph name="AE" format="2">
  <advance width="779"/>
  <unicode hex="00C6"/>
  <outline>
    <contour>
      <point x="320" y="579" type="curve" smooth="yes"/>
      <point x="464" y="579"/>
      <point x="606" y="579"/>
      <point x="750" y="579" type="curve"/>
      <point x="750" y="426" type="line"/>
      <point x="522" y="426" type="line"/>
      <point x="522" y="324" type="line"/>
      <point x="698" y="324" type="line"/>
      <point x="698" y="171" type="line"/>
      <point x="522" y="171" type="line"/>
      <point x="522" y="78" type="line"/>
      <point x="750" y="78" type="line"/>
      <point x="750" y="-75" type="line"/>
      <point x="369" y="-75" type="line"/>
      <point x="369" y="60" type="line"/>
      <point x="280" y="60" type="line"/>
      <point x="312" y="171" type="line"/>
      <point x="369" y="171" type="line"/>
      <point x="369" y="426" type="line"/>
      <point x="363" y="426" type="line" smooth="yes"/>
      <point x="332" y="426"/>
      <point x="324" y="416"/>
      <point x="316" y="390" type="curve" smooth="yes"/>
      <point x="180" y="-75" type="line"/>
      <point x="23" y="-75" type="line"/>
      <point x="200" y="486" type="line"/>
      <point x="200" y="486"/>
      <point x="229" y="579"/>
    </contour>
  </outline>
</glyph>
<glyph name="Ccedilla" format="2">
  <advance width="499"/>
  <unicode hex="00C7"/>
  <outline>
    <contour>
      <point x="442" y="579" type="line"/>
      <point x="442" y="426" type="line"/>
      <point x="358" y="426" type="line" smooth="yes"/>
      <point x="220" y="426"/>
      <point x="180" y="323"/>
      <point x="180" y="242" type="curve" smooth="yes"/>
      <point x="180" y="167"/>
      <point x="201" y="74"/>
      <point x="369" y="74" type="curve" smooth="yes"/>
      <point x="371" y="74"/>
      <point x="442" y="74"/>
      <point x="442" y="74" type="curve"/>
      <point x="442" y="-75" type="line"/>
      <point x="300" y="-75" type="line"/>
      <point x="290" y="-100" type="line"/>
      <point x="311" y="-100"/>
      <point x="332" y="-104"/>
      <point x="348" y="-112" type="curve" smooth="yes"/>
      <point x="373" y="-125"/>
      <point x="393" y="-153"/>
      <point x="394" y="-191" type="curve" smooth="yes"/>
      <point x="395" y="-251"/>
      <point x="348" y="-288"/>
      <point x="292" y="-288" type="curve" smooth="yes"/>
      <point x="224" y="-288" type="line"/>
      <point x="224" y="-225" type="line"/>
      <point x="270" y="-225" type="line" smooth="yes"/>
      <point x="288" y="-225"/>
      <point x="320" y="-220"/>
      <point x="320" y="-196" type="curve" smooth="yes"/>
      <point x="320" y="-176"/>
      <point x="307" y="-163"/>
      <point x="264" y="-163" type="curve" smooth="yes"/>
      <point x="254" y="-163"/>
      <point x="212" y="-163"/>
      <point x="212" y="-163" type="curve"/>
      <point x="242" y="-71" type="line"/>
      <point x="92" y="-48"/>
      <point x="12" y="71"/>
      <point x="12" y="242" type="curve" smooth="yes"/>
      <point x="12" y="394"/>
      <point x="70" y="579"/>
      <point x="343" y="579" type="curve" smooth="yes"/>
    </contour>
  </outline>
</glyph>
<glyph name="Egrave" format="2">
  <advance width="449"/>
  <unicode hex="00C8"/>
  <outline>
    <contour>
      <point x="34" y="579" type="line"/>
      <point x="415" y="579" type="line"/>
      <point x="415" y="426" type="line"/>
      <point x="187" y="426" type="line"/>
      <point x="187" y="324" type="line"/>
      <point x="364" y="324" type="line"/>
      <point x="364" y="171" type="line"/>
      <point x="187" y="171" type="line"/>
      <point x="187" y="78" type="line"/>
      <point x="415" y="78" type="line"/>
      <point x="415" y="-75" type="line"/>
      <point x="34" y="-75" type="line"/>
    </contour>
    <contour>
      <point x="330" y="646" type="line"/>
      <point x="183" y="646" type="line"/>
      <point x="77" y="834" type="line"/>
      <point x="226" y="835" type="line"/>
    </contour>
  </outline>
</glyph>
<glyph name="Eacute" format="2">
  <advance width="449"/>
  <unicode hex="00C9"/>
  <outline>
    <contour>
      <point x="158" y="646" type="line"/>
      <point x="262" y="835" type="line"/>
      <point x="411" y="834" type="line"/>
      <point x="304" y="646" type="line"/>
    </contour>
    <contour>
      <point x="34" y="579" type="line"/>
      <point x="415" y="579" type="line"/>
      <point x="415" y="426" type="line"/>
      <point x="187" y="426" type="line"/>
      <point x="187" y="324" type="line"/>
      <point x="364" y="324" type="line"/>
      <point x="364" y="171" type="line"/>
      <point x="187" y="171" type="line"/>
      <point x="187" y="78" type="line"/>
      <point x="415" y="78" type="line"/>
      <point x="415" y="-75" type="line"/>
      <point x="34" y="-75" type="line"/>
    </contour>
  </outline>
</glyph>
<glyph name="Ecircumflex" format="2">
  <advance width="449"/>
  <unicode hex="00CA"/>
  <outline>
    <contour>
      <point x="224" y="825" type="curve" smooth="yes"/>
      <point x="282" y="825"/>
      <point x="313" y="792"/>
      <point x="328" y="757" type="curve" smooth="yes"/>
      <point x="376" y="646" type="line"/>
      <point x="266" y="646" type="line"/>
      <point x="224" y="739" type="line"/>
      <point x="183" y="646" type="line"/>
      <point x="72" y="646" type="line"/>
      <point x="73" y="648"/>
      <point x="80" y="664"/>
      <point x="120" y="757" type="curve" smooth="yes"/>
      <point x="135" y="792"/>
      <point x="166" y="825"/>
    </contour>
    <contour>
      <point x="34" y="579" type="line"/>
      <point x="415" y="579" type="line"/>
      <point x="415" y="426" type="line"/>
      <point x="187" y="426" type="line"/>
      <point x="187" y="325" type="line"/>
      <point x="364" y="325" type="line"/>
      <point x="364" y="172" type="line"/>
      <point x="187" y="172" type="line"/>
      <point x="187" y="78" type="line"/>
      <point x="415" y="78" type="line"/>
      <point x="415" y="-75" type="line"/>
      <point x="34" y="-75" type="line"/>
    </contour>
  </outline>
</glyph>
<glyph name="Edieresis" format="2">
  <advance width="515"/>
  <unicode hex="00CB"/>
  <outline>
    <contour>
      <point x="106" y="778" type="curve" smooth="yes"/>
      <point x="145" y="778"/>
      <point x="177" y="746"/>
      <point x="177" y="707" type="curve" smooth="yes"/>
      <point x="177" y="668"/>
      <point x="145" y="636"/>
      <point x="106" y="636" type="curve" smooth="yes"/>
      <point x="67" y="636"/>
      <point x="34" y="668"/>
      <point x="34" y="707" type="curve" smooth="yes"/>
      <point x="34" y="746"/>
      <point x="67" y="778"/>
    </contour>
    <contour>
      <point x="410" y="778" type="curve" smooth="yes"/>
      <point x="449" y="778"/>
      <point x="481" y="746"/>
      <point x="481" y="707" type="curve" smooth="yes"/>
      <point x="481" y="668"/>
      <point x="449" y="635"/>
      <point x="410" y="635" type="curve" smooth="yes"/>
      <point x="371" y="635"/>
      <point x="339" y="668"/>
      <point x="339" y="707" type="curve" smooth="yes"/>
      <point x="339" y="746"/>
      <point x="371" y="778"/>
    </contour>
    <contour>
      <point x="65" y="579" type="line"/>
      <point x="446" y="579" type="line"/>
      <point x="446" y="426" type="line"/>
      <point x="218" y="426" type="line"/>
      <point x="218" y="325" type="line"/>
      <point x="395" y="325" type="line"/>
      <point x="395" y="172" type="line"/>
      <point x="218" y="172" type="line"/>
      <point x="218" y="78" type="line"/>
      <point x="446" y="78" type="line"/>
      <point x="446" y="-75" type="line"/>
      <point x="65" y="-75" type="line"/>
    </contour>
  </outline>
</glyph>
<glyph name="Igrave" format="2">
  <advance width="262"/>
  <unicode hex="00CC"/>
  <outline>
    <contour>
      <point x="75" y="-75" type="line"/>
      <point x="75" y="579" type="line"/>
      <point x="228" y="579" type="line"/>
      <point x="228" y="-75" type="line"/>
    </contour>
    <contour>
      <point x="224" y="646" type="line"/>
      <point x="77" y="646" type="line"/>
      <point x="-29" y="834" type="line"/>
      <point x="120" y="835" type="line"/>
    </contour>
  </outline>
</glyph>
<glyph name="Icircumflex" format="2">
  <advance width="327"/>
  <unicode hex="00CE"/>
  <outline>
    <contour>
      <point x="164" y="825" type="curve" smooth="yes"/>
      <point x="222" y="825"/>
      <point x="253" y="792"/>
      <point x="268" y="757" type="curve" smooth="yes"/>
      <point x="316" y="646" type="line"/>
      <point x="205" y="646" type="line"/>
      <point x="164" y="739" type="line"/>
      <point x="123" y="646" type="line"/>
      <point x="12" y="646" type="line"/>
      <point x="13" y="648"/>
      <point x="20" y="664"/>
      <point x="60" y="757" type="curve" smooth="yes"/>
      <point x="75" y="792"/>
      <point x="106" y="825"/>
    </contour>
    <contour>
      <point x="89" y="-75" type="line"/>
      <point x="89" y="579" type="line"/>
      <point x="242" y="579" type="line"/>
      <point x="242" y="-75" type="line"/>
    </contour>
    <contour>
      <point x="12" y="646" type="curve"/>
      <point x="12" y="646"/>
      <point x="12" y="645"/>
    </contour>
  </outline>
</glyph>
<glyph name="Idieresis" format="2">
  <advance width="430"/>
  <unicode hex="00CF"/>
  <outline>
    <contour>
      <point x="63" y="778" type="curve" smooth="yes"/>
      <point x="102" y="778"/>
      <point x="134" y="746"/>
      <point x="134" y="707" type="curve" smooth="yes"/>
      <point x="134" y="668"/>
      <point x="102" y="636"/>
      <point x="63" y="636" type="curve" smooth="yes"/>
      <point x="24" y="636"/>
      <point x="-8" y="668"/>
      <point x="-8" y="707" type="curve" smooth="yes"/>
      <point x="-8" y="746"/>
      <point x="24" y="778"/>
    </contour>
    <contour>
      <point x="367" y="778" type="curve" smooth="yes"/>
      <point x="406" y="778"/>
      <point x="438" y="746"/>
      <point x="438" y="707" type="curve" smooth="yes"/>
      <point x="438" y="668"/>
      <point x="406" y="635"/>
      <point x="367" y="635" type="curve" smooth="yes"/>
      <point x="328" y="635"/>
      <point x="296" y="668"/>
      <point x="296" y="707" type="curve" smooth="yes"/>
      <point x="296" y="746"/>
      <point x="328" y="778"/>
    </contour>
    <contour>
      <point x="138" y="-75" type="line"/>
      <point x="138" y="579" type="line"/>
      <point x="291" y="579" type="line"/>
      <point x="291" y="-75" type="line"/>
    </contour>
  </outline>
</glyph>
<glyph name="Eth" format="2">
  <advance width="667"/>
  <unicode hex="00D0"/>
  <outline>
    <contour>
      <point x="375" y="299" type="line"/>
      <point x="375" y="171" type="line"/>
      <point x="232" y="171" type="line"/>
      <point x="232" y="-75" type="line"/>
      <point x="80" y="-75" type="line"/>
      <point x="80" y="7"/>
      <point x="80" y="89"/>
      <point x="80" y="171" type="curve"/>
      <point x="9" y="171" type="line"/>
      <point x="9" y="299" type="line"/>
      <point x="80" y="299" type="line"/>
      <point x="80" y="392"/>
      <point x="80" y="486"/>
      <point x="80" y="579" type="curve"/>
      <point x="80" y="579"/>
      <point x="70" y="580"/>
      <point x="318" y="579" type="curve" smooth="yes"/>
      <point x="566" y="578"/>
      <point x="650" y="394"/>
      <point x="650" y="242" type="curve" smooth="yes"/>
      <point x="650" y="52"/>
      <point x="550" y="-75"/>
      <point x="366" y="-75" type="curve" smooth="yes"/>
      <point x="297" y="-75" type="line"/>
      <point x="297" y="74" type="line"/>
      <point x="454" y="72"/>
      <point x="482" y="145"/>
      <point x="482" y="244" type="curve" smooth="yes"/>
      <point x="482" y="303"/>
      <point x="435" y="426"/>
      <point x="304" y="426" type="curve" smooth="yes"/>
      <point x="232" y="426" type="line"/>
      <point x="232" y="299" type="line"/>
    </contour>
  </outline>
</glyph>
<glyph name="Ntilde" format="2">
  <advance width="564"/>
  <unicode hex="00D1"/>
  <outline>
    <contour>
      <point x="285" y="579" type="curve" smooth="yes"/>
      <point x="469" y="579"/>
      <point x="531" y="462"/>
      <point x="531" y="336" type="curve" smooth="yes"/>
      <point x="531" y="-75" type="line"/>
      <point x="378" y="-75" type="line"/>
      <point x="378" y="310" type="line" smooth="yes"/>
      <point x="378" y="401"/>
      <point x="326" y="426"/>
      <point x="252" y="426" type="curve" smooth="yes"/>
      <point x="189" y="426" type="line"/>
      <point x="186" y="-75" type="line"/>
      <point x="33" y="-75" type="line"/>
      <point x="33" y="579" type="line"/>
      <point x="33" y="579"/>
      <point x="185" y="579"/>
    </contour>
    <contour>
      <point x="422" y="674" type="line"/>
      <point x="422" y="674"/>
      <point x="387" y="637"/>
      <point x="348" y="637" type="curve" smooth="yes"/>
      <point x="254" y="637"/>
      <point x="258" y="674"/>
      <point x="174" y="674" type="curve" smooth="yes"/>
      <point x="134" y="674"/>
      <point x="95" y="637"/>
      <point x="95" y="637" type="curve"/>
      <point x="95" y="747" type="line"/>
      <point x="95" y="747"/>
      <point x="134" y="784"/>
      <point x="176" y="784" type="curve" smooth="yes"/>
      <point x="265" y="784"/>
      <point x="265" y="747"/>
      <point x="350" y="747" type="curve" smooth="yes"/>
      <point x="388" y="747"/>
      <point x="422" y="784"/>
      <point x="422" y="784" type="curve"/>
    </contour>
  </outline>
</glyph>
<glyph name="Ocircumflex" format="2">
  <advance width="703"/>
  <unicode hex="00D4"/>
  <outline>
    <contour>
      <point x="352" y="825" type="curve" smooth="yes"/>
      <point x="410" y="825"/>
      <point x="441" y="792"/>
      <point x="456" y="757" type="curve" smooth="yes"/>
      <point x="504" y="646" type="line"/>
      <point x="394" y="646" type="line"/>
      <point x="352" y="739" type="line"/>
      <point x="311" y="646" type="line"/>
      <point x="200" y="646" type="line"/>
      <point x="201" y="648"/>
      <point x="208" y="664"/>
      <point x="248" y="757" type="curve" smooth="yes"/>
      <point x="263" y="792"/>
      <point x="294" y="825"/>
    </contour>
    <contour>
      <point x="351" y="431" type="curve" smooth="yes"/>
      <point x="251" y="431"/>
      <point x="170" y="350"/>
      <point x="170" y="251" type="curve" smooth="yes"/>
      <point x="170" y="152"/>
      <point x="251" y="71"/>
      <point x="351" y="71" type="curve" smooth="yes"/>
      <point x="451" y="71"/>
      <point x="532" y="152"/>
      <point x="532" y="251" type="curve" smooth="yes"/>
      <point x="532" y="350"/>
      <point x="451" y="431"/>
    </contour>
    <contour>
      <point x="352" y="593" type="curve" smooth="yes"/>
      <point x="537" y="593"/>
      <point x="687" y="441"/>
      <point x="687" y="252" type="curve" smooth="yes"/>
      <point x="687" y="63"/>
      <point x="537" y="-89"/>
      <point x="352" y="-89" type="curve" smooth="yes"/>
      <point x="167" y="-89"/>
      <point x="17" y="63"/>
      <point x="17" y="252" type="curve" smooth="yes"/>
      <point x="17" y="441"/>
      <point x="167" y="593"/>
    </contour>
    <contour>
      <point x="200" y="646" type="curve"/>
      <point x="200" y="646"/>
      <point x="200" y="645"/>
    </contour>
  </outline>
</glyph>
<glyph name="Otilde" format="2">
  <advance width="703"/>
  <unicode hex="00D5"/>
  <outline>
    <contour>
      <point x="523" y="673" type="line"/>
      <point x="523" y="673"/>
      <point x="488" y="636"/>
      <point x="449" y="636" type="curve" smooth="yes"/>
      <point x="355" y="636"/>
      <point x="359" y="673"/>
      <point x="275" y="673" type="curve" smooth="yes"/>
      <point x="235" y="673"/>
      <point x="196" y="636"/>
      <point x="196" y="636" type="curve"/>
      <point x="196" y="746" type="line"/>
      <point x="196" y="746"/>
      <point x="236" y="783"/>
      <point x="278" y="783" type="curve" smooth="yes"/>
      <point x="367" y="783"/>
      <point x="367" y="746"/>
      <point x="452" y="746" type="curve" smooth="yes"/>
      <point x="490" y="746"/>
      <point x="523" y="783"/>
      <point x="523" y="783" type="curve"/>
    </contour>
    <contour>
      <point x="351" y="431" type="curve" smooth="yes"/>
      <point x="251" y="431"/>
      <point x="170" y="350"/>
      <point x="170" y="251" type="curve" smooth="yes"/>
      <point x="170" y="152"/>
      <point x="251" y="71"/>
      <point x="351" y="71" type="curve" smooth="yes"/>
      <point x="451" y="71"/>
      <point x="532" y="152"/>
      <point x="532" y="251" type="curve" smooth="yes"/>
      <point x="532" y="350"/>
      <point x="451" y="431"/>
    </contour>
    <contour>
      <point x="352" y="593" type="curve" smooth="yes"/>
      <point x="537" y="593"/>
      <point x="687" y="441"/>
      <point x="687" y="252" type="curve" smooth="yes"/>
      <point x="687" y="63"/>
      <point x="537" y="-89"/>
      <point x="352" y="-89" type="curve" smooth="yes"/>
      <point x="167" y="-89"/>
      <point x="17" y="63"/>
      <point x="17" y="252" type="curve" smooth="yes"/>
      <point x="17" y="441"/>
      <point x="167" y="593"/>
    </contour>
  </outline>
</glyph>
<glyph name="Odieresis" format="2">
  <advance width="703"/>
  <unicode hex="00D6"/>
  <outline>
    <contour>
      <point x="503" y="778" type="curve" smooth="yes"/>
      <point x="542" y="778"/>
      <point x="574" y="746"/>
      <point x="574" y="707" type="curve" smooth="yes"/>
      <point x="574" y="668"/>
      <point x="542" y="636"/>
      <point x="503" y="636" type="curve" smooth="yes"/>
      <point x="464" y="636"/>
      <point x="432" y="668"/>
      <point x="432" y="707" type="curve" smooth="yes"/>
      <point x="432" y="746"/>
      <point x="464" y="778"/>
    </contour>
    <contour>
      <point x="199" y="778" type="curve" smooth="yes"/>
      <point x="238" y="778"/>
      <point x="270" y="746"/>
      <point x="270" y="707" type="curve" smooth="yes"/>
      <point x="270" y="668"/>
      <point x="238" y="636"/>
      <point x="199" y="636" type="curve" smooth="yes"/>
      <point x="160" y="636"/>
      <point x="128" y="668"/>
      <point x="128" y="707" type="curve" smooth="yes"/>
      <point x="128" y="746"/>
      <point x="160" y="778"/>
    </contour>
    <contour>
      <point x="351" y="431" type="curve" smooth="yes"/>
      <point x="251" y="431"/>
      <point x="170" y="350"/>
      <point x="170" y="251" type="curve" smooth="yes"/>
      <point x="170" y="152"/>
      <point x="251" y="71"/>
      <point x="351" y="71" type="curve" smooth="yes"/>
      <point x="451" y="71"/>
      <point x="532" y="152"/>
      <point x="532" y="251" type="curve" smooth="yes"/>
      <point x="532" y="350"/>
      <point x="451" y="431"/>
    </contour>
    <contour>
      <point x="352" y="593" type="curve" smooth="yes"/>
      <point x="537" y="593"/>
      <point x="687" y="441"/>
      <point x="687" y="252" type="curve" smooth="yes"/>
      <point x="687" y="63"/>
      <point x="537" y="-89"/>
      <point x="352" y="-89" type="curve" smooth="yes"/>
      <point x="167" y="-89"/>
      <point x="17" y="63"/>
      <point x="17" y="252" type="curve" smooth="yes"/>
      <point x="17" y="441"/>
      <point x="167" y="593"/>
    </contour>
  </outline>
</glyph>
<glyph name="Ucircumflex" format="2">
  <advance width="583"/>
  <unicode hex="00DB"/>
  <outline>
    <contour>
      <point x="548" y="579" type="line"/>
      <point x="548" y="188" type="line" smooth="yes"/>
      <point x="548" y="-7"/>
      <point x="440" y="-91"/>
      <point x="290" y="-91" type="curve" smooth="yes"/>
      <point x="140" y="-91"/>
      <point x="34" y="20"/>
      <point x="34" y="176" type="curve" smooth="yes"/>
      <point x="34" y="579" type="line"/>
      <point x="192" y="579" type="line"/>
      <point x="192" y="221" type="line" smooth="yes"/>
      <point x="192" y="115"/>
      <point x="226" y="68"/>
      <point x="291" y="68" type="curve" smooth="yes"/>
      <point x="358" y="68"/>
      <point x="391" y="111"/>
      <point x="391" y="222" type="curve" smooth="yes"/>
      <point x="391" y="579" type="line"/>
    </contour>
    <contour>
      <point x="291" y="825" type="curve" smooth="yes"/>
      <point x="349" y="825"/>
      <point x="380" y="792"/>
      <point x="395" y="757" type="curve" smooth="yes"/>
      <point x="443" y="646" type="line"/>
      <point x="332" y="646" type="line"/>
      <point x="291" y="739" type="line"/>
      <point x="249" y="646" type="line"/>
      <point x="139" y="646" type="line"/>
      <point x="140" y="648"/>
      <point x="147" y="664"/>
      <point x="187" y="757" type="curve" smooth="yes"/>
      <point x="202" y="792"/>
      <point x="233" y="825"/>
    </contour>
    <contour>
      <point x="139" y="646" type="curve"/>
      <point x="139" y="646"/>
      <point x="139" y="645"/>
    </contour>
  </outline>
</glyph>
<glyph name="Udieresis" format="2">
  <advance width="583"/>
  <unicode hex="00DC"/>
  <outline>
    <contour>
      <point x="548" y="579" type="line"/>
      <point x="548" y="188" type="line" smooth="yes"/>
      <point x="548" y="-7"/>
      <point x="440" y="-91"/>
      <point x="290" y="-91" type="curve" smooth="yes"/>
      <point x="140" y="-91"/>
      <point x="34" y="20"/>
      <point x="34" y="176" type="curve" smooth="yes"/>
      <point x="34" y="579" type="line"/>
      <point x="192" y="579" type="line"/>
      <point x="192" y="221" type="line" smooth="yes"/>
      <point x="192" y="115"/>
      <point x="226" y="68"/>
      <point x="291" y="68" type="curve" smooth="yes"/>
      <point x="358" y="68"/>
      <point x="391" y="111"/>
      <point x="391" y="222" type="curve" smooth="yes"/>
      <point x="391" y="579" type="line"/>
    </contour>
    <contour>
      <point x="444" y="778" type="curve" smooth="yes"/>
      <point x="483" y="778"/>
      <point x="515" y="746"/>
      <point x="515" y="707" type="curve" smooth="yes"/>
      <point x="515" y="668"/>
      <point x="483" y="635"/>
      <point x="444" y="635" type="curve" smooth="yes"/>
      <point x="405" y="635"/>
      <point x="373" y="668"/>
      <point x="373" y="707" type="curve" smooth="yes"/>
      <point x="373" y="746"/>
      <point x="405" y="778"/>
    </contour>
    <contour>
      <point x="139" y="778" type="curve" smooth="yes"/>
      <point x="178" y="778"/>
      <point x="210" y="746"/>
      <point x="210" y="707" type="curve" smooth="yes"/>
      <point x="210" y="668"/>
      <point x="178" y="636"/>
      <point x="139" y="636" type="curve" smooth="yes"/>
      <point x="100" y="636"/>
      <point x="68" y="668"/>
      <point x="68" y="707" type="curve" smooth="yes"/>
      <point x="68" y="746"/>
      <point x="100" y="778"/>
    </contour>
  </outline>
</glyph>
<glyph name="Yacute" format="2">
  <advance width="650"/>
  <unicode hex="00DD"/>
  <outline>
    <contour>
      <point x="202" y="579" type="line"/>
      <point x="325" y="373" type="line"/>
      <point x="448" y="579" type="line"/>
      <point x="616" y="579" type="line"/>
      <point x="402" y="243" type="line"/>
      <point x="402" y="-75" type="line"/>
      <point x="248" y="-75" type="line"/>
      <point x="248" y="243" type="line"/>
      <point x="34" y="579" type="line"/>
    </contour>
    <contour>
      <point x="247" y="646" type="line"/>
      <point x="351" y="835" type="line"/>
      <point x="499" y="834" type="line"/>
      <point x="393" y="646" type="line"/>
    </contour>
  </outline>
</glyph>
<glyph name="germandbls" format="2">
  <advance width="557"/>
  <unicode hex="00DF"/>
  <outline>
    <contour>
      <point x="31" y="429" type="line" smooth="yes"/>
      <point x="31" y="521"/>
      <point x="73" y="653"/>
      <point x="249" y="653" type="curve" smooth="yes"/>
      <point x="389" y="653"/>
      <point x="471" y="561"/>
      <point x="471" y="470" type="curve" smooth="yes"/>
      <point x="471" y="417"/>
      <point x="450" y="362"/>
      <point x="404" y="341" type="curve"/>
      <point x="467" y="323"/>
      <point x="541" y="236"/>
      <point x="541" y="144" type="curve" smooth="yes"/>
      <point x="541" y="3"/>
      <point x="467" y="-82"/>
      <point x="320" y="-82" type="curve" smooth="yes"/>
      <point x="285" y="-82"/>
      <point x="265" y="-81"/>
      <point x="235" y="-75" type="curve"/>
      <point x="235" y="48" type="line"/>
      <point x="261" y="42"/>
      <point x="284" y="40"/>
      <point x="310" y="40" type="curve" smooth="yes"/>
      <point x="365" y="40"/>
      <point x="416" y="65"/>
      <point x="416" y="142" type="curve" smooth="yes"/>
      <point x="416" y="233"/>
      <point x="309" y="272"/>
      <point x="253" y="272" type="curve"/>
      <point x="253" y="368" type="line"/>
      <point x="293" y="368"/>
      <point x="331" y="400"/>
      <point x="331" y="446" type="curve" smooth="yes"/>
      <point x="331" y="486"/>
      <point x="308" y="520"/>
      <point x="253" y="520" type="curve" smooth="yes"/>
      <point x="192" y="520"/>
      <point x="175" y="466"/>
      <point x="175" y="421" type="curve" smooth="yes"/>
      <point x="175" y="-75" type="line"/>
      <point x="31" y="-75" type="line"/>
    </contour>
  </outline>
</glyph>
<glyph name="agrave" format="2">
  <advance width="571"/>
  <unicode hex="00E0"/>
  <outline>
    <contour>
      <point x="520" y="426" type="line"/>
      <point x="520" y="-75" type="line"/>
      <point x="371" y="-75" type="line"/>
      <point x="371" y="295" type="line"/>
      <point x="307" y="295" type="line" smooth="yes"/>
      <point x="194" y="295"/>
      <point x="156" y="246"/>
      <point x="156" y="179" type="curve" smooth="yes"/>
      <point x="156" y="91"/>
      <point x="228" y="60"/>
      <point x="306" y="60" type="curve"/>
      <point x="306" y="-75" type="line"/>
      <point x="269" y="-75" type="line" smooth="yes"/>
      <point x="131" y="-75"/>
      <point x="17" y="23"/>
      <point x="17" y="169" type="curve" smooth="yes"/>
      <point x="17" y="315"/>
      <point x="97" y="426"/>
      <point x="280" y="426" type="curve" smooth="yes"/>
    </contour>
    <contour>
      <point x="418" y="507" type="line"/>
      <point x="272" y="507" type="line"/>
      <point x="166" y="695" type="line"/>
      <point x="314" y="695" type="line"/>
    </contour>
  </outline>
</glyph>
<glyph name="atilde" format="2">
  <advance width="571"/>
  <unicode hex="00E3"/>
  <outline>
    <contour>
      <point x="520" y="426" type="line"/>
      <point x="520" y="-75" type="line"/>
      <point x="371" y="-75" type="line"/>
      <point x="371" y="295" type="line"/>
      <point x="307" y="295" type="line" smooth="yes"/>
      <point x="194" y="295"/>
      <point x="156" y="246"/>
      <point x="156" y="179" type="curve" smooth="yes"/>
      <point x="156" y="91"/>
      <point x="228" y="60"/>
      <point x="306" y="60" type="curve"/>
      <point x="306" y="-75" type="line"/>
      <point x="269" y="-75" type="line" smooth="yes"/>
      <point x="131" y="-75"/>
      <point x="17" y="23"/>
      <point x="17" y="169" type="curve" smooth="yes"/>
      <point x="17" y="315"/>
      <point x="97" y="426"/>
      <point x="280" y="426" type="curve" smooth="yes"/>
    </contour>
    <contour>
      <point x="458" y="573" type="line"/>
      <point x="458" y="573"/>
      <point x="423" y="536"/>
      <point x="384" y="536" type="curve" smooth="yes"/>
      <point x="290" y="536"/>
      <point x="295" y="573"/>
      <point x="211" y="573" type="curve" smooth="yes"/>
      <point x="171" y="573"/>
      <point x="131" y="536"/>
      <point x="131" y="536" type="curve"/>
      <point x="131" y="646" type="line"/>
      <point x="131" y="646"/>
      <point x="171" y="683"/>
      <point x="213" y="683" type="curve" smooth="yes"/>
      <point x="302" y="683"/>
      <point x="302" y="646"/>
      <point x="387" y="646" type="curve" smooth="yes"/>
      <point x="425" y="646"/>
      <point x="458" y="683"/>
      <point x="458" y="683" type="curve"/>
    </contour>
  </outline>
</glyph>
<glyph name="adieresis" format="2">
  <advance width="571"/>
  <unicode hex="00E4"/>
  <outline>
    <contour>
      <point x="520" y="426" type="line"/>
      <point x="520" y="-75" type="line"/>
      <point x="371" y="-75" type="line"/>
      <point x="371" y="295" type="line"/>
      <point x="307" y="295" type="line" smooth="yes"/>
      <point x="194" y="295"/>
      <point x="156" y="246"/>
      <point x="156" y="179" type="curve" smooth="yes"/>
      <point x="156" y="91"/>
      <point x="228" y="60"/>
      <point x="306" y="60" type="curve"/>
      <point x="306" y="-75" type="line"/>
      <point x="269" y="-75" type="line" smooth="yes"/>
      <point x="131" y="-75"/>
      <point x="17" y="23"/>
      <point x="17" y="169" type="curve" smooth="yes"/>
      <point x="17" y="315"/>
      <point x="97" y="426"/>
      <point x="280" y="426" type="curve" smooth="yes"/>
    </contour>
    <contour>
      <point x="141" y="676" type="curve" smooth="yes"/>
      <point x="180" y="676"/>
      <point x="212" y="644"/>
      <point x="212" y="605" type="curve" smooth="yes"/>
      <point x="212" y="566"/>
      <point x="180" y="534"/>
      <point x="141" y="534" type="curve" smooth="yes"/>
      <point x="102" y="534"/>
      <point x="70" y="566"/>
      <point x="70" y="605" type="curve" smooth="yes"/>
      <point x="70" y="644"/>
      <point x="102" y="676"/>
    </contour>
    <contour>
      <point x="445" y="676" type="curve" smooth="yes"/>
      <point x="484" y="676"/>
      <point x="516" y="644"/>
      <point x="516" y="605" type="curve" smooth="yes"/>
      <point x="516" y="566"/>
      <point x="484" y="534"/>
      <point x="445" y="534" type="curve" smooth="yes"/>
      <point x="406" y="534"/>
      <point x="374" y="566"/>
      <point x="374" y="605" type="curve" smooth="yes"/>
      <point x="374" y="644"/>
      <point x="406" y="676"/>
    </contour>
  </outline>
</glyph>
<glyph name="aring" format="2">
  <advance width="571"/>
  <unicode hex="00E5"/>
  <outline>
    <contour>
      <point x="520" y="426" type="line"/>
      <point x="520" y="-75" type="line"/>
      <point x="371" y="-75" type="line"/>
      <point x="371" y="295" type="line"/>
      <point x="307" y="295" type="line" smooth="yes"/>
      <point x="194" y="295"/>
      <point x="156" y="246"/>
      <point x="156" y="179" type="curve" smooth="yes"/>
      <point x="156" y="91"/>
      <point x="228" y="60"/>
      <point x="306" y="60" type="curve"/>
      <point x="306" y="-75" type="line"/>
      <point x="269" y="-75" type="line" smooth="yes"/>
      <point x="131" y="-75"/>
      <point x="17" y="23"/>
      <point x="17" y="169" type="curve" smooth="yes"/>
      <point x="17" y="315"/>
      <point x="97" y="426"/>
      <point x="280" y="426" type="curve" smooth="yes"/>
    </contour>
    <contour>
      <point x="303" y="729" type="curve" smooth="yes"/>
      <point x="365" y="729"/>
      <point x="415" y="678"/>
      <point x="415" y="615" type="curve" smooth="yes"/>
      <point x="415" y="552"/>
      <point x="365" y="501"/>
      <point x="303" y="501" type="curve" smooth="yes"/>
      <point x="241" y="501"/>
      <point x="191" y="552"/>
      <point x="191" y="615" type="curve" smooth="yes"/>
      <point x="191" y="678"/>
      <point x="241" y="729"/>
    </contour>
    <contour>
      <point x="304" y="665" type="curve" smooth="yes"/>
      <point x="275" y="665"/>
      <point x="254" y="645"/>
      <point x="254" y="616" type="curve" smooth="yes"/>
      <point x="254" y="587"/>
      <point x="275" y="566"/>
      <point x="304" y="566" type="curve" smooth="yes"/>
      <point x="333" y="566"/>
      <point x="354" y="587"/>
      <point x="354" y="616" type="curve" smooth="yes"/>
      <point x="354" y="645"/>
      <point x="333" y="665"/>
    </contour>
  </outline>
</glyph>
<glyph name="ccedilla" format="2">
  <advance width="422"/>
  <unicode hex="00E7"/>
  <outline>
    <contour>
      <point x="371" y="426" type="line"/>
      <point x="371" y="295" type="line"/>
      <point x="312" y="295" type="line" smooth="yes"/>
      <point x="199" y="295"/>
      <point x="156" y="246"/>
      <point x="156" y="179" type="curve" smooth="yes"/>
      <point x="156" y="91"/>
      <point x="233" y="60"/>
      <point x="311" y="60" type="curve" smooth="yes"/>
      <point x="371" y="60" type="line"/>
      <point x="371" y="-75" type="line"/>
      <point x="275" y="-75" type="line"/>
      <point x="265" y="-100" type="line"/>
      <point x="286" y="-100"/>
      <point x="307" y="-104"/>
      <point x="323" y="-112" type="curve" smooth="yes"/>
      <point x="348" y="-125"/>
      <point x="368" y="-153"/>
      <point x="369" y="-191" type="curve" smooth="yes"/>
      <point x="370" y="-251"/>
      <point x="323" y="-288"/>
      <point x="267" y="-288" type="curve" smooth="yes"/>
      <point x="199" y="-288" type="line"/>
      <point x="199" y="-225" type="line"/>
      <point x="245" y="-225" type="line" smooth="yes"/>
      <point x="263" y="-225"/>
      <point x="295" y="-220"/>
      <point x="295" y="-196" type="curve" smooth="yes"/>
      <point x="295" y="-176"/>
      <point x="282" y="-163"/>
      <point x="239" y="-163" type="curve" smooth="yes"/>
      <point x="229" y="-163"/>
      <point x="187" y="-163"/>
      <point x="187" y="-163" type="curve"/>
      <point x="217" y="-70" type="line"/>
      <point x="104" y="-49"/>
      <point x="17" y="42"/>
      <point x="17" y="169" type="curve" smooth="yes"/>
      <point x="17" y="315"/>
      <point x="97" y="426"/>
      <point x="280" y="426" type="curve" smooth="yes"/>
    </contour>
  </outline>
</glyph>
<glyph name="egrave" format="2">
  <advance width="531"/>
  <unicode hex="00E8"/>
  <outline>
    <contour>
      <point x="354" y="507" type="line"/>
      <point x="207" y="507" type="line"/>
      <point x="101" y="695" type="line"/>
      <point x="250" y="695" type="line"/>
    </contour>
    <contour>
      <point x="512" y="120" type="curve"/>
      <point x="445" y="120"/>
      <point x="232" y="119"/>
      <point x="232" y="119" type="curve"/>
      <point x="232" y="207" type="line"/>
      <point x="374" y="207" type="line"/>
      <point x="377" y="248"/>
      <point x="343" y="296"/>
      <point x="268" y="296" type="curve" smooth="yes"/>
      <point x="221" y="296"/>
      <point x="150" y="268"/>
      <point x="150" y="170" type="curve" smooth="yes"/>
      <point x="150" y="76"/>
      <point x="233" y="46"/>
      <point x="303" y="46" type="curve" smooth="yes"/>
      <point x="376" y="46"/>
      <point x="417" y="53"/>
      <point x="417" y="53" type="curve"/>
      <point x="417" y="-75" type="line"/>
      <point x="417" y="-75"/>
      <point x="366" y="-83"/>
      <point x="306" y="-83" type="curve" smooth="yes"/>
      <point x="94" y="-83"/>
      <point x="17" y="48"/>
      <point x="17" y="171" type="curve" smooth="yes"/>
      <point x="17" y="321"/>
      <point x="111" y="437"/>
      <point x="265" y="437" type="curve" smooth="yes"/>
      <point x="402" y="437"/>
      <point x="532" y="367"/>
    </contour>
  </outline>
</glyph>
<glyph name="ecircumflex" format="2">
  <advance width="531"/>
  <unicode hex="00EA"/>
  <outline>
    <contour>
      <point x="512" y="120" type="curve"/>
      <point x="445" y="120"/>
      <point x="232" y="119"/>
      <point x="232" y="119" type="curve"/>
      <point x="232" y="207" type="line"/>
      <point x="374" y="207" type="line"/>
      <point x="377" y="248"/>
      <point x="343" y="296"/>
      <point x="268" y="296" type="curve" smooth="yes"/>
      <point x="221" y="296"/>
      <point x="150" y="268"/>
      <point x="150" y="170" type="curve" smooth="yes"/>
      <point x="150" y="76"/>
      <point x="233" y="46"/>
      <point x="303" y="46" type="curve" smooth="yes"/>
      <point x="376" y="46"/>
      <point x="417" y="53"/>
      <point x="417" y="53" type="curve"/>
      <point x="417" y="-75" type="line"/>
      <point x="417" y="-75"/>
      <point x="366" y="-83"/>
      <point x="306" y="-83" type="curve" smooth="yes"/>
      <point x="94" y="-83"/>
      <point x="17" y="48"/>
      <point x="17" y="171" type="curve" smooth="yes"/>
      <point x="17" y="321"/>
      <point x="111" y="437"/>
      <point x="265" y="437" type="curve" smooth="yes"/>
      <point x="402" y="437"/>
      <point x="532" y="367"/>
    </contour>
    <contour>
      <point x="269" y="687" type="curve" smooth="yes"/>
      <point x="327" y="687"/>
      <point x="358" y="654"/>
      <point x="373" y="619" type="curve" smooth="yes"/>
      <point x="421" y="508" type="line"/>
      <point x="310" y="508" type="line"/>
      <point x="269" y="601" type="line"/>
      <point x="228" y="508" type="line"/>
      <point x="117" y="508" type="line"/>
      <point x="118" y="510"/>
      <point x="125" y="526"/>
      <point x="165" y="619" type="curve" smooth="yes"/>
      <point x="180" y="654"/>
      <point x="211" y="687"/>
    </contour>
  </outline>
</glyph>
<glyph name="igrave" format="2">
  <advance width="264"/>
  <unicode hex="00EC"/>
  <outline>
    <contour>
      <point x="211" y="426" type="line"/>
      <point x="213" y="-75" type="line"/>
      <point x="64" y="-75" type="line"/>
      <point x="64" y="426" type="line"/>
    </contour>
    <contour>
      <point x="230" y="507" type="line"/>
      <point x="83" y="507" type="line"/>
      <point x="-23" y="695" type="line"/>
      <point x="125" y="695" type="line"/>
    </contour>
  </outline>
</glyph>
<glyph name="iacute" format="2">
  <advance width="262"/>
  <unicode hex="00ED"/>
  <outline>
    <contour>
      <point x="193" y="426" type="line"/>
      <point x="195" y="-75" type="line"/>
      <point x="46" y="-75" type="line"/>
      <point x="46" y="426" type="line"/>
    </contour>
    <contour>
      <point x="35" y="507" type="line"/>
      <point x="139" y="695" type="line"/>
      <point x="288" y="695" type="line"/>
      <point x="181" y="507" type="line"/>
    </contour>
  </outline>
</glyph>
<glyph name="icircumflex" format="2">
  <advance width="303"/>
  <unicode hex="00EE"/>
  <outline>
    <contour>
      <point x="152" y="686" type="curve" smooth="yes"/>
      <point x="210" y="686"/>
      <point x="241" y="653"/>
      <point x="256" y="618" type="curve" smooth="yes"/>
      <point x="304" y="507" type="line"/>
      <point x="193" y="507" type="line"/>
      <point x="152" y="600" type="line"/>
      <point x="111" y="507" type="line"/>
      <point x="0" y="507" type="line"/>
      <point x="1" y="509"/>
      <point x="8" y="525"/>
      <point x="48" y="618" type="curve" smooth="yes"/>
      <point x="63" y="653"/>
      <point x="94" y="686"/>
    </contour>
    <contour>
      <point x="227" y="426" type="line"/>
      <point x="229" y="-75" type="line"/>
      <point x="80" y="-75" type="line"/>
      <point x="80" y="426" type="line"/>
    </contour>
  </outline>
</glyph>
<glyph name="idieresis" format="2">
  <advance width="415"/>
  <unicode hex="00EF"/>
  <outline>
    <contour>
      <point x="57" y="676" type="curve" smooth="yes"/>
      <point x="96" y="676"/>
      <point x="128" y="644"/>
      <point x="128" y="605" type="curve" smooth="yes"/>
      <point x="128" y="566"/>
      <point x="96" y="534"/>
      <point x="57" y="534" type="curve" smooth="yes"/>
      <point x="18" y="534"/>
      <point x="-14" y="566"/>
      <point x="-14" y="605" type="curve" smooth="yes"/>
      <point x="-14" y="644"/>
      <point x="18" y="676"/>
    </contour>
    <contour>
      <point x="361" y="676" type="curve" smooth="yes"/>
      <point x="400" y="676"/>
      <point x="432" y="644"/>
      <point x="432" y="605" type="curve" smooth="yes"/>
      <point x="432" y="566"/>
      <point x="400" y="534"/>
      <point x="361" y="534" type="curve" smooth="yes"/>
      <point x="322" y="534"/>
      <point x="290" y="566"/>
      <point x="290" y="605" type="curve" smooth="yes"/>
      <point x="290" y="644"/>
      <point x="322" y="676"/>
    </contour>
    <contour>
      <point x="283" y="426" type="line"/>
      <point x="283" y="-75" type="line"/>
      <point x="135" y="-75" type="line"/>
      <point x="135" y="426" type="line"/>
    </contour>
  </outline>
</glyph>
<glyph name="eth" format="2">
  <advance width="584"/>
  <unicode hex="00F0"/>
  <outline>
    <contour>
      <point x="472" y="727" type="line"/>
      <point x="542" y="648" type="line"/>
      <point x="484" y="596" type="line"/>
      <point x="508" y="550"/>
      <point x="514" y="494"/>
      <point x="514" y="436" type="curve" smooth="yes"/>
      <point x="514" y="-75" type="line"/>
      <point x="274" y="-75" type="line" smooth="yes"/>
      <point x="91" y="-75"/>
      <point x="12" y="36"/>
      <point x="12" y="182" type="curve" smooth="yes"/>
      <point x="12" y="328"/>
      <point x="125" y="426"/>
      <point x="263" y="426" type="curve" smooth="yes"/>
      <point x="300" y="426" type="line"/>
      <point x="300" y="291" type="line"/>
      <point x="222" y="291"/>
      <point x="150" y="260"/>
      <point x="150" y="172" type="curve" smooth="yes"/>
      <point x="150" y="105"/>
      <point x="188" y="56"/>
      <point x="301" y="56" type="curve" smooth="yes"/>
      <point x="365" y="56" type="line"/>
      <point x="365" y="450" type="line" smooth="yes"/>
      <point x="365" y="463"/>
      <point x="364" y="475"/>
      <point x="362" y="486" type="curve"/>
      <point x="317" y="445" type="line"/>
      <point x="246" y="524" type="line"/>
      <point x="294" y="567" type="line"/>
      <point x="270" y="576"/>
      <point x="242" y="579"/>
      <point x="212" y="579" type="curve"/>
      <point x="212" y="717" type="line"/>
      <point x="302" y="717"/>
      <point x="367" y="700"/>
      <point x="412" y="673" type="curve"/>
    </contour>
  </outline>
</glyph>
<glyph name="ntilde" format="2">
  <advance width="552"/>
  <unicode hex="00F1"/>
  <outline>
    <contour>
      <point x="517" y="-75" type="line"/>
      <point x="369" y="-75" type="line"/>
      <point x="369" y="147" type="line" smooth="yes"/>
      <point x="369" y="251"/>
      <point x="338" y="292"/>
      <point x="275" y="292" type="curve" smooth="yes"/>
      <point x="214" y="292"/>
      <point x="182" y="248"/>
      <point x="182" y="148" type="curve" smooth="yes"/>
      <point x="182" y="-75" type="line"/>
      <point x="33" y="-75" type="line"/>
      <point x="33" y="190" type="line" smooth="yes"/>
      <point x="33" y="337"/>
      <point x="133" y="442"/>
      <point x="274" y="442" type="curve" smooth="yes"/>
      <point x="415" y="442"/>
      <point x="517" y="362"/>
      <point x="517" y="179" type="curve" smooth="yes"/>
    </contour>
    <contour>
      <point x="442" y="573" type="line"/>
      <point x="442" y="573"/>
      <point x="407" y="536"/>
      <point x="368" y="536" type="curve" smooth="yes"/>
      <point x="274" y="536"/>
      <point x="278" y="573"/>
      <point x="194" y="573" type="curve" smooth="yes"/>
      <point x="154" y="573"/>
      <point x="115" y="536"/>
      <point x="115" y="536" type="curve"/>
      <point x="115" y="646" type="line"/>
      <point x="115" y="646"/>
      <point x="155" y="683"/>
      <point x="197" y="683" type="curve" smooth="yes"/>
      <point x="286" y="683"/>
      <point x="286" y="646"/>
      <point x="371" y="646" type="curve" smooth="yes"/>
      <point x="409" y="646"/>
      <point x="442" y="683"/>
      <point x="442" y="683" type="curve"/>
    </contour>
  </outline>
</glyph>
<glyph name="oacute" format="2">
  <advance width="547"/>
  <unicode hex="00F3"/>
  <outline>
    <contour>
      <point x="276" y="295" type="curve" smooth="yes"/>
      <point x="210" y="295"/>
      <point x="157" y="242"/>
      <point x="157" y="177" type="curve" smooth="yes"/>
      <point x="157" y="112"/>
      <point x="210" y="59"/>
      <point x="276" y="59" type="curve" smooth="yes"/>
      <point x="342" y="59"/>
      <point x="394" y="112"/>
      <point x="394" y="177" type="curve" smooth="yes"/>
      <point x="394" y="242"/>
      <point x="342" y="295"/>
    </contour>
    <contour>
      <point x="274" y="436" type="curve" smooth="yes"/>
      <point x="416" y="436"/>
      <point x="530" y="320"/>
      <point x="530" y="177" type="curve" smooth="yes"/>
      <point x="530" y="34"/>
      <point x="416" y="-83"/>
      <point x="274" y="-83" type="curve" smooth="yes"/>
      <point x="132" y="-83"/>
      <point x="17" y="34"/>
      <point x="17" y="177" type="curve" smooth="yes"/>
      <point x="17" y="320"/>
      <point x="132" y="436"/>
    </contour>
    <contour>
      <point x="197" y="507" type="line"/>
      <point x="301" y="695" type="line"/>
      <point x="450" y="695" type="line"/>
      <point x="343" y="507" type="line"/>
    </contour>
  </outline>
</glyph>
<glyph name="ocircumflex" format="2">
  <advance width="547"/>
  <unicode hex="00F4"/>
  <outline>
    <contour>
      <point x="276" y="295" type="curve" smooth="yes"/>
      <point x="210" y="295"/>
      <point x="157" y="242"/>
      <point x="157" y="177" type="curve" smooth="yes"/>
      <point x="157" y="112"/>
      <point x="210" y="59"/>
      <point x="276" y="59" type="curve" smooth="yes"/>
      <point x="342" y="59"/>
      <point x="394" y="112"/>
      <point x="394" y="177" type="curve" smooth="yes"/>
      <point x="394" y="242"/>
      <point x="342" y="295"/>
    </contour>
    <contour>
      <point x="274" y="436" type="curve" smooth="yes"/>
      <point x="416" y="436"/>
      <point x="530" y="320"/>
      <point x="530" y="177" type="curve" smooth="yes"/>
      <point x="530" y="34"/>
      <point x="416" y="-83"/>
      <point x="274" y="-83" type="curve" smooth="yes"/>
      <point x="132" y="-83"/>
      <point x="17" y="34"/>
      <point x="17" y="177" type="curve" smooth="yes"/>
      <point x="17" y="320"/>
      <point x="132" y="436"/>
    </contour>
    <contour>
      <point x="275" y="686" type="curve" smooth="yes"/>
      <point x="333" y="686"/>
      <point x="364" y="653"/>
      <point x="379" y="618" type="curve" smooth="yes"/>
      <point x="427" y="507" type="line"/>
      <point x="317" y="507" type="line"/>
      <point x="275" y="600" type="line"/>
      <point x="234" y="507" type="line"/>
      <point x="123" y="507" type="line"/>
      <point x="124" y="509"/>
      <point x="132" y="525"/>
      <point x="172" y="618" type="curve" smooth="yes"/>
      <point x="187" y="653"/>
      <point x="217" y="686"/>
    </contour>
    <contour>
      <point x="123" y="507" type="curve"/>
      <point x="123" y="507"/>
      <point x="123" y="506"/>
    </contour>
  </outline>
</glyph>
<glyph name="otilde" format="2">
  <advance width="547"/>
  <unicode hex="00F5"/>
  <outline>
    <contour>
      <point x="276" y="295" type="curve" smooth="yes"/>
      <point x="210" y="295"/>
      <point x="157" y="242"/>
      <point x="157" y="177" type="curve" smooth="yes"/>
      <point x="157" y="112"/>
      <point x="210" y="59"/>
      <point x="276" y="59" type="curve" smooth="yes"/>
      <point x="342" y="59"/>
      <point x="394" y="112"/>
      <point x="394" y="177" type="curve" smooth="yes"/>
      <point x="394" y="242"/>
      <point x="342" y="295"/>
    </contour>
    <contour>
      <point x="274" y="436" type="curve" smooth="yes"/>
      <point x="416" y="436"/>
      <point x="530" y="320"/>
      <point x="530" y="177" type="curve" smooth="yes"/>
      <point x="530" y="34"/>
      <point x="416" y="-83"/>
      <point x="274" y="-83" type="curve" smooth="yes"/>
      <point x="132" y="-83"/>
      <point x="17" y="34"/>
      <point x="17" y="177" type="curve" smooth="yes"/>
      <point x="17" y="320"/>
      <point x="132" y="436"/>
    </contour>
    <contour>
      <point x="440" y="572" type="line"/>
      <point x="440" y="572"/>
      <point x="405" y="535"/>
      <point x="366" y="535" type="curve" smooth="yes"/>
      <point x="272" y="535"/>
      <point x="276" y="572"/>
      <point x="192" y="572" type="curve" smooth="yes"/>
      <point x="152" y="572"/>
      <point x="113" y="535"/>
      <point x="113" y="535" type="curve"/>
      <point x="113" y="645" type="line"/>
      <point x="113" y="645"/>
      <point x="153" y="682"/>
      <point x="195" y="682" type="curve" smooth="yes"/>
      <point x="284" y="682"/>
      <point x="284" y="645"/>
      <point x="369" y="645" type="curve" smooth="yes"/>
      <point x="407" y="645"/>
      <point x="440" y="682"/>
      <point x="440" y="682" type="curve"/>
    </contour>
  </outline>
</glyph>
<glyph name="uacute" format="2">
  <advance width="553"/>
  <unicode hex="00FA"/>
  <outline>
    <contour>
      <point x="518" y="426" type="line"/>
      <point x="518" y="172" type="line" smooth="yes"/>
      <point x="518" y="-11"/>
      <point x="416" y="-91"/>
      <point x="275" y="-91" type="curve" smooth="yes"/>
      <point x="134" y="-91"/>
      <point x="34" y="14"/>
      <point x="34" y="161" type="curve" smooth="yes"/>
      <point x="34" y="426" type="line"/>
      <point x="183" y="426" type="line"/>
      <point x="183" y="203" type="line" smooth="yes"/>
      <point x="183" y="103"/>
      <point x="215" y="59"/>
      <point x="276" y="59" type="curve" smooth="yes"/>
      <point x="339" y="59"/>
      <point x="370" y="100"/>
      <point x="370" y="204" type="curve" smooth="yes"/>
      <point x="370" y="426" type="line"/>
    </contour>
    <contour>
      <point x="177" y="507" type="line"/>
      <point x="281" y="695" type="line"/>
      <point x="430" y="695" type="line"/>
      <point x="324" y="507" type="line"/>
    </contour>
  </outline>
</glyph>
<glyph name="udieresis" format="2">
  <advance width="553"/>
  <unicode hex="00FC"/>
  <outline>
    <contour>
      <point x="518" y="426" type="line"/>
      <point x="518" y="172" type="line" smooth="yes"/>
      <point x="518" y="-11"/>
      <point x="416" y="-91"/>
      <point x="275" y="-91" type="curve" smooth="yes"/>
      <point x="134" y="-91"/>
      <point x="34" y="14"/>
      <point x="34" y="161" type="curve" smooth="yes"/>
      <point x="34" y="426" type="line"/>
      <point x="183" y="426" type="line"/>
      <point x="183" y="203" type="line" smooth="yes"/>
      <point x="183" y="103"/>
      <point x="215" y="59"/>
      <point x="276" y="59" type="curve" smooth="yes"/>
      <point x="339" y="59"/>
      <point x="370" y="100"/>
      <point x="370" y="204" type="curve" smooth="yes"/>
      <point x="370" y="426" type="line"/>
    </contour>
    <contour>
      <point x="429" y="676" type="curve" smooth="yes"/>
      <point x="468" y="676"/>
      <point x="500" y="644"/>
      <point x="500" y="605" type="curve" smooth="yes"/>
      <point x="500" y="566"/>
      <point x="468" y="534"/>
      <point x="429" y="534" type="curve" smooth="yes"/>
      <point x="390" y="534"/>
      <point x="358" y="566"/>
      <point x="358" y="605" type="curve" smooth="yes"/>
      <point x="358" y="644"/>
      <point x="390" y="676"/>
    </contour>
    <contour>
      <point x="124" y="676" type="curve" smooth="yes"/>
      <point x="163" y="676"/>
      <point x="195" y="644"/>
      <point x="195" y="605" type="curve" smooth="yes"/>
      <point x="195" y="566"/>
      <point x="163" y="534"/>
      <point x="124" y="534" type="curve" smooth="yes"/>
      <point x="85" y="534"/>
      <point x="53" y="566"/>
      <point x="53" y="605" type="curve" smooth="yes"/>
      <point x="53" y="644"/>
      <point x="85" y="676"/>
    </contour>
  </outline>
</glyph>
<glyph name="yacute" format="2">
  <advance width="562"/>
  <unicode hex="00FD"/>
  <outline>
    <contour>
      <point x="208" y="507" type="line"/>
      <point x="312" y="695" type="line"/>
      <point x="460" y="695" type="line"/>
      <point x="354" y="507" type="line"/>
    </contour>
    <contour>
      <point x="183" y="426" type="line"/>
      <point x="183" y="210" type="line" smooth="yes"/>
      <point x="183" y="116"/>
      <point x="230" y="64"/>
      <point x="318" y="64" type="curve" smooth="yes"/>
      <point x="381" y="64" type="line"/>
      <point x="379" y="426" type="line"/>
      <point x="528" y="426" type="line"/>
      <point x="528" y="-75" type="line" smooth="yes"/>
      <point x="528" y="-147"/>
      <point x="492" y="-212"/>
      <point x="440" y="-251" type="curve" smooth="yes"/>
      <point x="367" y="-306"/>
      <point x="270" y="-300"/>
      <point x="226" y="-300" type="curve" smooth="yes"/>
      <point x="174" y="-300"/>
      <point x="113" y="-288"/>
      <point x="113" y="-288" type="curve"/>
      <point x="113" y="-163" type="line"/>
      <point x="113" y="-163"/>
      <point x="158" y="-175"/>
      <point x="222" y="-175" type="curve" smooth="yes"/>
      <point x="286" y="-175"/>
      <point x="313" y="-166"/>
      <point x="340" y="-149" type="curve" smooth="yes"/>
      <point x="358" y="-137"/>
      <point x="378" y="-114"/>
      <point x="378" y="-75" type="curve"/>
      <point x="260" y="-75" type="line" smooth="yes"/>
      <point x="118" y="-75"/>
      <point x="35" y="52"/>
      <point x="35" y="164" type="curve" smooth="yes"/>
      <point x="35" y="239"/>
      <point x="34" y="426"/>
      <point x="34" y="426" type="curve"/>
    </contour>
  </outline>
</glyph>
<glyph name="ydieresis" format="2">
  <advance width="558"/>
  <unicode hex="00FF"/>
  <outline>
    <contour>
      <point x="179" y="426" type="line"/>
      <point x="179" y="209" type="line" smooth="yes"/>
      <point x="179" y="115"/>
      <point x="227" y="64"/>
      <point x="315" y="64" type="curve" smooth="yes"/>
      <point x="377" y="64" type="line"/>
      <point x="376" y="426" type="line"/>
      <point x="524" y="426" type="line"/>
      <point x="524" y="-75" type="line" smooth="yes"/>
      <point x="524" y="-147"/>
      <point x="488" y="-212"/>
      <point x="436" y="-251" type="curve" smooth="yes"/>
      <point x="363" y="-306"/>
      <point x="267" y="-300"/>
      <point x="223" y="-300" type="curve" smooth="yes"/>
      <point x="171" y="-300"/>
      <point x="110" y="-288"/>
      <point x="110" y="-288" type="curve"/>
      <point x="110" y="-163" type="line"/>
      <point x="110" y="-163"/>
      <point x="155" y="-175"/>
      <point x="219" y="-175" type="curve" smooth="yes"/>
      <point x="283" y="-175"/>
      <point x="310" y="-166"/>
      <point x="337" y="-149" type="curve" smooth="yes"/>
      <point x="355" y="-137"/>
      <point x="375" y="-114"/>
      <point x="375" y="-75" type="curve"/>
      <point x="256" y="-75" type="line" smooth="yes"/>
      <point x="114" y="-75"/>
      <point x="31" y="51"/>
      <point x="31" y="163" type="curve" smooth="yes"/>
      <point x="31" y="238"/>
      <point x="31" y="426"/>
      <point x="31" y="426" type="curve"/>
    </contour>
    <contour>
      <point x="436" y="676" type="curve" smooth="yes"/>
      <point x="475" y="676"/>
      <point x="507" y="644"/>
      <point x="507" y="605" type="curve" smooth="yes"/>
      <point x="507" y="566"/>
      <point x="475" y="534"/>
      <point x="436" y="534" type="curve" smooth="yes"/>
      <point x="397" y="534"/>
      <point x="365" y="566"/>
      <point x="365" y="605" type="curve" smooth="yes"/>
      <point x="365" y="644"/>
      <point x="397" y="676"/>
    </contour>
    <contour>
      <point x="132" y="676" type="curve" smooth="yes"/>
      <point x="171" y="676"/>
      <point x="203" y="644"/>
      <point x="203" y="605" type="curve" smooth="yes"/>
      <point x="203" y="566"/>
      <point x="171" y="534"/>
      <point x="132" y="534" type="curve" smooth="yes"/>
      <point x="93" y="534"/>
      <point x="61" y="566"/>
      <point x="61" y="605" type="curve" smooth="yes"/>
      <point x="61" y="644"/>
      <point x="93" y="676"/>
    </contour>
  </outline>
</glyph>
<glyph name="Amacron" format="2">
  <advance width="661"/>
  <unicode hex="0100"/>
  <outline>
    <contour>
      <point x="536" y="752" type="line"/>
      <point x="536" y="646" type="line"/>
      <point x="123" y="646" type="line"/>
      <point x="123" y="752" type="line"/>
    </contour>
    <contour>
      <point x="330" y="591" type="curve" smooth="yes"/>
      <point x="421" y="591"/>
      <point x="449" y="498"/>
      <point x="449" y="498" type="curve"/>
      <point x="632" y="-75" type="line"/>
      <point x="475" y="-75" type="line"/>
      <point x="435" y="60" type="line"/>
      <point x="287" y="60" type="line"/>
      <point x="318" y="171" type="line"/>
      <point x="402" y="171" type="line"/>
      <point x="330" y="414" type="line"/>
      <point x="187" y="-75" type="line"/>
      <point x="30" y="-75" type="line"/>
      <point x="210" y="498" type="line"/>
      <point x="210" y="498"/>
      <point x="239" y="591"/>
    </contour>
  </outline>
</glyph>
<glyph name="amacron" format="2">
  <advance width="565"/>
  <unicode hex="0101"/>
  <outline>
    <contour>
      <point x="497" y="613" type="line"/>
      <point x="497" y="507" type="line"/>
      <point x="85" y="507" type="line"/>
      <point x="85" y="613" type="line"/>
    </contour>
    <contour>
      <point x="514" y="426" type="line"/>
      <point x="514" y="-75" type="line"/>
      <point x="365" y="-75" type="line"/>
      <point x="365" y="295" type="line"/>
      <point x="301" y="295" type="line" smooth="yes"/>
      <point x="188" y="295"/>
      <point x="150" y="246"/>
      <point x="150" y="179" type="curve" smooth="yes"/>
      <point x="150" y="91"/>
      <point x="222" y="60"/>
      <point x="300" y="60" type="curve"/>
      <point x="300" y="-75" type="line"/>
      <point x="263" y="-75" type="line" smooth="yes"/>
      <point x="125" y="-75"/>
      <point x="12" y="23"/>
      <point x="12" y="169" type="curve" smooth="yes"/>
      <point x="12" y="315"/>
      <point x="91" y="426"/>
      <point x="274" y="426" type="curve" smooth="yes"/>
    </contour>
  </outline>
</glyph>
<glyph name="abreve" format="2">
  <advance width="571"/>
  <unicode hex="0103"/>
  <outline>
    <contour>
      <point x="502" y="676" type="line"/>
      <point x="502" y="644" type="line" smooth="yes"/>
      <point x="502" y="545"/>
      <point x="433" y="504"/>
      <point x="337" y="504" type="curve" smooth="yes"/>
      <point x="241" y="504"/>
      <point x="173" y="558"/>
      <point x="173" y="638" type="curve" smooth="yes"/>
      <point x="173" y="676" type="line"/>
      <point x="275" y="676" type="line"/>
      <point x="275" y="663" type="line" smooth="yes"/>
      <point x="275" y="619"/>
      <point x="302" y="596"/>
      <point x="339" y="596" type="curve" smooth="yes"/>
      <point x="378" y="596"/>
      <point x="401" y="618"/>
      <point x="401" y="661" type="curve" smooth="yes"/>
      <point x="401" y="676" type="line"/>
    </contour>
    <contour>
      <point x="537" y="426" type="line"/>
      <point x="537" y="-75" type="line"/>
      <point x="388" y="-75" type="line"/>
      <point x="388" y="295" type="line"/>
      <point x="324" y="295" type="line" smooth="yes"/>
      <point x="211" y="295"/>
      <point x="173" y="246"/>
      <point x="173" y="179" type="curve" smooth="yes"/>
      <point x="173" y="91"/>
      <point x="245" y="60"/>
      <point x="323" y="60" type="curve"/>
      <point x="323" y="-75" type="line"/>
      <point x="286" y="-75" type="line" smooth="yes"/>
      <point x="148" y="-75"/>
      <point x="34" y="23"/>
      <point x="34" y="169" type="curve" smooth="yes"/>
      <point x="34" y="315"/>
      <point x="114" y="426"/>
      <point x="297" y="426" type="curve" smooth="yes"/>
    </contour>
  </outline>
</glyph>
<glyph name="Aogonek" format="2">
  <advance width="671"/>
  <unicode hex="0104"/>
  <outline>
    <contour>
      <point x="537" y="-297" type="curve" smooth="yes"/>
      <point x="463" y="-297"/>
      <point x="423" y="-245"/>
      <point x="423" y="-184" type="curve" smooth="yes"/>
      <point x="423" y="-153"/>
      <point x="437" y="-129"/>
      <point x="439" y="-126" type="curve" smooth="yes"/>
      <point x="471" y="-75" type="line"/>
      <point x="431" y="60" type="line"/>
      <point x="284" y="60" type="line"/>
      <point x="315" y="171" type="line"/>
      <point x="398" y="171" type="line"/>
      <point x="326" y="414" type="line"/>
      <point x="183" y="-75" type="line"/>
      <point x="26" y="-75" type="line"/>
      <point x="207" y="498" type="line"/>
      <point x="207" y="498"/>
      <point x="235" y="591"/>
      <point x="326" y="591" type="curve" smooth="yes"/>
      <point x="417" y="591"/>
      <point x="445" y="498"/>
      <point x="445" y="498" type="curve"/>
      <point x="628" y="-75" type="line"/>
      <point x="561" y="-75" type="line"/>
      <point x="524" y="-133" type="line" smooth="yes"/>
      <point x="516" y="-146"/>
      <point x="498" y="-171"/>
      <point x="498" y="-186" type="curve" smooth="yes"/>
      <point x="498" y="-211"/>
      <point x="515" y="-226"/>
      <point x="538" y="-226" type="curve" smooth="yes"/>
      <point x="562" y="-226"/>
      <point x="580" y="-209"/>
      <point x="580" y="-185" type="curve" smooth="yes"/>
      <point x="580" y="-155"/>
      <point x="554" y="-147"/>
      <point x="554" y="-147" type="curve"/>
      <point x="588" y="-94" type="line"/>
      <point x="588" y="-94"/>
      <point x="649" y="-119"/>
      <point x="649" y="-187" type="curve" smooth="yes"/>
      <point x="649" y="-255"/>
      <point x="595" y="-297"/>
    </contour>
  </outline>
</glyph>
<glyph name="aogonek" format="2">
  <advance width="583"/>
  <unicode hex="0105"/>
  <outline>
    <contour>
      <point x="431" y="-297" type="curve" smooth="yes"/>
      <point x="357" y="-297"/>
      <point x="317" y="-245"/>
      <point x="317" y="-184" type="curve" smooth="yes"/>
      <point x="317" y="-153"/>
      <point x="331" y="-129"/>
      <point x="333" y="-126" type="curve" smooth="yes"/>
      <point x="365" y="-75" type="line"/>
      <point x="365" y="295" type="line"/>
      <point x="301" y="295" type="line" smooth="yes"/>
      <point x="188" y="295"/>
      <point x="150" y="246"/>
      <point x="150" y="179" type="curve" smooth="yes"/>
      <point x="150" y="91"/>
      <point x="222" y="60"/>
      <point x="300" y="60" type="curve"/>
      <point x="300" y="-75" type="line"/>
      <point x="263" y="-75" type="line" smooth="yes"/>
      <point x="125" y="-75"/>
      <point x="12" y="23"/>
      <point x="12" y="169" type="curve" smooth="yes"/>
      <point x="12" y="315"/>
      <point x="91" y="426"/>
      <point x="274" y="426" type="curve" smooth="yes"/>
      <point x="514" y="426" type="line"/>
      <point x="514" y="-75" type="line"/>
      <point x="455" y="-75" type="line"/>
      <point x="418" y="-133" type="line" smooth="yes"/>
      <point x="410" y="-146"/>
      <point x="392" y="-171"/>
      <point x="392" y="-186" type="curve" smooth="yes"/>
      <point x="392" y="-211"/>
      <point x="409" y="-226"/>
      <point x="432" y="-226" type="curve" smooth="yes"/>
      <point x="456" y="-226"/>
      <point x="474" y="-209"/>
      <point x="474" y="-185" type="curve" smooth="yes"/>
      <point x="474" y="-155"/>
      <point x="448" y="-147"/>
      <point x="448" y="-147" type="curve"/>
      <point x="482" y="-94" type="line"/>
      <point x="482" y="-94"/>
      <point x="542" y="-119"/>
      <point x="542" y="-187" type="curve" smooth="yes"/>
      <point x="542" y="-255"/>
      <point x="489" y="-297"/>
    </contour>
  </outline>
</glyph>
<glyph name="Cacute" format="2">
  <advance width="503"/>
  <unicode hex="0106"/>
  <outline>
    <contour>
      <point x="206" y="646" type="line"/>
      <point x="311" y="835" type="line"/>
      <point x="459" y="834" type="line"/>
      <point x="353" y="646" type="line"/>
    </contour>
    <contour>
      <point x="442" y="579" type="line"/>
      <point x="442" y="426" type="line"/>
      <point x="358" y="426" type="line" smooth="yes"/>
      <point x="220" y="426"/>
      <point x="180" y="323"/>
      <point x="180" y="242" type="curve" smooth="yes"/>
      <point x="180" y="167"/>
      <point x="201" y="74"/>
      <point x="369" y="74" type="curve" smooth="yes"/>
      <point x="371" y="74"/>
      <point x="442" y="74"/>
      <point x="442" y="74" type="curve"/>
      <point x="442" y="-75" type="line"/>
      <point x="296" y="-75" type="line" smooth="yes"/>
      <point x="112" y="-75"/>
      <point x="12" y="52"/>
      <point x="12" y="242" type="curve" smooth="yes"/>
      <point x="12" y="394"/>
      <point x="70" y="579"/>
      <point x="343" y="579" type="curve" smooth="yes"/>
    </contour>
  </outline>
</glyph>
<glyph name="cacute" format="2">
  <advance width="449"/>
  <unicode hex="0107"/>
  <outline>
    <contour>
      <point x="168" y="506" type="line"/>
      <point x="272" y="695" type="line"/>
      <point x="421" y="695" type="line"/>
      <point x="315" y="506" type="line"/>
    </contour>
    <contour>
      <point x="382" y="426" type="line"/>
      <point x="382" y="295" type="line"/>
      <point x="323" y="295" type="line" smooth="yes"/>
      <point x="210" y="295"/>
      <point x="167" y="246"/>
      <point x="167" y="179" type="curve" smooth="yes"/>
      <point x="167" y="91"/>
      <point x="244" y="60"/>
      <point x="322" y="60" type="curve" smooth="yes"/>
      <point x="382" y="60" type="line"/>
      <point x="382" y="-75" type="line"/>
      <point x="281" y="-75" type="line" smooth="yes"/>
      <point x="143" y="-75"/>
      <point x="29" y="23"/>
      <point x="29" y="169" type="curve" smooth="yes"/>
      <point x="29" y="315"/>
      <point x="109" y="426"/>
      <point x="292" y="426" type="curve" smooth="yes"/>
    </contour>
  </outline>
</glyph>
<glyph name="Ccaron" format="2">
  <advance width="487"/>
  <unicode hex="010C"/>
  <outline>
    <contour>
      <point x="283" y="639" type="curve" smooth="yes"/>
      <point x="225" y="639"/>
      <point x="195" y="672"/>
      <point x="180" y="707" type="curve" smooth="yes"/>
      <point x="140" y="800"/>
      <point x="132" y="815"/>
      <point x="131" y="817" type="curve"/>
      <point x="242" y="817" type="line"/>
      <point x="283" y="724" type="line"/>
      <point x="325" y="817" type="line"/>
      <point x="435" y="817" type="line"/>
      <point x="387" y="707" type="line" smooth="yes"/>
      <point x="372" y="672"/>
      <point x="341" y="639"/>
    </contour>
    <contour>
      <point x="448" y="579" type="line"/>
      <point x="448" y="426" type="line"/>
      <point x="363" y="426" type="line" smooth="yes"/>
      <point x="225" y="426"/>
      <point x="186" y="323"/>
      <point x="186" y="242" type="curve" smooth="yes"/>
      <point x="186" y="167"/>
      <point x="206" y="74"/>
      <point x="374" y="74" type="curve" smooth="yes"/>
      <point x="376" y="74"/>
      <point x="448" y="74"/>
      <point x="448" y="74" type="curve"/>
      <point x="448" y="-75" type="line"/>
      <point x="302" y="-75" type="line" smooth="yes"/>
      <point x="118" y="-75"/>
      <point x="17" y="52"/>
      <point x="17" y="242" type="curve" smooth="yes"/>
      <point x="17" y="394"/>
      <point x="76" y="579"/>
      <point x="349" y="579" type="curve" smooth="yes"/>
    </contour>
    <contour>
      <point x="131" y="817" type="line"/>
    </contour>
  </outline>
</glyph>
<glyph name="ccaron" format="2">
  <advance width="412"/>
  <unicode hex="010D"/>
  <outline>
    <contour>
      <point x="224" y="500" type="curve" smooth="yes"/>
      <point x="166" y="500"/>
      <point x="135" y="533"/>
      <point x="120" y="568" type="curve" smooth="yes"/>
      <point x="80" y="661"/>
      <point x="73" y="676"/>
      <point x="72" y="678" type="curve"/>
      <point x="183" y="678" type="line"/>
      <point x="224" y="585" type="line"/>
      <point x="265" y="678" type="line"/>
      <point x="376" y="678" type="line"/>
      <point x="328" y="568" type="line" smooth="yes"/>
      <point x="313" y="533"/>
      <point x="282" y="500"/>
    </contour>
    <contour>
      <point x="371" y="426" type="line"/>
      <point x="371" y="295" type="line"/>
      <point x="312" y="295" type="line" smooth="yes"/>
      <point x="199" y="295"/>
      <point x="156" y="246"/>
      <point x="156" y="179" type="curve" smooth="yes"/>
      <point x="156" y="91"/>
      <point x="233" y="60"/>
      <point x="311" y="60" type="curve" smooth="yes"/>
      <point x="371" y="60" type="line"/>
      <point x="371" y="-75" type="line"/>
      <point x="269" y="-75" type="line" smooth="yes"/>
      <point x="131" y="-75"/>
      <point x="17" y="23"/>
      <point x="17" y="169" type="curve" smooth="yes"/>
      <point x="17" y="315"/>
      <point x="97" y="426"/>
      <point x="280" y="426" type="curve" smooth="yes"/>
    </contour>
    <contour>
      <point x="72" y="678" type="line"/>
    </contour>
  </outline>
</glyph>
<glyph name="Dcaron" format="2">
  <advance width="614"/>
  <unicode hex="010E"/>
  <outline>
    <contour>
      <point x="271" y="639" type="curve" smooth="yes"/>
      <point x="213" y="639"/>
      <point x="183" y="672"/>
      <point x="168" y="707" type="curve" smooth="yes"/>
      <point x="128" y="800"/>
      <point x="120" y="815"/>
      <point x="119" y="817" type="curve"/>
      <point x="230" y="817" type="line"/>
      <point x="271" y="724" type="line"/>
      <point x="313" y="817" type="line"/>
      <point x="424" y="817" type="line"/>
      <point x="375" y="707" type="line" smooth="yes"/>
      <point x="360" y="672"/>
      <point x="329" y="639"/>
    </contour>
    <contour>
      <point x="32" y="579" type="line"/>
      <point x="32" y="579"/>
      <point x="23" y="580"/>
      <point x="271" y="579" type="curve" smooth="yes"/>
      <point x="519" y="578"/>
      <point x="603" y="394"/>
      <point x="603" y="242" type="curve" smooth="yes"/>
      <point x="603" y="52"/>
      <point x="503" y="-75"/>
      <point x="319" y="-75" type="curve" smooth="yes"/>
      <point x="250" y="-75" type="line"/>
      <point x="250" y="74" type="line"/>
      <point x="407" y="72"/>
      <point x="434" y="145"/>
      <point x="434" y="244" type="curve" smooth="yes"/>
      <point x="434" y="303"/>
      <point x="388" y="426"/>
      <point x="257" y="426" type="curve" smooth="yes"/>
      <point x="185" y="426" type="line"/>
      <point x="185" y="-75" type="line"/>
      <point x="32" y="-75" type="line"/>
    </contour>
    <contour>
      <point x="119" y="817" type="line"/>
    </contour>
  </outline>
</glyph>
<glyph name="dcaron" format="2">
  <advance width="755"/>
  <unicode hex="010F"/>
  <outline>
    <contour>
      <point x="772" y="646" type="line"/>
      <point x="691" y="426" type="line"/>
      <point x="542" y="426" type="line"/>
      <point x="626" y="646" type="line"/>
    </contour>
    <contour>
      <point x="520" y="-75" type="line"/>
      <point x="280" y="-75" type="line" smooth="yes"/>
      <point x="97" y="-75"/>
      <point x="17" y="36"/>
      <point x="17" y="182" type="curve" smooth="yes"/>
      <point x="17" y="328"/>
      <point x="131" y="426"/>
      <point x="269" y="426" type="curve" smooth="yes"/>
      <point x="306" y="426" type="line"/>
      <point x="306" y="291" type="line"/>
      <point x="228" y="291"/>
      <point x="156" y="260"/>
      <point x="156" y="172" type="curve" smooth="yes"/>
      <point x="156" y="105"/>
      <point x="194" y="56"/>
      <point x="307" y="56" type="curve" smooth="yes"/>
      <point x="371" y="56" type="line"/>
      <point x="371" y="646" type="line"/>
      <point x="520" y="646" type="line"/>
    </contour>
  </outline>
</glyph>
<glyph name="Dcroat" format="2">
  <advance width="667"/>
  <unicode hex="0110"/>
  <outline>
    <contour>
      <point x="381" y="299" type="line"/>
      <point x="381" y="171" type="line"/>
      <point x="238" y="171" type="line"/>
      <point x="238" y="-75" type="line"/>
      <point x="85" y="-75" type="line"/>
      <point x="85" y="7"/>
      <point x="85" y="89"/>
      <point x="85" y="171" type="curve"/>
      <point x="15" y="171" type="line"/>
      <point x="15" y="299" type="line"/>
      <point x="85" y="299" type="line"/>
      <point x="85" y="392"/>
      <point x="85" y="486"/>
      <point x="85" y="579" type="curve"/>
      <point x="85" y="579"/>
      <point x="76" y="580"/>
      <point x="324" y="579" type="curve" smooth="yes"/>
      <point x="572" y="578"/>
      <point x="656" y="394"/>
      <point x="656" y="242" type="curve" smooth="yes"/>
      <point x="656" y="52"/>
      <point x="556" y="-75"/>
      <point x="372" y="-75" type="curve" smooth="yes"/>
      <point x="303" y="-75" type="line"/>
      <point x="303" y="74" type="line"/>
      <point x="460" y="72"/>
      <point x="487" y="145"/>
      <point x="487" y="244" type="curve" smooth="yes"/>
      <point x="487" y="303"/>
      <point x="441" y="426"/>
      <point x="310" y="426" type="curve" smooth="yes"/>
      <point x="238" y="426" type="line"/>
      <point x="238" y="299" type="line"/>
    </contour>
  </outline>
</glyph>
<glyph name="Eogonek" format="2">
  <advance width="501"/>
  <unicode hex="0118"/>
  <outline>
    <contour>
      <point x="32" y="579" type="line"/>
      <point x="413" y="579" type="line"/>
      <point x="413" y="426" type="line"/>
      <point x="185" y="426" type="line"/>
      <point x="185" y="324" type="line"/>
      <point x="362" y="324" type="line"/>
      <point x="362" y="171" type="line"/>
      <point x="185" y="171" type="line"/>
      <point x="185" y="78" type="line"/>
      <point x="413" y="78" type="line"/>
      <point x="413" y="-75" type="line"/>
      <point x="386" y="-75" type="line"/>
      <point x="348" y="-133" type="line" smooth="yes"/>
      <point x="340" y="-146"/>
      <point x="323" y="-171"/>
      <point x="323" y="-186" type="curve" smooth="yes"/>
      <point x="323" y="-211"/>
      <point x="340" y="-226"/>
      <point x="363" y="-226" type="curve" smooth="yes"/>
      <point x="387" y="-226"/>
      <point x="404" y="-209"/>
      <point x="404" y="-185" type="curve" smooth="yes"/>
      <point x="404" y="-155"/>
      <point x="378" y="-147"/>
      <point x="378" y="-147" type="curve"/>
      <point x="413" y="-94" type="line"/>
      <point x="413" y="-94"/>
      <point x="473" y="-119"/>
      <point x="473" y="-187" type="curve" smooth="yes"/>
      <point x="473" y="-255"/>
      <point x="419" y="-297"/>
      <point x="361" y="-297" type="curve" smooth="yes"/>
      <point x="287" y="-297"/>
      <point x="248" y="-245"/>
      <point x="248" y="-184" type="curve" smooth="yes"/>
      <point x="248" y="-153"/>
      <point x="262" y="-129"/>
      <point x="264" y="-126" type="curve" smooth="yes"/>
      <point x="296" y="-75" type="line"/>
      <point x="32" y="-75" type="line"/>
    </contour>
  </outline>
</glyph>
<glyph name="eogonek" format="2">
  <advance width="529"/>
  <unicode hex="0119"/>
  <outline>
    <contour>
      <point x="512" y="120" type="curve"/>
      <point x="445" y="120"/>
      <point x="232" y="119"/>
      <point x="232" y="119" type="curve"/>
      <point x="232" y="207" type="line"/>
      <point x="374" y="207" type="line"/>
      <point x="377" y="248"/>
      <point x="343" y="296"/>
      <point x="268" y="296" type="curve" smooth="yes"/>
      <point x="221" y="296"/>
      <point x="150" y="268"/>
      <point x="150" y="170" type="curve" smooth="yes"/>
      <point x="150" y="76"/>
      <point x="233" y="46"/>
      <point x="303" y="46" type="curve" smooth="yes"/>
      <point x="376" y="46"/>
      <point x="417" y="53"/>
      <point x="417" y="53" type="curve"/>
      <point x="417" y="-75" type="line"/>
      <point x="417" y="-75"/>
      <point x="406" y="-76"/>
      <point x="388" y="-78" type="curve"/>
      <point x="353" y="-133" type="line" smooth="yes"/>
      <point x="345" y="-146"/>
      <point x="327" y="-171"/>
      <point x="327" y="-186" type="curve" smooth="yes"/>
      <point x="327" y="-211"/>
      <point x="344" y="-226"/>
      <point x="367" y="-226" type="curve" smooth="yes"/>
      <point x="391" y="-226"/>
      <point x="408" y="-209"/>
      <point x="408" y="-185" type="curve" smooth="yes"/>
      <point x="408" y="-155"/>
      <point x="383" y="-147"/>
      <point x="383" y="-147" type="curve"/>
      <point x="417" y="-94" type="line"/>
      <point x="417" y="-94"/>
      <point x="477" y="-119"/>
      <point x="477" y="-187" type="curve" smooth="yes"/>
      <point x="477" y="-255"/>
      <point x="424" y="-297"/>
      <point x="366" y="-297" type="curve" smooth="yes"/>
      <point x="292" y="-297"/>
      <point x="252" y="-245"/>
      <point x="252" y="-184" type="curve" smooth="yes"/>
      <point x="252" y="-153"/>
      <point x="266" y="-129"/>
      <point x="268" y="-126" type="curve" smooth="yes"/>
      <point x="295" y="-83" type="line"/>
      <point x="91" y="-79"/>
      <point x="17" y="50"/>
      <point x="17" y="171" type="curve" smooth="yes"/>
      <point x="17" y="321"/>
      <point x="111" y="437"/>
      <point x="265" y="437" type="curve" smooth="yes"/>
      <point x="402" y="437"/>
      <point x="532" y="367"/>
    </contour>
  </outline>
</glyph>
<glyph name="Ecaron" format="2">
  <advance width="442"/>
  <unicode hex="011A"/>
  <outline>
    <contour>
      <point x="32" y="579" type="line"/>
      <point x="413" y="579" type="line"/>
      <point x="413" y="426" type="line"/>
      <point x="185" y="426" type="line"/>
      <point x="185" y="325" type="line"/>
      <point x="362" y="325" type="line"/>
      <point x="362" y="172" type="line"/>
      <point x="185" y="172" type="line"/>
      <point x="185" y="78" type="line"/>
      <point x="413" y="78" type="line"/>
      <point x="413" y="-75" type="line"/>
      <point x="32" y="-75" type="line"/>
    </contour>
    <contour>
      <point x="228" y="639" type="curve" smooth="yes"/>
      <point x="170" y="639"/>
      <point x="139" y="672"/>
      <point x="124" y="707" type="curve" smooth="yes"/>
      <point x="84" y="800"/>
      <point x="77" y="815"/>
      <point x="76" y="817" type="curve"/>
      <point x="187" y="817" type="line"/>
      <point x="228" y="724" type="line"/>
      <point x="269" y="817" type="line"/>
      <point x="380" y="817" type="line"/>
      <point x="332" y="707" type="line" smooth="yes"/>
      <point x="317" y="672"/>
      <point x="286" y="639"/>
    </contour>
    <contour>
      <point x="76" y="817" type="line"/>
    </contour>
  </outline>
</glyph>
<glyph name="ecaron" format="2">
  <advance width="529"/>
  <unicode hex="011B"/>
  <outline>
    <contour>
      <point x="512" y="126" type="curve"/>
      <point x="445" y="126"/>
      <point x="232" y="126"/>
      <point x="232" y="126" type="curve"/>
      <point x="232" y="214" type="line"/>
      <point x="374" y="214" type="line"/>
      <point x="377" y="255"/>
      <point x="343" y="302"/>
      <point x="268" y="302" type="curve" smooth="yes"/>
      <point x="221" y="302"/>
      <point x="150" y="274"/>
      <point x="150" y="176" type="curve" smooth="yes"/>
      <point x="150" y="82"/>
      <point x="233" y="52"/>
      <point x="303" y="52" type="curve" smooth="yes"/>
      <point x="376" y="52"/>
      <point x="417" y="60"/>
      <point x="417" y="60" type="curve"/>
      <point x="417" y="-69" type="line"/>
      <point x="417" y="-69"/>
      <point x="366" y="-76"/>
      <point x="306" y="-76" type="curve" smooth="yes"/>
      <point x="94" y="-76"/>
      <point x="17" y="54"/>
      <point x="17" y="177" type="curve" smooth="yes"/>
      <point x="17" y="327"/>
      <point x="111" y="443"/>
      <point x="265" y="443" type="curve" smooth="yes"/>
      <point x="402" y="443"/>
      <point x="532" y="373"/>
    </contour>
    <contour>
      <point x="268" y="500" type="curve" smooth="yes"/>
      <point x="210" y="500"/>
      <point x="180" y="533"/>
      <point x="165" y="568" type="curve" smooth="yes"/>
      <point x="125" y="661"/>
      <point x="118" y="676"/>
      <point x="117" y="678" type="curve"/>
      <point x="227" y="678" type="line"/>
      <point x="268" y="585" type="line"/>
      <point x="310" y="678" type="line"/>
      <point x="421" y="678" type="line"/>
      <point x="372" y="568" type="line" smooth="yes"/>
      <point x="357" y="533"/>
      <point x="326" y="500"/>
    </contour>
    <contour>
      <point x="117" y="678" type="line"/>
      <point x="117" y="679"/>
      <point x="116" y="678"/>
      <point x="116" y="678" type="curve"/>
    </contour>
  </outline>
</glyph>
<glyph name="Itilde" format="2">
  <advance width="326"/>
  <unicode hex="0128"/>
  <outline>
    <contour>
      <point x="86" y="-75" type="line"/>
      <point x="86" y="579" type="line"/>
      <point x="239" y="579" type="line"/>
      <point x="239" y="-75" type="line"/>
    </contour>
    <contour>
      <point x="327" y="674" type="line"/>
      <point x="327" y="674"/>
      <point x="292" y="637"/>
      <point x="253" y="637" type="curve" smooth="yes"/>
      <point x="159" y="637"/>
      <point x="163" y="674"/>
      <point x="79" y="674" type="curve" smooth="yes"/>
      <point x="39" y="674"/>
      <point x="0" y="637"/>
      <point x="0" y="637" type="curve"/>
      <point x="0" y="747" type="line"/>
      <point x="0" y="747"/>
      <point x="40" y="784"/>
      <point x="82" y="784" type="curve" smooth="yes"/>
      <point x="171" y="784"/>
      <point x="171" y="747"/>
      <point x="256" y="747" type="curve" smooth="yes"/>
      <point x="294" y="747"/>
      <point x="327" y="784"/>
      <point x="327" y="784" type="curve"/>
    </contour>
  </outline>
</glyph>
<glyph name="itilde" format="2">
  <advance width="326"/>
  <unicode hex="0129"/>
  <outline>
    <contour>
      <point x="241" y="426" type="line"/>
      <point x="241" y="-75" type="line"/>
      <point x="92" y="-75" type="line"/>
      <point x="92" y="426" type="line"/>
    </contour>
    <contour>
      <point x="327" y="573" type="line"/>
      <point x="327" y="573"/>
      <point x="292" y="536"/>
      <point x="253" y="536" type="curve" smooth="yes"/>
      <point x="159" y="536"/>
      <point x="163" y="573"/>
      <point x="79" y="573" type="curve" smooth="yes"/>
      <point x="39" y="573"/>
      <point x="0" y="536"/>
      <point x="0" y="536" type="curve"/>
      <point x="0" y="646" type="line"/>
      <point x="0" y="646"/>
      <point x="40" y="683"/>
      <point x="82" y="683" type="curve" smooth="yes"/>
      <point x="171" y="683"/>
      <point x="171" y="646"/>
      <point x="256" y="646" type="curve" smooth="yes"/>
      <point x="294" y="646"/>
      <point x="327" y="683"/>
      <point x="327" y="683" type="curve"/>
    </contour>
  </outline>
</glyph>
<glyph name="Lslash" format="2">
  <advance width="522"/>
  <unicode hex="0141"/>
  <outline>
    <contour>
      <point x="110" y="579" type="line"/>
      <point x="263" y="578" type="line"/>
      <point x="263" y="404" type="line"/>
      <point x="330" y="442" type="line"/>
      <point x="383" y="350" type="line"/>
      <point x="263" y="280" type="line"/>
      <point x="263" y="78" type="line"/>
      <point x="491" y="78" type="line"/>
      <point x="491" y="-75" type="line"/>
      <point x="110" y="-75" type="line"/>
      <point x="110" y="192" type="line"/>
      <point x="53" y="159" type="line"/>
      <point x="0" y="252" type="line"/>
      <point x="110" y="316" type="line"/>
    </contour>
  </outline>
</glyph>
<glyph name="lslash" format="2">
  <advance width="382"/>
  <unicode hex="0142"/>
  <outline>
    <contour>
      <point x="262" y="404" type="line"/>
      <point x="329" y="442" type="line"/>
      <point x="382" y="350" type="line"/>
      <point x="262" y="280" type="line"/>
      <point x="262" y="-75" type="line"/>
      <point x="109" y="-75" type="line"/>
      <point x="109" y="192" type="line"/>
      <point x="52" y="159" type="line"/>
      <point x="-1" y="252" type="line"/>
      <point x="109" y="316" type="line"/>
      <point x="109" y="579" type="line"/>
      <point x="262" y="579" type="line"/>
    </contour>
  </outline>
</glyph>
<glyph name="Nacute" format="2">
  <advance width="565"/>
  <unicode hex="0143"/>
  <outline>
    <contour>
      <point x="285" y="579" type="curve" smooth="yes"/>
      <point x="469" y="579"/>
      <point x="531" y="462"/>
      <point x="531" y="336" type="curve" smooth="yes"/>
      <point x="531" y="-75" type="line"/>
      <point x="378" y="-75" type="line"/>
      <point x="378" y="310" type="line" smooth="yes"/>
      <point x="378" y="401"/>
      <point x="326" y="426"/>
      <point x="252" y="426" type="curve" smooth="yes"/>
      <point x="189" y="426" type="line"/>
      <point x="186" y="-75" type="line"/>
      <point x="33" y="-75" type="line"/>
      <point x="33" y="579" type="line"/>
      <point x="33" y="579"/>
      <point x="185" y="579"/>
    </contour>
    <contour>
      <point x="174" y="646" type="line"/>
      <point x="278" y="835" type="line"/>
      <point x="427" y="834" type="line"/>
      <point x="321" y="646" type="line"/>
    </contour>
  </outline>
</glyph>
<glyph name="nacute" format="2">
  <advance width="550"/>
  <unicode hex="0144"/>
  <outline>
    <contour>
      <point x="193" y="507" type="line"/>
      <point x="297" y="695" type="line"/>
      <point x="446" y="695" type="line"/>
      <point x="339" y="507" type="line"/>
    </contour>
    <contour>
      <point x="516" y="-75" type="line"/>
      <point x="368" y="-75" type="line"/>
      <point x="368" y="147" type="line" smooth="yes"/>
      <point x="368" y="251"/>
      <point x="337" y="292"/>
      <point x="274" y="292" type="curve" smooth="yes"/>
      <point x="213" y="292"/>
      <point x="181" y="248"/>
      <point x="181" y="148" type="curve" smooth="yes"/>
      <point x="181" y="-75" type="line"/>
      <point x="32" y="-75" type="line"/>
      <point x="32" y="190" type="line" smooth="yes"/>
      <point x="32" y="337"/>
      <point x="132" y="442"/>
      <point x="273" y="442" type="curve" smooth="yes"/>
      <point x="414" y="442"/>
      <point x="516" y="362"/>
      <point x="516" y="179" type="curve" smooth="yes"/>
    </contour>
  </outline>
</glyph>
<glyph name="Ncaron" format="2">
  <advance width="565"/>
  <unicode hex="0147"/>
  <outline>
    <contour>
      <point x="285" y="579" type="curve" smooth="yes"/>
      <point x="469" y="579"/>
      <point x="531" y="462"/>
      <point x="531" y="336" type="curve" smooth="yes"/>
      <point x="531" y="-75" type="line"/>
      <point x="378" y="-75" type="line"/>
      <point x="378" y="310" type="line" smooth="yes"/>
      <point x="378" y="401"/>
      <point x="326" y="426"/>
      <point x="252" y="426" type="curve" smooth="yes"/>
      <point x="189" y="426" type="line"/>
      <point x="186" y="-75" type="line"/>
      <point x="33" y="-75" type="line"/>
      <point x="33" y="579" type="line"/>
      <point x="33" y="579"/>
      <point x="185" y="579"/>
    </contour>
    <contour>
      <point x="280" y="639" type="curve" smooth="yes"/>
      <point x="222" y="639"/>
      <point x="191" y="672"/>
      <point x="176" y="707" type="curve" smooth="yes"/>
      <point x="136" y="800"/>
      <point x="129" y="815"/>
      <point x="128" y="817" type="curve"/>
      <point x="238" y="817" type="line"/>
      <point x="280" y="724" type="line"/>
      <point x="321" y="817" type="line"/>
      <point x="432" y="817" type="line"/>
      <point x="384" y="707" type="line" smooth="yes"/>
      <point x="369" y="672"/>
      <point x="338" y="639"/>
    </contour>
    <contour>
      <point x="128" y="817" type="line"/>
    </contour>
  </outline>
</glyph>
<glyph name="ncaron" format="2">
  <advance width="548"/>
  <unicode hex="0148"/>
  <outline>
    <contour>
      <point x="515" y="-75" type="line"/>
      <point x="366" y="-75" type="line"/>
      <point x="366" y="147" type="line" smooth="yes"/>
      <point x="366" y="251"/>
      <point x="336" y="292"/>
      <point x="273" y="292" type="curve" smooth="yes"/>
      <point x="212" y="292"/>
      <point x="180" y="248"/>
      <point x="180" y="148" type="curve" smooth="yes"/>
      <point x="179" y="-75" type="line"/>
      <point x="31" y="-75" type="line"/>
      <point x="31" y="190" type="line" smooth="yes"/>
      <point x="31" y="337"/>
      <point x="131" y="442"/>
      <point x="272" y="442" type="curve" smooth="yes"/>
      <point x="413" y="442"/>
      <point x="515" y="362"/>
      <point x="515" y="179" type="curve" smooth="yes"/>
    </contour>
    <contour>
      <point x="275" y="500" type="curve" smooth="yes"/>
      <point x="217" y="500"/>
      <point x="186" y="533"/>
      <point x="171" y="568" type="curve" smooth="yes"/>
      <point x="131" y="661"/>
      <point x="124" y="676"/>
      <point x="123" y="678" type="curve"/>
      <point x="234" y="678" type="line"/>
      <point x="275" y="585" type="line"/>
      <point x="316" y="678" type="line"/>
      <point x="427" y="678" type="line"/>
      <point x="379" y="568" type="line" smooth="yes"/>
      <point x="364" y="533"/>
      <point x="333" y="500"/>
    </contour>
    <contour>
      <point x="123" y="678" type="line"/>
    </contour>
  </outline>
</glyph>
<glyph name="OE" format="2">
  <advance width="863"/>
  <unicode hex="0152"/>
  <outline>
    <contour>
      <point x="345" y="455" type="curve" smooth="yes"/>
      <point x="236" y="455"/>
      <point x="147" y="364"/>
      <point x="147" y="251" type="curve" smooth="yes"/>
      <point x="147" y="138"/>
      <point x="236" y="46"/>
      <point x="345" y="46" type="curve" smooth="yes"/>
      <point x="381" y="46"/>
      <point x="414" y="56"/>
      <point x="443" y="73" type="curve"/>
      <point x="443" y="428" type="line"/>
      <point x="414" y="445"/>
      <point x="381" y="455"/>
    </contour>
    <contour>
      <point x="346" y="593" type="curve" smooth="yes"/>
      <point x="380" y="593"/>
      <point x="412" y="588"/>
      <point x="443" y="579" type="curve"/>
      <point x="823" y="579" type="line"/>
      <point x="823" y="426" type="line"/>
      <point x="595" y="426" type="line"/>
      <point x="595" y="325" type="line"/>
      <point x="772" y="325" type="line"/>
      <point x="772" y="172" type="line"/>
      <point x="595" y="172" type="line"/>
      <point x="595" y="78" type="line"/>
      <point x="823" y="78" type="line"/>
      <point x="823" y="-75" type="line"/>
      <point x="443" y="-75" type="line"/>
      <point x="412" y="-84"/>
      <point x="380" y="-89"/>
      <point x="346" y="-89" type="curve" smooth="yes"/>
      <point x="161" y="-89"/>
      <point x="12" y="63"/>
      <point x="12" y="252" type="curve" smooth="yes"/>
      <point x="12" y="441"/>
      <point x="161" y="593"/>
    </contour>
  </outline>
</glyph>
<glyph name="oe" format="2">
  <advance width="917"/>
  <unicode hex="0153"/>
  <outline>
    <contour>
      <point x="285" y="296" type="curve" smooth="yes"/>
      <point x="219" y="296"/>
      <point x="166" y="243"/>
      <point x="166" y="178" type="curve" smooth="yes"/>
      <point x="166" y="113"/>
      <point x="219" y="60"/>
      <point x="285" y="60" type="curve" smooth="yes"/>
      <point x="351" y="60"/>
      <point x="404" y="113"/>
      <point x="404" y="178" type="curve" smooth="yes"/>
      <point x="404" y="243"/>
      <point x="351" y="296"/>
    </contour>
    <contour>
      <point x="652" y="437" type="curve" smooth="yes"/>
      <point x="789" y="437"/>
      <point x="919" y="367"/>
      <point x="899" y="120" type="curve"/>
      <point x="832" y="120"/>
      <point x="618" y="119"/>
      <point x="618" y="119" type="curve"/>
      <point x="618" y="207" type="line"/>
      <point x="760" y="207" type="line"/>
      <point x="763" y="248"/>
      <point x="729" y="296"/>
      <point x="654" y="296" type="curve" smooth="yes"/>
      <point x="607" y="296"/>
      <point x="537" y="268"/>
      <point x="537" y="170" type="curve" smooth="yes"/>
      <point x="537" y="76"/>
      <point x="620" y="46"/>
      <point x="690" y="46" type="curve" smooth="yes"/>
      <point x="763" y="46"/>
      <point x="804" y="53"/>
      <point x="804" y="53" type="curve"/>
      <point x="804" y="-75" type="line"/>
      <point x="804" y="-75"/>
      <point x="752" y="-83"/>
      <point x="692" y="-83" type="curve" smooth="yes"/>
      <point x="586" y="-83"/>
      <point x="515" y="-50"/>
      <point x="469" y="-2" type="curve"/>
      <point x="422" y="-52"/>
      <point x="356" y="-83"/>
      <point x="283" y="-83" type="curve" smooth="yes"/>
      <point x="141" y="-83"/>
      <point x="26" y="34"/>
      <point x="26" y="177" type="curve" smooth="yes"/>
      <point x="26" y="321"/>
      <point x="141" y="437"/>
      <point x="283" y="437" type="curve" smooth="yes"/>
      <point x="355" y="437"/>
      <point x="421" y="406"/>
      <point x="468" y="357" type="curve"/>
      <point x="511" y="406"/>
      <point x="573" y="437"/>
    </contour>
  </outline>
</glyph>
<glyph name="Rcaron" format="2">
  <advance width="576"/>
  <unicode hex="0158"/>
  <outline>
    <contour>
      <point x="263" y="639" type="curve" smooth="yes"/>
      <point x="205" y="639"/>
      <point x="174" y="672"/>
      <point x="159" y="707" type="curve" smooth="yes"/>
      <point x="119" y="800"/>
      <point x="112" y="815"/>
      <point x="111" y="817" type="curve"/>
      <point x="221" y="817" type="line"/>
      <point x="263" y="724" type="line"/>
      <point x="304" y="817" type="line"/>
      <point x="415" y="817" type="line"/>
      <point x="367" y="707" type="line" smooth="yes"/>
      <point x="352" y="672"/>
      <point x="321" y="639"/>
    </contour>
    <contour>
      <point x="32" y="579" type="line"/>
      <point x="273" y="579" type="line" smooth="yes"/>
      <point x="468" y="579"/>
      <point x="559" y="489"/>
      <point x="559" y="327" type="curve" smooth="yes"/>
      <point x="559" y="212"/>
      <point x="496" y="135"/>
      <point x="406" y="101" type="curve"/>
      <point x="523" y="-75" type="line"/>
      <point x="356" y="-75" type="line"/>
      <point x="250" y="80" type="line"/>
      <point x="250" y="220" type="line"/>
      <point x="328" y="220"/>
      <point x="400" y="245"/>
      <point x="400" y="332" type="curve" smooth="yes"/>
      <point x="400" y="408"/>
      <point x="342" y="426"/>
      <point x="249" y="426" type="curve" smooth="yes"/>
      <point x="185" y="426" type="line"/>
      <point x="185" y="-75" type="line"/>
      <point x="32" y="-75" type="line"/>
    </contour>
    <contour>
      <point x="111" y="817" type="line"/>
    </contour>
  </outline>
</glyph>
<glyph name="rcaron" format="2">
  <advance width="482"/>
  <unicode hex="0159"/>
  <outline>
    <contour>
      <point x="35" y="426" type="line"/>
      <point x="250" y="426" type="line" smooth="yes"/>
      <point x="395" y="426"/>
      <point x="466" y="314"/>
      <point x="466" y="236" type="curve" smooth="yes"/>
      <point x="466" y="203"/>
      <point x="466" y="190"/>
      <point x="466" y="189" type="curve"/>
      <point x="317" y="189" type="line"/>
      <point x="317" y="198" type="line" smooth="yes"/>
      <point x="317" y="260"/>
      <point x="277" y="285"/>
      <point x="212" y="285" type="curve" smooth="yes"/>
      <point x="182" y="285" type="line"/>
      <point x="183" y="-75" type="line"/>
      <point x="35" y="-75" type="line"/>
    </contour>
    <contour>
      <point x="217" y="500" type="curve" smooth="yes"/>
      <point x="159" y="500"/>
      <point x="129" y="533"/>
      <point x="114" y="568" type="curve" smooth="yes"/>
      <point x="74" y="661"/>
      <point x="67" y="676"/>
      <point x="66" y="678" type="curve"/>
      <point x="176" y="678" type="line"/>
      <point x="217" y="585" type="line"/>
      <point x="259" y="678" type="line"/>
      <point x="370" y="678" type="line"/>
      <point x="321" y="568" type="line" smooth="yes"/>
      <point x="306" y="533"/>
      <point x="275" y="500"/>
    </contour>
    <contour>
      <point x="66" y="678" type="line"/>
    </contour>
  </outline>
</glyph>
<glyph name="Sacute" format="2">
  <advance width="476"/>
  <unicode hex="015A"/>
  <outline>
    <contour>
      <point x="148" y="646" type="line"/>
      <point x="252" y="835" type="line"/>
      <point x="401" y="834" type="line"/>
      <point x="295" y="646" type="line"/>
    </contour>
    <contour>
      <point x="435" y="426" type="line"/>
      <point x="284" y="426" type="line" smooth="yes"/>
      <point x="238" y="426"/>
      <point x="185" y="410"/>
      <point x="185" y="363" type="curve" smooth="yes"/>
      <point x="185" y="313"/>
      <point x="248" y="315"/>
      <point x="314" y="306" type="curve" smooth="yes"/>
      <point x="408" y="293"/>
      <point x="459" y="216"/>
      <point x="459" y="115" type="curve" smooth="yes"/>
      <point x="459" y="-4"/>
      <point x="380" y="-75"/>
      <point x="236" y="-75" type="curve" smooth="yes"/>
      <point x="27" y="-75" type="line"/>
      <point x="27" y="77" type="line"/>
      <point x="178" y="77" type="line" smooth="yes"/>
      <point x="198" y="77"/>
      <point x="267" y="79"/>
      <point x="267" y="128" type="curve" smooth="yes"/>
      <point x="267" y="176"/>
      <point x="198" y="177"/>
      <point x="146" y="187" type="curve" smooth="yes"/>
      <point x="89" y="198"/>
      <point x="10" y="242"/>
      <point x="10" y="358" type="curve" smooth="yes"/>
      <point x="10" y="482"/>
      <point x="50" y="579"/>
      <point x="280" y="579" type="curve" smooth="yes"/>
      <point x="435" y="579" type="line"/>
    </contour>
  </outline>
</glyph>
<glyph name="sacute" format="2">
  <advance width="389"/>
  <unicode hex="015B"/>
  <outline>
    <contour>
      <point x="121" y="507" type="line"/>
      <point x="225" y="695" type="line"/>
      <point x="374" y="695" type="line"/>
      <point x="267" y="507" type="line"/>
    </contour>
    <contour>
      <point x="353" y="298" type="line"/>
      <point x="238" y="298" type="line" smooth="yes"/>
      <point x="202" y="298"/>
      <point x="169" y="289"/>
      <point x="169" y="255" type="curve" smooth="yes"/>
      <point x="169" y="218"/>
      <point x="214" y="219"/>
      <point x="260" y="212" type="curve" smooth="yes"/>
      <point x="321" y="202"/>
      <point x="372" y="148"/>
      <point x="372" y="78" type="curve" smooth="yes"/>
      <point x="372" y="-27"/>
      <point x="310" y="-75"/>
      <point x="187" y="-75" type="curve" smooth="yes"/>
      <point x="41" y="-75" type="line"/>
      <point x="41" y="53" type="line"/>
      <point x="156" y="53" type="line" smooth="yes"/>
      <point x="171" y="53"/>
      <point x="217" y="55"/>
      <point x="217" y="86" type="curve" smooth="yes"/>
      <point x="217" y="122"/>
      <point x="160" y="122"/>
      <point x="132" y="126" type="curve" smooth="yes"/>
      <point x="98" y="131"/>
      <point x="28" y="163"/>
      <point x="28" y="250" type="curve" smooth="yes"/>
      <point x="28" y="349"/>
      <point x="67" y="426"/>
      <point x="241" y="426" type="curve" smooth="yes"/>
      <point x="353" y="426" type="line"/>
    </contour>
  </outline>
</glyph>
<glyph name="Scaron" format="2">
  <advance width="482"/>
  <unicode hex="0160"/>
  <outline>
    <contour>
      <point x="442" y="422" type="line"/>
      <point x="291" y="422" type="line" smooth="yes"/>
      <point x="245" y="422"/>
      <point x="193" y="406"/>
      <point x="193" y="359" type="curve" smooth="yes"/>
      <point x="193" y="309"/>
      <point x="255" y="311"/>
      <point x="321" y="302" type="curve" smooth="yes"/>
      <point x="415" y="289"/>
      <point x="466" y="212"/>
      <point x="466" y="111" type="curve" smooth="yes"/>
      <point x="466" y="-8"/>
      <point x="387" y="-79"/>
      <point x="243" y="-79" type="curve" smooth="yes"/>
      <point x="34" y="-79" type="line"/>
      <point x="34" y="73" type="line"/>
      <point x="185" y="73" type="line" smooth="yes"/>
      <point x="205" y="73"/>
      <point x="274" y="75"/>
      <point x="274" y="124" type="curve" smooth="yes"/>
      <point x="274" y="172"/>
      <point x="206" y="173"/>
      <point x="154" y="183" type="curve" smooth="yes"/>
      <point x="97" y="194"/>
      <point x="17" y="238"/>
      <point x="17" y="354" type="curve" smooth="yes"/>
      <point x="17" y="478"/>
      <point x="57" y="575"/>
      <point x="287" y="575" type="curve" smooth="yes"/>
      <point x="442" y="575" type="line"/>
    </contour>
    <contour>
      <point x="252" y="639" type="curve" smooth="yes"/>
      <point x="194" y="639"/>
      <point x="164" y="672"/>
      <point x="149" y="707" type="curve" smooth="yes"/>
      <point x="109" y="800"/>
      <point x="101" y="815"/>
      <point x="100" y="817" type="curve"/>
      <point x="211" y="817" type="line"/>
      <point x="252" y="724" type="line"/>
      <point x="294" y="817" type="line"/>
      <point x="404" y="817" type="line"/>
      <point x="356" y="707" type="line" smooth="yes"/>
      <point x="341" y="672"/>
      <point x="310" y="639"/>
    </contour>
    <contour>
      <point x="100" y="817" type="line"/>
    </contour>
  </outline>
</glyph>
<glyph name="scaron" format="2">
  <advance width="378"/>
  <unicode hex="0161"/>
  <outline>
    <contour>
      <point x="343" y="298" type="line"/>
      <point x="227" y="298" type="line" smooth="yes"/>
      <point x="191" y="298"/>
      <point x="159" y="289"/>
      <point x="159" y="255" type="curve" smooth="yes"/>
      <point x="159" y="218"/>
      <point x="204" y="219"/>
      <point x="250" y="212" type="curve" smooth="yes"/>
      <point x="311" y="202"/>
      <point x="361" y="148"/>
      <point x="361" y="78" type="curve" smooth="yes"/>
      <point x="361" y="-27"/>
      <point x="299" y="-75"/>
      <point x="176" y="-75" type="curve" smooth="yes"/>
      <point x="30" y="-75" type="line"/>
      <point x="30" y="53" type="line"/>
      <point x="146" y="53" type="line" smooth="yes"/>
      <point x="161" y="53"/>
      <point x="207" y="55"/>
      <point x="207" y="86" type="curve" smooth="yes"/>
      <point x="207" y="122"/>
      <point x="150" y="122"/>
      <point x="122" y="126" type="curve" smooth="yes"/>
      <point x="88" y="131"/>
      <point x="17" y="163"/>
      <point x="17" y="250" type="curve" smooth="yes"/>
      <point x="17" y="349"/>
      <point x="57" y="426"/>
      <point x="231" y="426" type="curve" smooth="yes"/>
      <point x="343" y="426" type="line"/>
    </contour>
    <contour>
      <point x="193" y="500" type="curve" smooth="yes"/>
      <point x="135" y="500"/>
      <point x="104" y="533"/>
      <point x="89" y="568" type="curve" smooth="yes"/>
      <point x="49" y="661"/>
      <point x="42" y="676"/>
      <point x="41" y="678" type="curve"/>
      <point x="152" y="678" type="line"/>
      <point x="193" y="585" type="line"/>
      <point x="235" y="678" type="line"/>
      <point x="345" y="678" type="line"/>
      <point x="297" y="568" type="line" smooth="yes"/>
      <point x="282" y="533"/>
      <point x="251" y="500"/>
    </contour>
    <contour>
      <point x="41" y="678" type="line"/>
    </contour>
  </outline>
</glyph>
